<?xml version="1.0" encoding="UTF-8" standalone="no"?>
<svg width="70px" height="42px" viewBox="0 0 70 42" version="1.1" xmlns="http://www.w3.org/2000/svg" xmlns:xlink="http://www.w3.org/1999/xlink">
    <!-- Generator: Sketch 46.2 (44496) - http://www.bohemiancoding.com/sketch -->
    <title>Fill 1</title>
    <desc>Created with Sketch.</desc>
    <defs></defs>
    <g id="Desktop/Mobile" stroke="none" stroke-width="1" fill="none" fill-rule="evenodd">
        <g id="Framework-Page" transform="translate(-299.000000, -2702.000000)" fill="currentColor">
            <g id="intervention-pathways" transform="translate(-66.000000, 2025.000000)">
                <g id="OUTLINES" transform="translate(328.000000, 363.000000)">
                    <g id="Orange" transform="translate(0.000000, 32.000000)">
                        <g id="finance" transform="translate(9.000000, 240.000000)">
                            <path d="M58.0624728,71.4491445 C57.1330927,71.4491445 55.6545335,71.1370042 55.6545335,70.0488159 C55.6545335,69.1953196 55.0325998,68.5726036 54.1775389,68.5726036 C53.4007085,68.5726036 52.7779926,69.1953196 52.7779926,69.9721499 C52.7013266,72.1493088 54.6437935,73.7037517 56.5862605,74.1684418 L56.5862605,75.7228847 C56.5862605,76.5763811 57.2089764,77.1998793 58.0624728,77.1998793 C58.8393031,77.1998793 59.4628013,76.5763811 59.4628013,75.7987684 L59.4628013,74.1684418 C61.7174086,73.7037517 63.3477352,72.0726427 63.3477352,70.0488159 C63.3477352,69.0372937 62.8830452,68.0296829 62.1820986,67.2528526 C61.1705763,66.2413304 59.6982756,65.6976274 58.1438326,65.6976274 C57.2128879,65.6976274 55.7358933,65.3103857 55.7358933,64.2214151 C55.7358933,63.5220331 56.7481979,62.8218688 58.1438326,62.8218688 C58.9981113,62.8218688 60.5517719,63.2098928 60.5517719,64.2214151 C60.5517719,64.9982454 61.1752702,65.6976274 61.9513182,65.6976274 C62.8063792,65.6976274 63.4283128,65.0756937 63.4283128,64.2214151 C63.4283128,61.9683725 61.4866281,60.6470569 59.6208272,60.1025716 L59.6208272,58.4714626 C59.6208272,57.6946323 58.9981113,56.9936857 58.1438326,56.9936857 C57.3670023,56.9936857 56.666838,57.6171839 56.666838,58.3940142 L56.666838,60.0251232 C54.4130131,60.4905956 52.7819041,62.2022821 52.7819041,64.0633892 C52.7819041,65.1523598 53.1707104,66.0833045 54.0242068,66.8601348 C54.9543692,67.871657 56.5088121,68.4137954 58.0624728,68.4137954 C58.9167514,68.4137954 60.3929637,68.8800501 60.3929637,69.89079 C60.4751059,70.6723142 59.4628013,71.4491445 58.0624728,71.4491445 L58.0624728,71.4491445 Z M88.3643313,55.2092446 C86.1112887,51.7123347 80.2838878,42 73.213402,42 L58.1438326,42 C58.1438326,42 55.4245354,42 55.4245354,44.7967456 L55.4245354,46.5053029 C55.4245354,46.5053029 55.4245354,48.7599101 58.1438326,48.7599101 L68.0094994,48.7599101 C69.021804,48.7599101 69.021804,51.0129528 67.7748075,51.0129528 L34.2881793,51.0129528 C31.5688821,50.9362867 31.1034097,52.6487556 31.1034097,53.1901116 L31.1034097,54.8212206 C31.0267437,57.2283776 33.6693749,57.0750455 34.2881793,57.0750455 L47.8095643,57.0750455 C50.3747471,54.4324143 54.0242068,52.7246393 58.1438326,52.7246393 C66.0670325,52.7246393 72.5187139,59.0941785 72.5187139,67.0987383 C72.5187139,75.0211558 66.0670325,81.4728372 58.1438326,81.4728372 C53.871657,81.4728372 50.2206328,79.68292 47.5772192,76.811073 L40.4269382,76.811073 C37.7076409,76.811073 37.7076409,79.0656802 37.7076409,79.0656802 L37.7076409,80.7726729 C37.7076409,83.0272801 40.4269382,83.0272801 40.4269382,83.0272801 L74.3790387,83.0272801 C81.6067681,83.0272801 86.1879547,80.1530862 88.4417796,76.811073 L95.7453928,76.811073 C97.1465036,72.7712424 98,68.4177069 98,63.8373026 C98,60.8066474 97.6111937,57.9332357 96.9884777,55.1364901 L88.3643313,55.1364901 L88.3643313,55.2092446 Z M34.2881793,68.4177069 C31.5688821,68.4177069 31.1034097,69.737458 31.1034097,70.6723142 L31.1034097,72.3785246 C31.1034097,73.8570838 32.1157143,74.6339141 34.2881793,74.6339141 L45.789649,74.6339141 C44.7006784,72.7681132 43.9238481,70.6723142 43.770516,68.4177069 L34.2881793,68.4177069 Z M43.770516,66.087216 C43.9238481,63.6784944 44.7006784,61.4254518 45.9468926,59.4829848 L31.1855519,59.4829848 C28.4654723,59.4829848 28,60.8027358 28,61.7368098 L28,63.9147509 C28,66.1677936 30.1763766,66.1677936 31.1855519,66.1677936 L43.770516,66.1677936 L43.770516,66.087216 Z" id="Fill-1"></path>
                        </g>
                    </g>
                </g>
            </g>
        </g>
    </g>
</svg>