<?xml version="1.0" encoding="UTF-8" standalone="no"?>
<svg width="50px" height="68px" viewBox="0 0 50 68" version="1.1" xmlns="http://www.w3.org/2000/svg" xmlns:xlink="http://www.w3.org/1999/xlink">
    <!-- Generator: Sketch 46.2 (44496) - http://www.bohemiancoding.com/sketch -->
    <title>Page 1</title>
    <desc>Created with Sketch.</desc>
    <defs>
        <polygon id="path-1" points="2.2970385e-20 1.01936693e-05 2.2970385e-20 67.1488983 49.8940678 67.1488983 49.8940678 1.01936693e-05"></polygon>
    </defs>
    <g id="Desktop/Mobile" stroke="none" stroke-width="1" fill="none" fill-rule="evenodd">
        <g id="Framework-Page" transform="translate(-515.000000, -2449.000000)">
            <g id="intervention-pathways" transform="translate(-66.000000, 2025.000000)">
                <g id="OUTLINES" transform="translate(328.000000, 363.000000)">
                    <g id="Orange" transform="translate(0.000000, 32.000000)">
                        <g id="standards-/-certs" transform="translate(215.000000, 0.000000)">
                            <g id="Page-1" transform="translate(38.000000, 29.000000)">
                                <mask id="mask-2" fill="white">
                                    <use xlink:href="#path-1"></use>
                                </mask>
                                <g id="Clip-2"></g>
                                <path d="M13.0163559,62.5731356 L8.06635593,63.9960169 C7.59432203,64.1290678 7.11635593,63.6570339 7.32144068,63.1833051 L11.455339,50.3011017 C12.2672034,51.1138136 13.355339,51.5900847 14.5722881,51.5900847 C14.9782203,51.5900847 15.385,51.5231356 15.794322,51.3858475 L19.3180508,50.3011017 L22.0299153,52.8078814 C22.0968644,52.8748305 22.2341525,52.9417797 22.3011017,53.0121186 L17.8960169,66.6366949 C17.7621186,67.1095763 17.1502542,67.2468644 16.8121186,66.8409322 L13.6273729,62.7739831 C13.5570339,62.5731356 13.2841525,62.5019492 13.0163559,62.5731356 M38.5688983,50.3011017 L42.7688983,63.2477119 C42.9044915,63.7205932 42.4985593,64.1968644 42.0248305,64.0587288 L37.0087288,62.6366949 C36.7366949,62.5697458 36.535,62.6366949 36.3307627,62.8409322 L33.1460169,66.9078814 C32.8078814,67.314661 32.1968644,67.1799153 32.0629661,66.7036441 L27.6561864,53.0799153 C27.7231356,53.0121186 27.8612712,52.9451695 27.9290678,52.8748305 L30.6409322,50.3688983 L34.1629661,51.4519492 C34.5697458,51.5858475 34.9739831,51.6561864 35.3858475,51.6561864 C36.6688983,51.5900847 37.7570339,51.1172034 38.5688983,50.3011017 M34.6358475,23.8655085 L30.2977119,27.5273729 L31.6527966,33.0163559 C31.9248305,34.0333051 30.7697458,34.8451695 29.8909322,34.305339 L25.0121186,31.3222881 L20.2011017,34.305339 C19.3180508,34.8494068 18.1672034,34.0333051 18.4392373,33.0163559 L19.794322,27.5273729 L15.455339,23.8655085 C14.644322,23.1875424 15.0502542,21.8324576 16.1341525,21.7655085 L21.8282203,21.3595763 L23.9951695,16.0705932 C24.4019492,15.0536441 25.8239831,15.0536441 26.235,16.0705932 L28.4011017,21.3595763 L34.0960169,21.7655085 C34.9739831,21.8324576 35.4519492,23.1875424 34.6358475,23.8655085 M25.0121186,12.0036441 C17.5561864,12.0036441 11.5222881,18.0375424 11.5222881,25.4934746 C11.5222881,32.9494068 17.5561864,38.9833051 25.0121186,38.9833051 C32.4680508,38.9833051 38.5019492,32.9494068 38.5019492,25.4934746 C38.5019492,18.0375424 32.4680508,12.0036441 25.0121186,12.0036441 M25.0121186,42.0333051 C15.9290678,42.0333051 8.54008475,34.644322 8.54008475,25.5604237 C8.54008475,16.4773729 15.9290678,9.08838983 25.0121186,9.08838983 C34.0960169,9.08838983 41.4858475,16.4773729 41.4858475,25.5604237 C41.4858475,34.5773729 34.0960169,42.0333051 25.0121186,42.0333051 M44.6019492,34.2383898 L49.4807627,31.5265254 C49.8875424,31.2544915 50.0248305,30.7155085 49.7536441,30.305339 L46.4985593,25.8324576 C46.2934746,25.5604237 46.2934746,25.1544915 46.4985593,24.8824576 L49.6833051,20.3426271 C49.955339,19.9366949 49.8172034,19.3265254 49.4104237,19.1205932 L44.5316102,16.4773729 C44.1926271,16.2722881 44.0587288,15.9333051 44.1248305,15.594322 L45.0748305,10.105339 C45.1417797,9.63161017 44.8036441,9.15533898 44.2629661,9.15533898 L38.7061864,8.95110169 C38.3672034,8.95110169 38.0290678,8.6790678 37.9621186,8.34008475 L36.4019492,2.98415254 C36.2672034,2.51127119 35.7231356,2.23923729 35.2502542,2.44008475 L30.1663559,4.60788136 C29.7578814,4.81974576 29.4180508,4.68584746 29.1460169,4.41381356 L25.4188983,0.279915254 C25.0790678,-0.126016949 24.4688983,-0.0590677966 24.1290678,0.279915254 L20.4688983,4.48076271 C20.264661,4.75279661 19.8578814,4.81974576 19.5197458,4.68584746 L14.3688983,2.58584746 C13.894322,2.38076271 13.3519492,2.65279661 13.2172034,3.1290678 L11.7273729,8.48415254 C11.6604237,8.82313559 11.3214407,9.09516949 10.9833051,9.09516949 L5.42567797,9.43415254 C4.95279661,9.43415254 4.54347458,9.9070339 4.68076271,10.4511017 L5.69771186,15.8739831 C5.76466102,16.2129661 5.5629661,16.5511017 5.29262712,16.755339 L0.412118644,19.4672034 C0.00703389831,19.7392373 -0.131101695,20.2799153 0.140932203,20.6892373 L3.39601695,25.1612712 C3.60194915,25.4341525 3.60194915,25.8392373 3.39601695,26.1112712 L0.212966102,30.6511017 C-0.0599152542,31.0570339 0.0773728814,31.6680508 0.483305085,31.8731356 L5.3629661,34.5180508 C5.70110169,34.7214407 5.835,35.0604237 5.76805085,35.3994068 L4.81805085,40.8892373 C4.75110169,41.3629661 5.09008475,41.8392373 5.63076271,41.8392373 L11.1883898,42.044322 C11.525678,42.044322 11.8655085,42.3163559 11.9324576,42.6544915 L13.4926271,48.0095763 C13.6273729,48.4833051 14.1705932,48.7544915 14.644322,48.5544915 L19.7265254,46.3858475 C20.0655085,46.2519492 20.4731356,46.3188983 20.6765254,46.5909322 L24.4044915,50.7248305 C24.744322,51.1307627 25.355339,51.0638136 25.6934746,50.7248305 L29.3544915,46.5239831 C29.5595763,46.2519492 29.964661,46.185 30.3036441,46.3188983 L35.4561864,48.4188983 C35.9273729,48.6248305 36.4722881,48.3527966 36.605339,47.875678 L38.0968644,42.5205932 C38.1638136,42.1816102 38.5019492,41.9095763 38.8417797,41.9095763 L44.3968644,41.5705932 C44.8714407,41.5705932 45.2799153,41.0977119 45.1417797,40.5536441 L44.1248305,35.1307627 C44.1248305,34.7824576 44.3299153,34.3722881 44.6019492,34.2383898" id="Fill-1" fill="currentColor" mask="url(#mask-2)"></path>
                            </g>
                        </g>
                    </g>
                </g>
            </g>
        </g>
    </g>
</svg>