<?xml version="1.0" encoding="UTF-8" standalone="no"?>
<svg width="50px" height="59px" viewBox="0 0 50 59" version="1.1" xmlns="http://www.w3.org/2000/svg" xmlns:xlink="http://www.w3.org/1999/xlink">
    <!-- Generator: Sketch 46.2 (44496) - http://www.bohemiancoding.com/sketch -->
    <title>Page 1</title>
    <desc>Created with Sketch.</desc>
    <defs>
        <polygon id="path-1" points="4.57855647e-21 0.297523027 4.57855647e-21 4.23328778 7.96212252 4.23328778 7.96212252 0.297523027 0 0.297523027"></polygon>
    </defs>
    <g id="Desktop/Mobile" stroke="none" stroke-width="1" fill="none" fill-rule="evenodd">
        <g id="Framework-Page" transform="translate(-1037.000000, -2686.000000)">
            <g id="intervention-pathways" transform="translate(-66.000000, 2025.000000)">
                <g id="OUTLINES" transform="translate(328.000000, 363.000000)">
                    <g id="Green" transform="translate(708.000000, 265.000000)">
                        <g id="climate-change" transform="translate(29.000000, 0.000000)">
                            <g id="Page-1" transform="translate(38.000000, 33.000000)">
                                <path d="M17.4847297,7.45554054 C17.6604054,8.06567568 17.3090541,8.70554054 16.6989189,8.88121622 C16.0887838,9.05689189 15.4522973,8.70554054 15.2766216,8.09540541 L13.6394595,2.43459459 C13.4637838,1.82445946 13.8151351,1.18797297 14.4252703,1.00891892 C15.0354054,0.833243243 15.6752703,1.18459459 15.8509459,1.79472973 L17.4847297,7.45554054 Z" id="Fill-1" fill="currentColor"></path>
                                <path d="M31.6752703,21.1429054 C31.6752703,27.4584459 26.5563514,32.5739865 20.2435135,32.5739865 C13.927973,32.5739865 8.81243243,27.4584459 8.81243243,21.1429054 C8.81243243,14.8307432 13.9272973,9.71114865 20.2435135,9.71114865 C26.5563514,9.71114865 31.6752703,14.8307432 31.6752703,21.1429054" id="Fill-3" fill="currentColor"></path>
                                <path d="M23.0564189,35.0150676 C22.8807432,34.4049324 23.2320946,33.7677703 23.8422297,33.5893919 C24.4523649,33.4137162 25.0888514,33.7650676 25.2679054,34.374527 L26.9043919,40.0353378 C27.0800676,40.645473 26.7287162,41.2826351 26.1185811,41.4583108 C25.5084459,41.6339865 24.8685811,41.2826351 24.6935811,40.6725 L23.0564189,35.0150676 Z" id="Fill-5" fill="currentColor"></path>
                                <g id="Group-9" transform="translate(0.000000, 23.677703)">
                                    <mask id="mask-2" fill="white">
                                        <use xlink:href="#path-1"></use>
                                    </mask>
                                    <g id="Clip-8"></g>
                                    <path d="M6.49114865,0.34277027 C7.10128378,0.167094595 7.74182432,0.518445946 7.91682432,1.12858108 C8.0925,1.73871622 7.74182432,2.37587838 7.13101351,2.55087838 L1.4702027,4.18804054 C0.860743243,4.36371622 0.220202703,4.01236486 0.0452027027,3.40222973 C-0.130472973,2.79209459 0.220202703,2.15222973 0.830337838,1.97655405 L6.49114865,0.34277027 Z" id="Fill-7" fill="currentColor" mask="url(#mask-2)"></path>
                                </g>
                                <path d="M28.0447973,9.52412162 C27.7380405,10.0808784 27.0387162,10.2829054 26.4819595,9.97614865 C25.9252027,9.67006757 25.7225,8.97074324 26.0299324,8.41398649 L28.8752027,3.25317568 C29.1819595,2.69709459 29.8839865,2.49439189 30.4373649,2.80114865 C30.9934459,3.10722973 31.1968243,3.80722973 30.8900676,4.36331081 L28.0447973,9.52412162 Z" id="Fill-10" fill="currentColor"></path>
                                <path d="M12.4963514,32.9494595 C12.8024324,32.3927027 13.5051351,32.1933784 14.0591892,32.4974324 C14.6159459,32.8035135 14.8186486,33.5028378 14.5112162,34.0595946 L11.6659459,39.2204054 C11.3591892,39.7764865 10.6598649,39.9791892 10.1031081,39.6724324 C9.5477027,39.3656757 9.345,38.6663514 9.65108108,38.1068919 L12.4963514,32.9494595 Z" id="Fill-12" fill="currentColor"></path>
                                <path d="M8.55709459,13.4607432 C9.11317568,13.7675 9.31587838,14.4668243 9.00912162,15.0235811 C8.70304054,15.5796622 8.00371622,15.7823649 7.44628378,15.4756081 L2.28952703,12.6303378 C1.73209459,12.3235811 1.53074324,11.6242568 1.83682432,11.0681757 C2.14358108,10.5114189 2.84290541,10.3087162 3.40236486,10.615473 L8.55709459,13.4607432 Z" id="Fill-14" fill="currentColor"></path>
                                <path d="M33.4106081,16.2383108 C32.800473,16.4139865 32.4491216,17.0538514 32.6247973,17.6639865 C32.800473,18.2741216 33.4376351,18.6247973 34.050473,18.4491216 L34.5741216,18.2977703 L34.5741216,15.9018243 L33.4106081,16.2383108 Z" id="Fill-16" fill="currentColor"></path>
                                <path d="M33.0952027,26.9937162 C32.5384459,26.6869595 31.8391216,26.8896622 31.5323649,27.4457432 C31.2262838,28.0025 31.4283108,28.7018243 31.9843919,29.0112838 L34.5735811,30.4403378 L34.5735811,27.8119595 L33.0952027,26.9937162 Z" id="Fill-18" fill="currentColor"></path>
                                <path d="M42.7882432,44.6187162 C42.8085135,44.5058784 42.8240541,44.3835811 42.8240541,44.2612838 L42.8240541,11.2146622 C42.8240541,10.1788514 41.9848649,9.34236486 40.9483784,9.34236486 C39.9159459,9.34236486 39.0767568,10.1815541 39.0767568,11.2146622 L39.0767568,44.2612838 C39.0767568,44.3835811 39.0882432,44.5025 39.1125676,44.6187162 C36.9402703,45.3775 35.3835135,47.4457432 35.3835135,49.8747973 C35.3835135,52.9518243 37.8767568,55.4457432 40.9510811,55.4457432 C44.0267568,55.4457432 46.5227027,52.9518243 46.5227027,49.8747973 C46.52,47.4457432 44.9612162,45.3775 42.7882432,44.6187162" id="Fill-20" fill="currentColor"></path>
                                <path d="M40.9492568,57.25 C36.8837162,57.25 33.5776351,53.9432432 33.5776351,49.875 C33.5776351,47.2736486 34.9729054,44.8364865 37.2229054,43.5148649 L37.6100676,43.2885135 L37.6100676,4.90540541 C37.6100676,3.06283784 39.1100676,1.56351351 40.9519595,1.56351351 C42.7972297,1.56351351 44.294527,3.06351351 44.294527,4.90540541 L44.294527,43.2885135 L44.6810135,43.5148649 C46.9283108,44.8364865 48.3269595,47.2736486 48.3269595,49.875 C48.3242568,53.9432432 45.0175,57.25 40.9492568,57.25 L40.9492568,57.25 Z M45.8566892,42.4108108 L45.8566892,4.90472973 C45.8566892,2.19932432 43.6573649,0 40.9519595,0 C38.2499324,0 36.0472297,2.19932432 36.0472297,4.90472973 L36.0472297,42.4108108 C33.5533108,44.0533784 32.0175,46.875 32.0175,49.8777027 C32.0175,54.8067568 36.0262838,58.8128378 40.9526351,58.8128378 C45.8783108,58.8128378 49.8870946,54.8033784 49.8870946,49.8777027 C49.8870946,46.875 48.3512838,44.0533784 45.8573649,42.4108108 L45.8566892,42.4108108 Z" id="Fill-22" fill="currentColor"></path>
                            </g>
                        </g>
                    </g>
                </g>
            </g>
        </g>
    </g>
</svg>