<svg xmlns="http://www.w3.org/2000/svg" width="38" height="38" viewBox="0 0 38 38" xmlns:xlink="http://www.w3.org/1999/xlink">
  <g fill="none" fill-rule="evenodd">
    <mask id="b" fill="white">
      <polygon id="a" points="0 38 0 0 38 0 38 38"/>
    </mask>
    <path fill="currentColor" d="M28.9658686,22.7642676 C29.3718448,20.6643038 29.7229593,18.3279566 30.0137261,15.8184448 C30.4800501,11.558047 30.6556073,7.64672694 30.7708168,4.78538879 C31.2974886,4.61222423 34.0926896,3.85359855 35.6644758,5.01902351 C36.4215665,5.60448463 36.8302858,6.59674503 36.8302858,7.93808318 C36.8878905,12.8993852 33.8595276,18.4461483 28.9658686,22.7642676 M36.3639618,4.08723327 C34.5590136,2.80086799 31.8790221,3.26813743 30.7708168,3.55949367 L30.7708168,0.582712477 C30.7708168,0.291356239 30.4800501,0 30.1892833,0 L0.596910771,0 C0.30614404,0 0.0126342264,0.23363472 0.0126342264,0.582712477 C0.0126342264,0.64318264 -0.160179963,7.70444846 0.772468042,15.7607233 C1.9931397,26.6178662 4.55792171,34.0886799 8.28577065,37.8240868 C8.40098011,37.9422785 8.51893265,38 8.69448992,38 L22.0917042,38 C22.2672615,38 22.3824709,37.9422785 22.5004235,37.8240868 C25.1200671,35.1963834 27.1609204,30.7023508 28.5598924,24.5151537 C33.1024368,20.8979385 37.9960958,14.6502712 37.9960958,7.93808318 C38.0537005,6.18719711 37.472167,4.90358047 36.3639618,4.08723327" mask="url(#b)"/>
  </g>
</svg>
