<?xml version="1.0" encoding="UTF-8" standalone="no"?>
<svg width="65px" height="75px" viewBox="0 0 65 75" version="1.1" xmlns="http://www.w3.org/2000/svg" xmlns:xlink="http://www.w3.org/1999/xlink">
    <!-- Generator: Sketch 46.2 (44496) - http://www.bohemiancoding.com/sketch -->
    <title>Page 1</title>
    <desc>Created with Sketch.</desc>
    <defs>
        <polygon id="path-1" points="2.6189023 20.1724138 0.372293103 20.1724138 0.372293103 0.10033908 2.6189023 0.10033908 2.6189023 20.1724138"></polygon>
        <polygon id="path-3" points="0.37445977 0.115804598 2.62106897 0.115804598 2.62106897 20.1878046 0.37445977 20.1878046 0.37445977 0.115804598"></polygon>
    </defs>
    <g id="Desktop/Mobile" stroke="none" stroke-width="1" fill="none" fill-rule="evenodd">
        <g id="Framework-Page" transform="translate(-621.000000, -3145.000000)">
            <g id="intervention-pathways" transform="translate(-66.000000, 2025.000000)">
                <g id="OUTLINES" transform="translate(328.000000, 363.000000)">
                    <g id="Red" transform="translate(329.000000, 661.000000)">
                        <g id="consumer-policy" transform="translate(0.000000, 71.000000)">
                            <g id="Page-1" transform="translate(30.000000, 25.000000)">
                                <path d="M23.8455862,37.6722816 C23.8455862,33.0976264 27.5543218,29.3888908 32.128977,29.3888908 C36.7036322,29.3888908 40.4123678,33.0976264 40.4123678,37.6722816 C40.4123678,42.2469368 36.7036322,45.9556724 32.128977,45.9556724 C27.5543218,45.9556724 23.8455862,42.2469368 23.8455862,37.6722816" id="Fill-1" fill="currentColor"></path>
                                <g id="Group-5" transform="translate(30.632184, 54.424799)">
                                    <mask id="mask-2" fill="white">
                                        <use xlink:href="#path-1"></use>
                                    </mask>
                                    <g id="Clip-4"></g>
                                    <path d="M1.49522414,20.1726379 C0.876603448,20.1726379 0.372293103,19.6698218 0.372293103,19.0489598 L0.372293103,1.22401724 C0.372293103,0.602408046 0.874362069,0.10033908 1.49522414,0.10033908 C2.11608621,0.10033908 2.6189023,0.602408046 2.6189023,1.22401724 L2.6189023,19.0489598 C2.61591379,19.6698218 2.11459195,20.1726379 1.49522414,20.1726379" id="Fill-3" fill="currentColor" mask="url(#mask-2)"></path>
                                </g>
                                <path d="M39.1959713,63.837023 C38.9068333,63.837023 38.6199368,63.7264483 38.4002816,63.5082874 L32.127408,57.2354138 L25.8560287,63.5082874 C25.4174655,63.9461034 24.7069483,63.9461034 24.2691322,63.5082874 C23.8298218,63.0697241 23.8298218,62.3584598 24.2691322,61.9184023 L31.3347069,54.855069 C31.7710287,54.4194943 32.4860287,54.4194943 32.9216034,54.855069 L39.9894195,61.9213908 C40.4279828,62.3584598 40.4279828,63.0697241 39.9894195,63.5082874 C39.7697644,63.7264483 39.4821207,63.837023 39.1959713,63.837023" id="Fill-6" fill="currentColor"></path>
                                <g id="Group-10" transform="translate(30.632184, 0.631695)">
                                    <mask id="mask-4" fill="white">
                                        <use xlink:href="#path-3"></use>
                                    </mask>
                                    <g id="Clip-9"></g>
                                    <path d="M1.49813793,0.115505747 C2.11675862,0.115505747 2.62106897,0.618321839 2.62106897,1.23918391 L2.62106897,19.0641264 C2.62106897,19.6857356 2.119,20.1878046 1.49813793,20.1878046 C0.877275862,20.1878046 0.37445977,19.6857356 0.37445977,19.0641264 L0.37445977,1.23918391 C0.377448276,0.618321839 0.878770115,0.115505747 1.49813793,0.115505747" id="Fill-8" fill="currentColor" mask="url(#mask-4)"></path>
                                </g>
                                <path d="M25.0618333,11.5068678 C25.3509713,11.5068678 25.6378678,11.6181897 25.857523,11.8363506 L32.1303966,18.108477 L38.4017759,11.8363506 C38.8403391,11.3977874 39.5508563,11.3977874 39.9886724,11.8363506 C40.4272356,12.2756609 40.4272356,12.985431 39.9886724,13.4262356 L32.9230977,20.489569 C32.4867759,20.9258908 31.7717759,20.9258908 31.3362011,20.489569 L24.2683851,13.4232471 C23.8298218,12.985431 23.8298218,12.2756609 24.2683851,11.8363506 C24.4880402,11.6181897 24.7756839,11.5068678 25.0618333,11.5068678" id="Fill-11" fill="currentColor"></path>
                                <path d="M64.1057644,56.1359425 C63.7972011,56.6716322 63.1090977,56.8569195 62.5711667,56.5468621 L47.1347874,47.6336437 C46.5961092,47.3235862 46.4123161,46.6377241 46.7231207,46.0997931 C47.0331782,45.5618621 47.7190402,45.378069 48.2577184,45.6888736 L63.6948448,54.6013448 C64.2320287,54.9143908 64.4150747,55.5995057 64.1057644,56.1359425" id="Fill-13" fill="currentColor"></path>
                                <path d="M58.3221092,44.6343046 C58.1786609,44.884592 57.9373391,45.0773506 57.6384885,45.1587874 L49.0704425,47.4547069 L51.3663621,56.0227529 C51.5269943,56.6219483 51.1728563,57.2368333 50.5729138,57.3974655 C49.9737184,57.5580977 49.3580862,57.2032126 49.1959598,56.6032701 L46.6116494,46.9518908 C46.4525115,46.3556839 46.8103851,45.7378103 47.406592,45.5771782 L57.0594655,42.9883851 C57.6571667,42.8285 58.273546,43.1841322 58.433431,43.7818333 C58.5118793,44.0821782 58.4648103,44.3862586 58.3221092,44.6343046" id="Fill-15" fill="currentColor"></path>
                                <path d="M0.15204023,19.2086207 C0.461350575,18.672931 1.1487069,18.4868966 1.68663793,18.7977011 L17.1230172,27.7101724 C17.6616954,28.020977 17.8454885,28.7068391 17.5346839,29.2455172 C17.2246264,29.781954 16.5387644,29.9664943 16.0000862,29.6556897 L0.56295977,20.7432184 C0.0265229885,20.4301724 -0.157270115,19.7450575 0.15204023,19.2086207" id="Fill-17" fill="currentColor"></path>
                                <path d="M5.9356954,30.7103333 C6.07914368,30.460046 6.32046552,30.2672874 6.61931609,30.1851034 L15.1873621,27.8891839 L12.8914425,19.3211379 C12.7308103,18.7226897 13.0849483,18.1078046 13.6848908,17.9471724 C14.2840862,17.7865402 14.8997184,18.1414253 15.0618448,18.7413678 L17.645408,28.392 C17.8052931,28.988954 17.4481667,29.6068276 16.8512126,29.7674598 L7.19759195,32.3562529 C6.5998908,32.5161379 5.98425862,32.1612529 5.82437356,31.5620575 C5.74592529,31.2624598 5.79299425,30.9583793 5.9356954,30.7103333" id="Fill-19" fill="currentColor"></path>
                                <path d="M64.107931,19.2108621 C64.4164943,19.7472989 64.2341954,20.4354023 63.6955172,20.7454598 L48.2583908,29.6571839 C47.7204598,29.9679885 47.0345977,29.7849425 46.7245402,29.2477586 C46.4137356,28.7098276 46.5975287,28.0239655 47.1354598,27.7116667 L62.5725862,18.7991954 C63.1120115,18.4913793 63.7986207,18.6744253 64.107931,19.2108621" id="Fill-21" fill="currentColor"></path>
                                <path d="M51.2550402,18.4688161 C51.3992356,18.7191034 51.4463046,19.0231839 51.3678563,19.3242759 L49.0719368,27.8915747 L57.6399828,30.1882414 C58.2391782,30.3473793 58.5940632,30.9630115 58.433431,31.5614598 C58.273546,32.1606552 57.6579138,32.5162874 57.0572241,32.3571494 L47.406592,29.7691034 C46.8111322,29.6092184 46.4532586,28.9898506 46.6131437,28.3943908 L49.1982011,18.740023 C49.3588333,18.1423218 49.9737184,17.7866897 50.5729138,17.9473218 C50.8717644,18.0280115 51.1123391,18.2207701 51.2550402,18.4688161" id="Fill-23" fill="currentColor"></path>
                                <path d="M0.150545977,56.1337759 C-0.158764368,55.5973391 0.0242816092,54.9092356 0.562212644,54.5991782 L15.9993391,45.687454 C16.5372701,45.3759023 17.2231322,45.5596954 17.5331897,46.0968793 C17.8439943,46.6355575 17.6609483,47.3214195 17.1222701,47.6322241 L1.68514368,56.5454425 C1.14571839,56.8532586 0.459856322,56.6702126 0.150545977,56.1337759" id="Fill-25" fill="currentColor"></path>
                                <path d="M13.0027644,56.8750747 C12.858569,56.6247874 12.8115,56.3207069 12.8899483,56.0203621 L15.1858678,47.4530632 L6.61782184,45.1563966 C6.01862644,44.9972586 5.66374138,44.3816264 5.82512069,43.7831782 C5.98500575,43.1832356 6.5998908,42.8283506 7.20058046,42.9874885 L16.8512126,45.5755345 C17.4466724,45.7346724 17.8037989,46.3540402 17.6446609,46.9495 L15.0596034,56.6053621 C14.8989713,57.2023161 14.2840862,57.5579483 13.6848908,57.3980632 C13.3860402,57.3158793 13.1454655,57.1231207 13.0027644,56.8750747" id="Fill-27" fill="currentColor"></path>
                            </g>
                        </g>
                    </g>
                </g>
            </g>
        </g>
    </g>
</svg>