<?xml version="1.0" encoding="UTF-8" standalone="no"?>
<svg width="70px" height="49px" viewBox="0 0 70 49" version="1.1" xmlns="http://www.w3.org/2000/svg" xmlns:xlink="http://www.w3.org/1999/xlink">
    <!-- Generator: Sketch 46.2 (44496) - http://www.bohemiancoding.com/sketch -->
    <title>Page 1</title>
    <desc>Created with Sketch.</desc>
    <defs>
        <polygon id="path-1" points="11.8407692 0.26527641 11.8407692 5.97557692 0.397649133 5.97557692 0.397649133 0.26527641 11.8407692 0.26527641"></polygon>
        <polygon id="path-3" points="28.8292727 0.383846154 0.713076923 0.383846154 0.713076923 36.893941 28.8292727 36.893941 28.8292727 0.383846154"></polygon>
    </defs>
    <g id="Desktop/Mobile" stroke="none" stroke-width="1" fill="none" fill-rule="evenodd">
        <g id="Framework-Page" transform="translate(-904.000000, -3087.000000)">
            <g id="intervention-pathways" transform="translate(-66.000000, 2025.000000)">
                <g id="OUTLINES" transform="translate(328.000000, 363.000000)">
                    <g id="Red" transform="translate(329.000000, 661.000000)">
                        <g id="consumer-education" transform="translate(285.000000, 0.000000)">
                            <g id="Page-1" transform="translate(28.000000, 38.000000)">
                                <g id="Group-3" transform="translate(57.692308, 25.770231)">
                                    <mask id="mask-2" fill="white">
                                        <use xlink:href="#path-1"></use>
                                    </mask>
                                    <g id="Clip-2"></g>
                                    <path d="M1.48753846,0.275384615 C0.908307692,0.354615385 0.457538462,0.822307692 0.403692308,1.40384615 C0.346769231,1.98615385 0.696769231,2.53 1.25138462,2.72 L10.0798462,5.87230769 C10.3975385,6.01 10.7598462,6.01 11.0775385,5.87230769 C11.3952308,5.73769231 11.6444615,5.47307692 11.7644615,5.14846154 C11.8829231,4.82307692 11.8636923,4.46307692 11.7083077,4.15307692 C11.5552308,3.84307692 11.2790769,3.60846154 10.9467692,3.50769231 L2.11830769,0.355384615 C1.91830769,0.275384615 1.70215385,0.248461538 1.48753846,0.275384615" id="Fill-1" fill="currentColor" mask="url(#mask-2)"></path>
                                </g>
                                <path d="M59.2587692,17.8477692 C58.9233846,17.8623846 58.6087692,18.0100769 58.3841538,18.2593077 C58.1572308,18.5046923 58.0418462,18.8331538 58.0564615,19.1685385 C58.0710769,19.5023846 58.2187692,19.8185385 58.468,20.0431538 C58.7141538,20.2685385 59.0418462,20.3846923 59.3772308,20.3700769 L68.2056923,20.3700769 C68.5433846,20.3754615 68.8687692,20.2446923 69.1103077,20.0085385 C69.3487692,19.7693077 69.4841538,19.447 69.4841538,19.1093077 C69.4841538,18.7716154 69.3487692,18.4485385 69.1103077,18.2100769 C68.8687692,17.9731538 68.5433846,17.8431538 68.2056923,17.8477692 L59.3772308,17.8477692 C59.3372308,17.8454615 59.298,17.8454615 59.2587692,17.8477692" id="Fill-4" fill="currentColor"></path>
                                <path d="M68.1071538,7.75761538 C67.991,7.76761538 67.8802308,7.79453846 67.771,7.83684615 L58.9433077,10.9899231 C58.611,11.0906923 58.3348462,11.3245385 58.1817692,11.6353077 C58.0271538,11.9445385 58.0071538,12.3053077 58.1248462,12.6299231 C58.2463846,12.9553077 58.4948462,13.2191538 58.8125385,13.3537692 C59.1302308,13.4922308 59.4925385,13.4922308 59.8102308,13.3537692 L68.6386923,10.2014615 C69.2356154,9.98607692 69.5779231,9.36376923 69.4448462,8.74530769 C69.3086923,8.12607692 68.7371538,7.70607692 68.1071538,7.75761538" id="Fill-6" fill="currentColor"></path>
                                <path d="M18.4482308,26.6909231 L3.36592308,26.6909231 C1.50823077,26.6909231 0.000538461538,25.1832308 0.000538461538,23.3263077 L0.000538461538,14.7263077 C0.000538461538,12.8686154 1.50823077,11.3609231 3.36592308,11.3609231 L18.4459231,11.3609231 L18.4482308,26.6909231 Z" id="Fill-8" fill="currentColor"></path>
                                <g id="Group-12" transform="translate(19.230769, 0.385615)">
                                    <mask id="mask-4" fill="white">
                                        <use xlink:href="#path-3"></use>
                                    </mask>
                                    <g id="Clip-11"></g>
                                    <path d="M0.713076923,26.3053077 L4.20384615,26.3053077 C4.20384615,26.3053077 18.5376923,28.1037692 23.8961538,35.3060769 C29.2561538,42.5091538 28.8207692,23.1276154 28.8207692,18.6383846 C28.8207692,14.1499231 29.2561538,-5.23238462 23.8961538,1.97146154 C18.5384615,9.17453846 4.20384615,10.9722308 4.20384615,10.9722308 L0.713076923,10.9722308 L0.713076923,26.3053077 Z" id="Fill-10" fill="currentColor" mask="url(#mask-4)"></path>
                                </g>
                                <path d="M49.554,14.8203846 C51.8770769,14.8203846 53.7616923,16.7019231 53.7616923,19.0280769 C53.7616923,21.3503846 51.8786154,23.235 49.554,23.235 L49.554,14.8203846 Z" id="Fill-13" fill="currentColor"></path>
                                <path d="M5.37953846,28.1865385 C5.37953846,28.1865385 7.15646154,28.9357692 7.71723077,31.0857692 C8.27953846,33.2357692 5.19338462,48.8465385 16.4110769,48.8465385 C27.6295385,48.8465385 21.5518462,44.3603846 19.8703077,42.3019231 C18.1864615,40.245 15.0095385,33.9834615 15.9426154,28.1865385 L5.37953846,28.1865385 Z" id="Fill-15" fill="currentColor"></path>
                            </g>
                        </g>
                    </g>
                </g>
            </g>
        </g>
    </g>
</svg>