<?xml version="1.0" encoding="UTF-8" standalone="no"?>
<svg width="75px" height="34px" viewBox="0 0 75 34" version="1.1" xmlns="http://www.w3.org/2000/svg" xmlns:xlink="http://www.w3.org/1999/xlink">
    <!-- Generator: Sketch 46.2 (44496) - http://www.bohemiancoding.com/sketch -->
    <title>Page 1</title>
    <desc>Created with Sketch.</desc>
    <g id="Desktop/Mobile" stroke="none" stroke-width="1" fill="none" fill-rule="evenodd">
        <g id="Framework-Page" transform="translate(-826.000000, -2457.000000)" fill="currentColor">
            <g id="intervention-pathways" transform="translate(-66.000000, 2025.000000)">
                <g id="HOVER" transform="translate(328.000000, 363.000000)">
                    <g id="Blue" transform="translate(375.000000, 0.000000)">
                        <g id="education-health" transform="translate(164.000000, 24.000000)">
                            <g id="Page-1" transform="translate(25.000000, 45.000000)">
                                <path d="M27.2342727,21.8323636 L24.2615455,13.0553182 L21.2888182,28.2612273 L18.5942727,14.3003182 L17.8333636,16.236 L7.60268182,16.2332727 C11.1972273,23.9064545 20.7358636,30.3319091 22.7376818,31.5762273 C23.0138182,31.7139545 23.292,31.7139545 23.4992727,31.5762273 C25.5031364,30.3319091 35.0410909,23.8355455 38.5674545,16.2332727 L29.0295,16.2332727 L27.2342727,21.8323636 Z" id="Fill-1"></path>
                                <path d="M19.07775,8.00925 L21.2888864,19.2756136 L23.8457045,6.35175 L27.16275,16.3035682 L27.7170682,14.5751591 L39.1913864,14.5751591 C39.6072955,13.3308409 39.8125227,12.0183409 39.8125227,10.7740227 C39.8125227,5.59015909 35.5954773,0.68175 30.4116136,0.68175 C26.5395682,0.68175 25.0204773,2.68493182 23.4993409,4.41265909 C23.2245682,4.75834091 22.7391136,4.75834091 22.4636591,4.41265909 C20.9425227,2.61470455 19.49025,0.68175 15.5520682,0.68175 C10.3682045,0.68175 6.15115909,5.59015909 6.15115909,10.7740227 C6.15115909,12.0858409 6.35843182,13.3308409 6.77161364,14.5751591 L16.5182045,14.5751591 L19.07775,8.00925 Z" id="Fill-3"></path>
                                <path d="M0.829090909,14.5750909 C0.345681818,14.5750909 0,14.991 0,15.4041818 C0,15.8200909 0.415909091,16.2325909 0.829090909,16.2325909 L7.60295455,16.2325909 C7.3275,15.6796364 7.11954545,15.0585 6.91159091,14.5048636 L0.829090909,14.5048636 L0.829090909,14.5750909 Z" id="Fill-6"></path>
                                <path d="M45.2039318,14.5750909 L39.1923409,14.5750909 C38.9837045,15.1287273 38.77575,15.7498636 38.5002955,16.3035 L45.2039318,16.3035 C45.6873409,16.3035 46.0330227,15.8875909 46.0330227,15.4744091 C46.0330227,15.0585 45.6873409,14.5750909 45.2039318,14.5750909" id="Fill-8"></path>
                                <path d="M70.2560455,4.44170455 C69.7187727,3.90443182 68.8487727,3.90443182 68.3121818,4.44170455 L66.2708182,6.48102273 L71.9067273,12.11625 L73.9474091,10.0769318 C74.4846818,9.53965909 74.4846818,8.67034091 73.9474091,8.13306818 L70.2560455,4.44170455 Z" id="Fill-10"></path>
                                <path d="M67.2917727,8.37681818 L49.3851818,26.2827273 C48.9126818,25.7154545 48.4995,25.1536364 48.1531364,24.6122727 C48.2179091,24.5393182 48.2860909,24.4670455 48.3563182,24.3981818 L65.8340455,6.91840909 L67.2917727,8.37681818 Z" id="Fill-13"></path>
                                <path d="M47.0562955,26.4632727 C47.2315227,25.9635 47.4776591,25.4930455 47.7858409,25.0675909 C48.4315227,26.0500909 49.2803864,27.0919091 50.2894773,28.1003182 C51.2965227,29.1087273 52.3397045,29.9575909 53.3215227,30.6032727 C52.8947045,30.9107727 52.4256136,31.1562273 51.9265227,31.3321364 L47.2819773,32.9644091 L47.0876591,32.8532727 C46.43925,32.4857727 45.9026591,31.9498636 45.5351591,31.3007727 L45.4247045,31.1064545 L47.0562955,26.4632727 Z" id="Fill-15"></path>
                                <path d="M53.9916136,30.0332045 C53.9207045,30.1034318 53.8497955,30.17025 53.7775227,30.2370682 C53.2013864,29.8668409 52.6034318,29.4250227 52.0000227,28.9143409 L69.9147955,10.9995682 L71.4707045,12.5541136 L53.9916136,30.0332045 Z" id="Fill-17"></path>
                                <path d="M67.6799318,8.76531818 L69.5262955,10.6103182 L51.5897045,28.5469091 C50.8690227,27.9114545 50.3808409,27.4219091 49.7501591,26.6950909 L67.6799318,8.76531818 Z" id="Fill-19"></path>
                                <path d="M46.7087045,33.1712727 L45.5421136,33.7726364 C44.9475682,34.0780909 44.3093864,33.4412727 44.6162045,32.8474091 L45.2168864,31.6794545 C45.5775682,32.2971818 46.0909773,32.8119545 46.7087045,33.1712727" id="Fill-21"></path>
                            </g>
                        </g>
                    </g>
                </g>
            </g>
        </g>
    </g>
</svg>
