<?xml version="1.0" encoding="UTF-8" standalone="no"?>
<svg width="26px" height="26px" viewBox="0 0 26 26" version="1.1" xmlns="http://www.w3.org/2000/svg" xmlns:xlink="http://www.w3.org/1999/xlink">
    <g id="Desktop/Mobile" stroke="none" stroke-width="1" fill="none" fill-rule="evenodd">
        <g id="Homepage-FINAL" transform="translate(-708.000000, -3389.000000)">
            <g id="Footer" transform="translate(-66.000000, 3073.000000)">
                <g id="FB-icon,-brown" transform="translate(774.000000, 316.000000)">
                    <g>
                        <mask id="mask-2" fill="white">
                            <polygon id="path-1" points="2.20228566e-20 -1.03620816e-14 2.20228566e-20 25.9712375 25.9710208 25.9712375 25.9710208 -1.42108547e-14"></polygon>
                        </mask>
                        <g id="Clip-2"></g>
                        <path d="M24.5378792,0 L1.43335833,0 C0.6417125,0 -0.0001625,0.641604167 -0.0001625,1.43325 L-0.0001625,24.5377708 C-0.0001625,25.3294167 0.6417125,25.9712917 1.43335833,25.9712917 L13.8719208,25.9712917 L13.8719208,15.9138958 L10.4873167,15.9138958 L10.4873167,11.994125 L13.8719208,11.994125 L13.8719208,9.10352083 C13.8719208,5.74925 15.920775,3.92247917 18.9132125,3.92247917 C20.3464625,3.92247917 21.5784833,4.0291875 21.9376083,4.077125 L21.9376083,7.58279167 L19.8619417,7.58360417 C18.234775,7.58360417 17.919525,8.35683333 17.919525,9.491625 L17.919525,11.994125 L21.8011083,11.994125 L21.2954625,15.9138958 L17.919525,15.9138958 L17.919525,25.9712917 L24.5378792,25.9712917 C25.3292542,25.9712917 25.9711292,25.3294167 25.9711292,24.5377708 L25.9711292,1.43325 C25.9711292,0.641604167 25.3292542,0 24.5378792,0" id="Fill-1" fill="currentColor" mask="url(#mask-2)"></path>
                    </g>
                </g>
            </g>
        </g>
    </g>
</svg>
