<?xml version="1.0" encoding="UTF-8" standalone="no"?>
<svg width="50px" height="56px" viewBox="0 0 50 56" version="1.1" xmlns="http://www.w3.org/2000/svg" xmlns:xlink="http://www.w3.org/1999/xlink">
    <!-- Generator: Sketch 46.2 (44496) - http://www.bohemiancoding.com/sketch -->
    <title>Page 1</title>
    <desc>Created with Sketch.</desc>
    <g id="Desktop/Mobile" stroke="none" stroke-width="1" fill="none" fill-rule="evenodd">
        <g id="Framework-Page" transform="translate(-1008.000000, -2973.000000)">
            <g id="intervention-pathways" transform="translate(-66.000000, 2025.000000)">
                <g id="OUTLINES" transform="translate(328.000000, 363.000000)">
                    <g id="Green" transform="translate(708.000000, 265.000000)">
                        <g id="forest-conservation" transform="translate(0.000000, 285.000000)">
                            <g id="Page-1" transform="translate(38.000000, 35.000000)">
                                <polygon id="path-1" points="49.9515789 55.4744079 0.000262710486 55.4744079 0.000262710486 0.000131578947 49.9515789 0.000131578947"></polygon>
                                <g id="Clip-2"></g>
                                <path d="M41.4364474,29.4527632 L47.3193421,29.4527632 C47.6502632,29.4540789 47.9278947,29.7310526 47.9285526,30.0626316 L47.9285526,31.5132895 C47.9285526,31.71 47.8482895,31.8027632 47.6555263,31.8027632 L43.5614474,31.8027632 C42.7134211,31.8264474 42.0601316,32.3889474 41.9035526,33.1790789 C41.8811842,33.2896053 41.8048684,33.4093421 41.6726316,33.3817105 C41.5897368,33.3652632 41.5055263,33.3521053 41.4173684,33.3455263 C41.2963158,33.3356579 41.2009211,33.2165789 41.1818421,33.085 C41.1653947,32.9547368 40.9265789,30.0073684 40.9265789,30.0073684 C40.9239474,29.985 40.9226316,29.9830263 40.9226316,29.9580263 C40.9298684,29.6626316 41.1239474,29.4619737 41.4364474,29.4527632 M33.1811842,31.1757895 C34.3456579,30.9790789 35.5496053,30.8889474 36.7884211,30.8882895 C37.5667105,30.8876316 38.3568421,30.9264474 39.1575,30.9909211 C39.5772368,31.0251316 39.7884211,31.2086842 39.8647368,31.9540789 C39.8752632,32.0422368 39.9061842,32.4198684 39.9522368,32.9771053 C39.9673684,33.1461842 39.9403947,33.2586842 39.7614474,33.2534211 C39.4851316,33.2435526 39.2121053,33.2369737 38.9476316,33.2369737 C37.5903947,33.2382895 36.3213158,33.3521053 35.1193421,33.5593421 C34.8535526,33.6067105 34.7160526,33.5021053 34.6575,33.2928947 C34.3147368,32.4955263 33.5792105,31.8784211 33.1502632,31.4817105 C33.0594737,31.3975 33.0785526,31.1942105 33.1811842,31.1757895 M6.42526316,0.000131578947 C6.55815789,5.23039474 10.0305263,8.60736842 12.6976316,11.9902632 C15.5088158,15.5547368 16.5634211,21.0863158 13.9601316,24.8968421 C13.7798684,25.1593421 13.7686842,25.2909211 13.8476316,25.5468421 C14.1838158,26.6303947 14.4463158,27.6988158 14.6384211,28.6823684 C14.6778947,28.885 14.7713158,29.0218421 15.0028947,28.9356579 C16.1430263,28.5106579 17.3002632,28.2178947 18.4614474,28.0501316 C18.6476316,28.0231579 18.7061842,27.8698684 18.7147368,27.7040789 C18.7568421,26.6251316 18.8180263,25.4053947 18.9002632,24.4067105 C19.0417105,22.8672368 20.1147368,19.4527632 21.7561842,16.4744737 C19.1410526,19.8178947 18.3969737,22.3823684 18.1436842,23.9343421 C18.1239474,24.0507895 17.9371053,24.1185526 17.8660526,24.0323684 C15.8515789,21.6060526 15.9015789,17.0119737 19.6594737,13.5593421 C23.97,9.59815789 23.7127632,7.83302632 23.7127632,7.83302632 C25.8548684,13.7251316 28.3232895,22.6409211 20.3607895,24.5961842 C20.1542105,24.6468421 20.0351316,24.7784211 19.9996053,24.9711842 C19.8588158,25.7330263 19.8028947,26.5922368 19.9048684,27.4994737 C19.9265789,27.6948684 20.0568421,27.8922368 20.2877632,27.8843421 C20.4785526,27.8771053 20.6673684,27.8731579 20.8568421,27.8731579 C25.6121053,27.8738158 30.2015789,29.9007895 33.3996053,33.4672368 C33.4680263,33.5428947 33.5575,33.6619737 33.6443421,33.7909211 C33.7575,33.9593421 33.6305263,34.1198684 33.3528947,34.2060526 C31.4647368,34.7902632 29.6206579,35.6810526 27.7548684,36.9225 L26.7015789,37.6244737 C23.0114474,40.0830263 16.8338158,44.1975 14.8186842,45.435 C13.4219737,46.2935526 12.7647368,47.7909211 13.1055263,49.2922368 C13.1331579,49.4146053 13.0943421,49.56 12.9193421,49.5632895 C11.495,49.5935526 9.48907895,49.6152632 9.02065789,49.6152632 C8.25881579,49.6303947 7.04368421,49.0751316 5.84631579,48.3836842 C5.35815789,48.1086842 4.87394737,47.8178947 4.40223684,47.5442105 C4.27723684,47.4731579 4.23184211,47.3981579 4.20618421,47.2343421 C4.08052632,46.3988158 4.01473684,45.5632895 4.01473684,44.7323684 C4.01473684,38.5803947 7.41078947,32.7165789 13.1377632,29.7652632 C13.37,29.6461842 13.4377632,29.4922368 13.3936842,29.2461842 C11.8752632,21.0369737 7.695,16.7882895 6.52921053,12.4014474 C6.66605263,16.5823684 9.63644737,20.0264474 10.9153947,24.6007895 C11.1397368,25.4007895 10.8943421,25.5271053 10.7173684,25.4711842 C-3.44184211,20.9744737 6.42526316,0.000131578947 6.42526316,0.000131578947 M9.67263158,30.2902632 C9.75552632,30.4080263 9.73513158,30.5040789 9.64302632,30.5764474 C9.46407895,30.7165789 9.28973684,30.8573684 9.11868421,31.0034211 C9.02197368,31.085 8.89828947,31.0336842 8.845,30.9461842 C5.145,24.9560526 0.436447368,23.2606579 0.436447368,23.2606579 C2.8825,23.6014474 6.55486842,25.8935526 9.67263158,30.2902632 M2.89039474,46.5481579 C2.90026316,46.6442105 2.85684211,46.7284211 2.73447368,46.6744737 C2.62197368,46.6251316 2.51078947,46.5803947 2.40157895,46.5409211 C2.14894737,46.4527632 1.89302632,46.4014474 1.63973684,46.3876316 C1.53776316,46.3810526 1.48315789,46.2771053 1.49565789,46.1751316 C1.56868421,45.5488158 2.03447368,45.0244737 2.64171053,44.8126316 C2.75815789,44.7718421 2.79631579,44.8369737 2.79763158,44.9580263 C2.80421053,45.4915789 2.83578947,46.0211842 2.89039474,46.5481579 M41.8417105,45.4132895 C37.9713158,46.3843421 35.5377632,47.8896053 33.1969737,49.2955263 C29.0792105,51.8080263 25.1607895,55.4935526 22.5114474,55.4744737 C19.97,55.4744737 12.4357895,55.4711842 8.82263158,55.4711842 C8.79171053,55.4711842 8.76013158,55.4725 8.73907895,55.4725 L8.70552632,55.4725 C7.75684211,55.4777632 6.35552632,54.7626316 5.08315789,53.8725 C3.77657895,52.9771053 2.60486842,51.9685526 1.74631579,51.4698684 C0.351578947,50.6593421 0.00289473684,49.8461842 0.000263157895,49.2435526 C-0.000394736842,48.4277632 0.724605263,47.7389474 1.48513158,47.7382895 C1.63710526,47.7389474 1.78907895,47.7626316 1.94894737,47.8178947 C2.72065789,48.0869737 3.93710526,48.8547368 5.17526316,49.5613158 C6.43118421,50.2639474 7.72197368,50.9514474 9.01868421,50.9705263 C9.91802632,50.9705263 12.3653947,50.9553947 13.3838158,50.9067105 C13.4094737,50.9060526 13.4338158,50.9047368 13.4588158,50.9047368 C13.7785526,50.9139474 13.7851316,50.9797368 14.0377632,51.2126316 C14.6647368,51.8080263 15.4943421,52.16 16.3969737,52.16 C16.9515789,52.16 17.5107895,52.0271053 18.0535526,51.7692105 C18.2686842,51.6672368 18.495,51.5567105 18.7167105,51.4501316 C21.7634211,50.1053947 25.1232895,48.3961842 27.5311842,47.0757895 C27.7759211,46.9382895 27.9186842,46.6817105 27.9173684,46.4185526 C27.9186842,46.2988158 27.8897368,46.1751316 27.8272368,46.0632895 C27.6910526,45.8132895 27.4338158,45.6731579 27.1713158,45.6731579 C27.0496053,45.6731579 26.9265789,45.7021053 26.8147368,45.7659211 C24.2713158,47.1567105 20.4890789,49.0928947 17.4647368,50.5323684 C17.0851316,50.7113158 16.7272368,50.7876316 16.3936842,50.7896053 C15.1561842,50.7869737 14.2509211,49.6823684 14.2502632,48.5080263 C14.2522368,47.7725 14.6009211,47.0192105 15.4634211,46.4876316 C17.7035526,45.1106579 24.8430263,40.3428947 28.4377632,37.9501316 C31.7002632,35.7797368 35.0311842,34.5975 38.9489474,34.5922368 L38.9627632,34.5790789 L38.9627632,34.5922368 C39.7318421,34.5922368 40.5140789,34.6317105 41.3068421,34.6961842 C41.6713158,34.7448684 41.7890789,34.8027632 41.8884211,35.5363158 C41.9272368,35.9244737 42.4364474,42.0593421 42.6298684,44.4198684 C42.6338158,44.4836842 42.6371053,44.5422368 42.6371053,44.5955263 C42.6206579,45.2409211 42.3515789,45.2646053 41.8417105,45.4132895 M49.4811842,46.2271053 L44.8094737,46.2271053 C44.8055263,46.2271053 44.8015789,46.2264474 44.7982895,46.2264474 C44.795,46.2264474 44.7930263,46.2271053 44.7903947,46.2271053 C44.5430263,46.2369737 44.2331579,45.9442105 44.2331579,45.7034211 C44.2331579,45.7034211 43.2193421,33.5488158 43.2193421,33.5257895 C43.2357895,33.2948684 43.3476316,33.1731579 43.5996053,33.1580263 L49.4811842,33.1580263 C49.7311842,33.1567105 49.9515789,33.3777632 49.9515789,33.6303947 L49.9496053,45.7534211 C49.9496053,46.0080263 49.7311842,46.2264474 49.4811842,46.2271053" id="Fill-1" fill="currentColor"></path>
                            </g>
                        </g>
                    </g>
                </g>
            </g>
        </g>
    </g>
</svg>
