<?xml version="1.0" encoding="UTF-8" standalone="no"?>
<svg width="70px" height="38px" viewBox="0 0 70 38" version="1.1" xmlns="http://www.w3.org/2000/svg" xmlns:xlink="http://www.w3.org/1999/xlink">
    <!-- Generator: Sketch 46.2 (44496) - http://www.bohemiancoding.com/sketch -->
    <title>Page 1</title>
    <desc>Created with Sketch.</desc>
    <defs></defs>
    <g id="Desktop/Mobile" stroke="none" stroke-width="1" fill="none" fill-rule="evenodd">
        <g id="Framework-Page" transform="translate(-665.000000, -2432.000000)" fill="currentColor">
            <g id="intervention-pathways" transform="translate(-66.000000, 2025.000000)">
                <g id="HOVER" transform="translate(328.000000, 363.000000)">
                    <g id="Blue" transform="translate(375.000000, 0.000000)">
                        <g id="gender/-youth">
                            <g id="Page-1" transform="translate(28.000000, 44.000000)">
                                <path d="M65.49214,22.13624 C70.53004,23.61324 69.66764,27.27424 69.65224,29.72494 L57.07954,29.72494 C56.62664,28.24164 55.51154,26.85494 52.84314,26.07654 L51.99754,25.82454 C48.46604,24.79974 46.57884,24.24534 46.08604,23.13164 C45.96354,22.72914 46.00274,22.28674 47.17804,21.85554 C50.96224,20.75304 52.87744,20.17554 53.32964,18.76014 L53.57114,18.76014 C53.50254,18.70414 53.44094,18.64814 53.38494,18.58094 C51.51524,16.77844 50.08794,13.26374 50.08794,10.42594 C50.08794,6.41214 53.16164,3.77034 56.07224,3.77034 C58.97654,3.77034 61.90394,6.62004 61.90394,10.63804 C61.90394,13.47724 60.31494,16.88554 58.36754,18.62504 C58.76514,20.27144 60.95334,20.80904 65.49214,22.13624" id="Fill-1"></path>
                                <path d="M54.85886,37.1217 L15.79466,37.1217 C15.77156,36.729 15.74426,36.3377 15.70016,35.8792 C15.57626,34.335 15.45866,32.7502 15.88916,31.2956 C16.41626,29.5932 17.78756,28.0931 20.95086,27.1698 L22.17586,26.7771 C27.73946,25.1881 30.71726,24.2928 31.70286,22.1935 L32.01506,21.6678 L31.99336,21.0014 C31.92056,20.9566 31.87576,20.9111 31.77426,20.7935 C31.43896,20.447 31.10366,20.1061 30.79006,19.6917 C28.62916,16.9491 27.09616,12.712 27.09616,9.2127 C27.09616,4.7404 30.40856,0 35.35126,0 C39.21386,0 43.36696,3.8234 43.36696,9.5319 C43.36696,13.1705 41.46926,17.6827 38.87716,20.335 C38.71056,20.5198 38.51946,20.6815 38.35146,20.8453 L38.03856,21.1246 L38.13376,21.5383 C38.80576,24.164 41.82766,25.0593 47.90156,26.789 L49.14826,27.1803 C52.29546,28.1043 53.77876,29.6219 54.42766,31.3054 L54.45076,31.3054 C55.04926,32.9406 54.97646,34.7144 54.90366,36.3706 C54.88056,36.6114 54.88056,36.8865 54.85886,37.1217" id="Fill-3"></path>
                                <path d="M4.22576,22.13624 C-0.81704,23.61324 0.04956,27.27424 0.06706,29.72494 L12.63836,29.72494 C13.09266,28.24164 14.20636,26.85494 16.88036,26.07654 L17.72036,25.82454 C21.25256,24.79974 23.14396,24.24534 23.63676,23.13164 C23.50306,22.68924 23.74946,22.02844 22.53916,21.85554 C18.76266,20.75304 16.84186,20.17554 16.39386,18.76014 L16.15936,18.76014 C16.22096,18.70414 16.28746,18.64814 16.34416,18.58094 C18.21316,16.77844 19.64046,13.26374 19.64046,10.42594 C19.64046,6.41214 16.56886,3.77034 13.65756,3.77034 C10.74626,3.77034 7.82516,6.62004 7.82516,10.63804 C7.82516,13.47724 9.40786,16.88554 11.35736,18.62504 C10.95416,20.27144 8.75966,20.80904 4.22576,22.13624" id="Fill-5"></path>
                            </g>
                        </g>
                    </g>
                </g>
            </g>
        </g>
    </g>
</svg>