<svg width="18px" height="18px" viewBox="0 0 18 18" version="1.1" xmlns="http://www.w3.org/2000/svg" xmlns:xlink="http://www.w3.org/1999/xlink">
    <g id="Page-1" stroke="none" stroke-width="1" fill="none" fill-rule="evenodd">
        <g id="Revised-Footer-v2" transform="translate(-783.000000, -3151.000000)" fill="currentColor">
            <g id="Group-5" transform="translate(0.000000, 2986.000000)">
                <g id="Group" transform="translate(639.000000, 165.000000)">
                    <path d="M157.711668,3.09754385 C157.119229,3.09754385 156.638899,3.57821005 156.638899,4.17123826 C156.638899,4.76418802 157.119229,5.24493267 157.711668,5.24493267 C158.304185,5.24493267 158.784437,4.76418802 158.784437,4.17123826 C158.784437,3.57821005 158.304185,3.09754385 157.711668,3.09754385 M152.939675,11.9298246 C151.293903,11.9298246 149.95977,10.5945404 149.95977,8.94734881 C149.95977,7.30015719 151.293903,5.96487306 152.939675,5.96487306 C154.585407,5.96487306 155.91954,7.30015719 155.91954,8.94734881 C155.91954,10.5945404 154.585407,11.9298246 152.939675,11.9298246 M152.939675,4.35278231 C150.404364,4.35278231 148.34903,6.40985011 148.34903,8.94734881 C148.34903,11.4849259 150.404364,13.5419153 152.939675,13.5419153 C155.474947,13.5419153 157.53028,11.4849259 157.53028,8.94734881 C157.53028,6.40985011 155.474947,4.35278231 152.939675,4.35278231 M160.216454,12.562856 C160.176681,13.43524 160.03103,13.9090037 159.908616,14.2243233 C159.746508,14.6418864 159.552777,14.9399496 159.239924,15.2531121 C158.92711,15.5661569 158.629303,15.7600549 158.212022,15.9223817 C157.896974,16.0449014 157.423619,16.1906779 156.552026,16.2304458 C155.609469,16.2735081 155.326867,16.2825676 152.939675,16.2825676 C150.552444,16.2825676 150.269841,16.2735081 149.327284,16.2304458 C148.455692,16.1906779 147.982336,16.0449014 147.667289,15.9223817 C147.250007,15.7600549 146.952201,15.5661569 146.639387,15.2531121 C146.326612,14.9399496 146.132881,14.6418864 145.970694,14.2243233 C145.84828,13.9090037 145.702629,13.43524 145.662856,12.562856 C145.61987,11.6194074 145.61074,11.3364434 145.61074,8.94734881 C145.61074,6.55829345 145.61987,6.27532946 145.662856,5.33184163 C145.702629,4.45949679 145.84828,3.98573311 145.970694,3.67041357 C146.132881,3.25277205 146.326612,2.95478724 146.639387,2.64162474 C146.952201,2.32857989 147.250007,2.13468191 147.667289,1.9723551 C147.982336,1.84983541 148.455692,1.70405895 149.327284,1.66425182 C150.269959,1.62122875 150.552679,1.61209076 152.939675,1.61209076 C155.326631,1.61209076 155.609351,1.62122875 156.552026,1.66425182 C157.423619,1.70405895 157.896974,1.84983541 158.212022,1.9723551 C158.629303,2.13468191 158.92711,2.32857989 159.239924,2.64162474 C159.552777,2.95478724 159.746508,3.25277205 159.908616,3.67041357 C160.03103,3.98573311 160.176681,4.45949679 160.216454,5.33184163 C160.25944,6.27532946 160.26857,6.55829345 160.26857,8.94734881 C160.26857,11.3364434 160.25944,11.6194074 160.216454,12.562856 M161.825509,5.25842395 C161.782092,4.30603344 161.630995,3.65566728 161.409952,3.08648414 C161.181542,2.49816219 160.87586,1.99914157 160.378876,1.50172892 C159.881853,1.00431626 159.383341,0.698330811 158.795448,0.469724145 C158.226834,0.24856906 157.577028,0.0973411813 156.625459,0.0538082597 C155.671969,0.0102361194 155.367541,0 152.939675,0 C150.51177,0 150.207341,0.0102361194 149.253852,0.0538082597 C148.302282,0.0973411813 147.652477,0.24856906 147.083863,0.469724145 C146.495969,0.698330811 145.997457,1.00431626 145.500474,1.50172892 C145.00345,1.99914157 144.697768,2.49816219 144.469358,3.08648414 C144.248316,3.65566728 144.097218,4.30603344 144.053801,5.25842395 C144.010266,6.21273618 144,6.51734898 144,8.94734881 C144,11.3773879 144.010266,11.6820007 144.053801,12.6363129 C144.097218,13.5887034 144.248316,14.2390696 144.469358,14.8082527 C144.697768,15.3965746 145.00345,15.8955953 145.500474,16.3930079 C145.997457,16.8904206 146.495969,17.196406 147.083863,17.4250127 C147.652477,17.6461678 148.302282,17.7974349 149.253852,17.8409286 C150.207341,17.8844223 150.51177,17.8947368 152.939675,17.8947368 C155.367541,17.8947368 155.671969,17.8844223 156.625459,17.8409286 C157.577028,17.7974349 158.226834,17.6461678 158.795448,17.4250127 C159.383341,17.196406 159.881853,16.8904206 160.378876,16.3930079 C160.87586,15.8955953 161.181542,15.3965746 161.409952,14.8082527 C161.630995,14.2390696 161.782092,13.5887034 161.825509,12.6363129 C161.869044,11.6820007 161.879271,11.3773879 161.879271,8.94734881 C161.879271,6.51734898 161.869044,6.21273618 161.825509,5.25842395" id="Fill-1"></path>
                </g>
            </g>
        </g>
    </g>
</svg>
