<svg xmlns="http://www.w3.org/2000/svg" width="61" height="70" viewBox="0 0 61 70" xmlns:xlink="http://www.w3.org/1999/xlink">
  <g fill="none" fill-rule="evenodd">
    <path fill="currentColor" d="M22.34148,35.29603 C22.34148,31.00993 25.81628,27.53513 30.10238,27.53513 C34.38848,27.53513 37.86328,31.00993 37.86328,35.29603 C37.86328,39.58213 34.38848,43.05693 30.10238,43.05693 C25.81628,43.05693 22.34148,39.58213 22.34148,35.29603"/>
    <g transform="translate(28.7 50.992)">
      <polygon id="a" points="2.454 18.9 .349 18.9 .349 .094 2.454 .094 2.454 18.9"/>
      <path fill="currentColor" d="M1.40091,18.90021 C0.82131,18.90021 0.34881,18.42911 0.34881,17.84741 L0.34881,1.14681 C0.34881,0.56441 0.81921,0.09401 1.40091,0.09401 C1.98261,0.09401 2.45371,0.56441 2.45371,1.14681 L2.45371,17.84741 C2.45091,18.42911 1.98121,18.90021 1.40091,18.90021"/>
    </g>
    <path fill="currentColor" d="M36.72361,59.81038 C36.45271,59.81038 36.18391,59.70678 35.97811,59.50238 L30.10091,53.62518 L24.22511,59.50238 C23.81421,59.91258 23.14851,59.91258 22.73831,59.50238 C22.32671,59.09148 22.32671,58.42508 22.73831,58.01278 L29.35821,51.39498 C29.76701,50.98688 30.43691,50.98688 30.84501,51.39498 L37.46701,58.01558 C37.87791,58.42508 37.87791,59.09148 37.46701,59.50238 C37.26121,59.70678 36.99171,59.81038 36.72361,59.81038"/>
    <g transform="translate(28.7 .592)">
      <polygon id="c" points=".351 .108 2.456 .108 2.456 18.914 .351 18.914 .351 .108"/>
      <path fill="currentColor" d="M1.40364,0.10822 C1.98324,0.10822 2.45574,0.57932 2.45574,1.16102 L2.45574,17.86162 C2.45574,18.44402 1.98534,18.91442 1.40364,18.91442 C0.82194,18.91442 0.35084,18.44402 0.35084,17.86162 L0.35084,1.16102 C0.35364,0.57932 0.82334,0.10822 1.40364,0.10822"/>
    </g>
    <path fill="currentColor" d="M23.48101 10.78105C23.75191 10.78105 24.02071 10.88535 24.22651 11.08975L30.10371 16.96625 35.97951 11.08975C36.39041 10.67885 37.05611 10.67885 37.46631 11.08975 37.87721 11.50135 37.87721 12.16635 37.46631 12.57935L30.84641 19.19715C30.43761 19.60595 29.76771 19.60595 29.35961 19.19715L22.73761 12.57655C22.32671 12.16635 22.32671 11.50135 22.73761 11.08975 22.94341 10.88535 23.21291 10.78105 23.48101 10.78105M60.06217 52.59506C59.77307 53.09696 59.12837 53.27056 58.62437 52.98006L44.16167 44.62906C43.65697 44.33856 43.48477 43.69596 43.77597 43.19196 44.06647 42.68796 44.70907 42.51576 45.21377 42.80696L59.67717 51.15726C60.18047 51.45056 60.35197 52.09246 60.06217 52.59506"/>
    <path fill="currentColor" d="M54.64333 41.81891C54.50893 42.05341 54.28283 42.23401 54.00283 42.31031L45.97523 44.46141 48.12633 52.48901C48.27683 53.05041 47.94503 53.62651 47.38293 53.77701 46.82153 53.92751 46.24473 53.59501 46.09283 53.03291L43.67153 43.99031C43.52243 43.43171 43.85773 42.85281 44.41633 42.70231L53.46033 40.27681C54.02033 40.12701 54.59783 40.46021 54.74763 41.02021 54.82113 41.30161 54.77703 41.58651 54.64333 41.81891M.14245 17.997C.43225 17.4951 1.07625 17.3208 1.58025 17.612L16.04295 25.9623C16.54765 26.2535 16.71985 26.8961 16.42865 27.4008 16.13815 27.9034 15.49555 28.0763 14.99085 27.7851L.52745 19.4348C.02485 19.1415-.14735 18.4996.14245 17.997"/>
    <path fill="currentColor" d="M5.56129 28.77322C5.69569 28.53872 5.92179 28.35812 6.20179 28.28112L14.22939 26.13002 12.07829 18.10242C11.92779 17.54172 12.25959 16.96562 12.82169 16.81512 13.38309 16.66462 13.95989 16.99712 14.11179 17.55922L16.53239 26.60112C16.68219 27.16042 16.34759 27.73932 15.78829 27.88982L6.74359 30.31532C6.18359 30.46512 5.60679 30.13262 5.45699 29.57122 5.38349 29.29052 5.42759 29.00562 5.56129 28.77322M60.0642 17.9991C60.3533 18.5017 60.1825 19.1464 59.6778 19.4369L45.2144 27.7865C44.7104 28.0777 44.0678 27.9062 43.7773 27.4029 43.4861 26.8989 43.6583 26.2563 44.1623 25.9637L58.6257 17.6134C59.1311 17.325 59.7744 17.4965 60.0642 17.9991"/>
    <path fill="currentColor" d="M48.02203 17.30386C48.15713 17.53836 48.20123 17.82326 48.12773 18.10536L45.97663 26.13226 54.00423 28.28406C54.56563 28.43316 54.89813 29.00996 54.74763 29.57066 54.59783 30.13206 54.02103 30.46526 53.45823 30.31616L44.41633 27.89136C43.85843 27.74156 43.52313 27.16126 43.67293 26.60336L46.09493 17.55796C46.24543 16.99796 46.82153 16.66476 47.38293 16.81526 47.66293 16.89086 47.88833 17.07146 48.02203 17.30386M.14105 52.59303C-.14875 52.09043.02275 51.44573.52675 51.15523L14.99015 42.80563C15.49415 42.51373 16.13675 42.68593 16.42725 43.18923 16.71845 43.69393 16.54695 44.33653 16.04225 44.62773L1.57885 52.97873C1.07345 53.26713.43085 53.09563.14105 52.59303"/>
    <path fill="currentColor" d="M12.18259,53.28757 C12.04749,53.05307 12.00339,52.76817 12.07689,52.48677 L14.22799,44.45987 L6.20039,42.30807 C5.63899,42.15897 5.30649,41.58217 5.45769,41.02147 C5.60749,40.45937 6.18359,40.12687 6.74639,40.27597 L15.78829,42.70077 C16.34619,42.84987 16.68079,43.43017 16.53169,43.98807 L14.10969,53.03487 C13.95919,53.59417 13.38309,53.92737 12.82169,53.77757 C12.54169,53.70057 12.31629,53.51997 12.18259,53.28757"/>
  </g>
</svg>
