<svg xmlns="http://www.w3.org/2000/svg" width="60" height="50" viewBox="0 0 60 50" xmlns:xlink="http://www.w3.org/1999/xlink">
  <g fill="none" fill-rule="evenodd">
    <g transform="translate(0 18.571)">
      <polygon id="a" points="0 14.286 0 0 14.286 0 14.286 14.286"/>
      <path fill="currentColor" d="M14.2855714,7.14285714 C14.2855714,11.0878571 11.0877143,14.2857143 7.14271429,14.2857143 C3.19842857,14.2857143 -0.000142857143,11.0878571 -0.000142857143,7.14285714 C-0.000142857143,3.19785714 3.19842857,0 7.14271429,0 C11.0877143,0 14.2855714,3.19785714 14.2855714,7.14285714" mask="url(#b)"/>
    </g>
    <path fill="currentColor" d="M47.1427143 7.14285714C47.1427143 11.0878571 43.9448571 14.2857143 39.9998571 14.2857143 36.0555714 14.2857143 32.857 11.0878571 32.857 7.14285714 32.857 3.19785714 36.0555714 0 39.9998571 0 43.9448571 0 47.1427143 3.19785714 47.1427143 7.14285714M47.1427143 42.8571429C47.1427143 46.8021429 43.9448571 50 39.9998571 50 36.0555714 50 32.857 46.8021429 32.857 42.8571429 32.857 38.9121429 36.0555714 35.7142857 39.9998571 35.7142857 43.9448571 35.7142857 47.1427143 38.9121429 47.1427143 42.8571429"/>
    <path fill="currentColor" d="M29.2855714,30.7142857 C26.1355714,30.7142857 23.5712857,28.15 23.5712857,25 C23.5712857,21.85 26.1355714,19.2857143 29.2855714,19.2857143 C32.4355714,19.2857143 34.9998571,21.85 34.9998571,25 C34.9998571,28.15 32.4355714,30.7142857 29.2855714,30.7142857 M52.1427143,18.5714286 C49.0791429,18.5714286 46.4727143,20.505 45.4612857,23.2142857 L38.3955714,23.2142857 C37.5641429,18.9428571 33.8027143,15.7142857 29.2855714,15.7142857 C28.257,15.7142857 27.272,15.8871429 26.3448571,16.1971429 L23.7498571,12.0507143 C24.9634286,10.77 25.7141429,9.04571429 25.7141429,7.14285714 C25.7141429,3.19785714 22.5162857,0 18.5712857,0 C14.627,0 11.4284286,3.19785714 11.4284286,7.14285714 C11.4284286,11.0857143 14.627,14.2857143 18.5712857,14.2857143 C19.3255714,14.2857143 20.047,14.1685714 20.7284286,13.9535714 L23.2391429,17.9628571 C21.2584286,19.665 19.9998571,22.185 19.9998571,25 C19.9998571,27.8935714 21.3227143,30.4742857 23.3955714,32.1792857 L20.8477143,36.0935714 C20.1312857,35.8514286 19.3662857,35.7142857 18.5712857,35.7142857 C14.6262857,35.7142857 11.4284286,38.9121429 11.4284286,42.8571429 C11.4284286,46.8 14.6262857,50 18.5712857,50 C22.5162857,50 25.7141429,46.8 25.7141429,42.8571429 C25.7141429,40.9992857 24.9998571,39.3135714 23.8362857,38.0442857 L26.5512857,33.8757143 C27.4162857,34.1407143 28.3341429,34.2857143 29.2855714,34.2857143 C33.8027143,34.2857143 37.5641429,31.0571429 38.3955714,26.7857143 L45.0891429,26.7857143 C45.6084286,30.2207143 48.5627143,32.8571429 52.1427143,32.8571429 C56.0877143,32.8571429 59.2855714,29.6571429 59.2855714,25.7142857 C59.2855714,21.7692857 56.0877143,18.5714286 52.1427143,18.5714286"/>
  </g>
</svg>
