<svg xmlns="http://www.w3.org/2000/svg" width="71" height="50" viewBox="0 0 71 50" xmlns:xlink="http://www.w3.org/1999/xlink">
  <g fill="none" fill-rule="evenodd">
    <g transform="translate(58.594 26.173)">
      <polygon id="a" points="12.026 .269 12.026 6.069 .404 6.069 .404 .269 12.026 .269"/>
      <path fill="currentColor" d="M1.51078125,0.2796875 C0.9225,0.36015625 0.4646875,0.83515625 0.41,1.42578125 C0.3521875,2.0171875 0.70765625,2.56953125 1.2709375,2.7625 L10.2373438,5.9640625 C10.56,6.10390625 10.9279688,6.10390625 11.250625,5.9640625 C11.5732812,5.82734375 11.8264062,5.55859375 11.9482813,5.22890625 C12.0685937,4.8984375 12.0490625,4.5328125 11.89125,4.21796875 C11.7357813,3.903125 11.4553125,3.66484375 11.1178125,3.5625 L2.15140625,0.3609375 C1.94828125,0.2796875 1.72875,0.25234375 1.51078125,0.2796875" mask="url(#b)"/>
    </g>
    <path fill="currentColor" d="M60.1846875 18.1266406C59.8440625 18.1414844 59.5245313 18.2914844 59.2964063 18.5446094 59.0659375 18.7938281 58.94875 19.1274219 58.9635938 19.4680469 58.9784375 19.8071094 59.1284375 20.1282031 59.3815625 20.3563281 59.6315625 20.5852344 59.964375 20.7032031 60.305 20.6883594L69.2714062 20.6883594C69.614375 20.6938281 69.9448437 20.5610156 70.1901563 20.3211719 70.4323438 20.0782031 70.5698438 19.7508594 70.5698438 19.4078906 70.5698438 19.0649219 70.4323438 18.7367969 70.1901563 18.4946094 69.9448437 18.2539844 69.614375 18.1219531 69.2714062 18.1266406L60.305 18.1266406C60.264375 18.1242969 60.2245313 18.1242969 60.1846875 18.1266406M69.1713281 7.87882812C69.0533594 7.88898437 68.9408594 7.91632812 68.8299219 7.95929687L59.8642969 11.1616406C59.5267969 11.2639844 59.2463281 11.5014844 59.0908594 11.8171094 58.9338281 12.1311719 58.9135156 12.4975781 59.0330469 12.8272656 59.1564844 13.1577344 59.4088281 13.4257031 59.7314844 13.5624219 60.0541406 13.7030469 60.4221094 13.7030469 60.7447656 13.5624219L69.7111719 10.3608594C70.3174219 10.1421094 70.6650781 9.51007812 70.5299219 8.88195312 70.3916406 8.25304687 69.8111719 7.82648437 69.1713281 7.87882812M18.7364844 27.1079688L3.41851563 27.1079688C1.53179687 27.1079688.000546875 25.5767188.000546875 23.6907813L.000546875 14.9564063C.000546875 13.0696875 1.53179687 11.5384375 3.41851563 11.5384375L18.7341406 11.5384375 18.7364844 27.1079688z"/>
    <g transform="translate(19.531 .392)">
      <polygon id="c" points="29.28 .39 .724 .39 .724 37.47 29.28 37.47 29.28 .39"/>
      <path fill="currentColor" d="M0.72421875,26.7163281 L4.26953125,26.7163281 C4.26953125,26.7163281 18.8273438,28.5428906 24.2695312,35.8577344 C29.7132813,43.1733594 29.2710937,23.4889844 29.2710937,18.9296094 C29.2710937,14.3710156 29.7132813,-5.31414062 24.2695312,2.00226563 C18.828125,9.31789063 4.26953125,11.1436719 4.26953125,11.1436719 L0.72421875,11.1436719 L0.72421875,26.7163281 Z" mask="url(#d)"/>
    </g>
    <path fill="currentColor" d="M50.3282813 15.0519531C52.6876563 15.0519531 54.6017188 16.9628906 54.6017188 19.3253906 54.6017188 21.6839844 52.6892188 23.5980469 50.3282813 23.5980469L50.3282813 15.0519531zM5.46359375 28.6269531C5.46359375 28.6269531 7.26828125 29.3878906 7.8378125 31.5714844 8.40890625 33.7550781 5.27453125 49.6097656 16.6675 49.6097656 28.06125 49.6097656 21.8885938 45.0535156 20.1807813 42.9628906 18.470625 40.8738281 15.2440625 34.5144531 16.1917187 28.6269531L5.46359375 28.6269531z"/>
  </g>
</svg>
