<svg xmlns="http://www.w3.org/2000/svg" width="50" height="49" viewBox="0 0 50 49">
  <g fill="currentColor" fill-rule="evenodd">
    <path d="M25.024324,34 C22.8282854,34 20.8413933,32.9788295 19.1213875,30.9674539 C18.9500927,30.7665228 18.9609991,30.4568687 19.1483328,30.2738287 C19.336308,30.0901006 19.6250073,30.1045511 19.795019,30.3027297 C21.3353897,32.1035405 23.0938887,33.0166761 25.0223994,33.0166761 C27.229986,33.0166761 29.0609806,31.460148 30.2093619,30.1534076 C30.3819398,29.9572934 30.6725637,29.9476597 30.8560481,30.1334521 C31.0414572,30.3185565 31.0478727,30.6309631 30.8746532,30.8298299 C29.0539235,32.9031363 27.0323874,34 25.024324,34"/>
    <path d="M35 32.4818039L35 41.5058598C35 41.7827428 34.783702 42 34.5064846 42L16.4811946 42C16.216298 42 16 41.7827428 16 41.5058598L16 32.6976904C16 32.4214927 16.216298 32.2049208 16.4811946 32.2049208 16.7577275 32.2049208 16.97471 32.4214927 16.97471 32.6976904L16.97471 41.0240559 34.02529 41.0240559 34.02529 32.4818039C34.02529 32.2165719 34.241588 32 34.5064846 32 34.783702 32 35 32.2165719 35 32.4818039M13 34.4560152L13 41.0354773C13 41.2981887 12.7773864 41.5038172 12.4920747 41.5038172L10.0151462 41.5038172 10.0151462 46.5323088C10.0031701 46.7943715 9.77985206 47 9.50722085 47 9.2226136 47 9 46.7943715 9 46.5323088L9 41.0354773C9 40.7850906 9.2226136 40.5794621 9.50722085 40.5794621L11.9841493 40.5794621 11.9841493 34.4560152C11.9841493 34.2049798 12.2074674 34 12.4920747 34 12.7647059 34 13 34.2049798 13 34.4560152M42 41.6774415L42 47.5055021C42 47.7833563 41.7642671 48 41.4755688 48 41.1734427 48 40.9377098 47.7833563 40.9377098 47.5055021L40.9377098 42.173315 38.537113 42.173315C38.2364789 42.173315 38 41.954608 38 41.6774415L38 34.4958735C38 34.2297111 38.2364789 34 38.537113 34 38.8265573 34 39.0622902 34.2297111 39.0622902 34.4958735L39.0622902 41.1822558 41.4755688 41.1822558C41.7642671 41.1822558 42 41.4105915 42 41.6774415"/>
    <path d="M32 31.5058975C32 31.8996847 31.9529696 32.2941726 31.8703306 32.6634357 31.3388874 35.1396707 29.1768342 37 26.5787423 37L22.3151035 37C19.6572158 37 17.5670519 35.2749037 17.1061543 32.8484176 17.0356087 32.5036786 17 32.1589396 17 31.7889758 17 31.5185099 17.2116367 31.2956908 17.4844128 31.2956908 17.7430798 31.2956908 17.9674819 31.5185099 17.9674819 31.7889758 17.9674819 32.0110942 17.9802472 32.2206003 18.015856 32.4287049 18.3108035 34.5118533 20.0589895 36.0022188 22.3151035 36.0022188L26.5787423 36.0022188C28.7750605 36.0022188 30.6065574 34.3759197 30.9606289 32.2570361 31.0069874 32.0110942 31.0311744 31.763751 31.0311744 31.5058975 31.0311744 31.2228191 31.2441548 31 31.5149153 31 31.775598 31 32 31.2228191 32 31.5058975M12.4143622 14.0017739C12.4241917 14.0017739 13.0287077 14.0464515 13.9985545 14.1147445L13.9985545 14.21495C14.0182136 14.5627974 13.8352752 14.8768174 13.5758848 15 12.8173728 14.9451103 12.3663067 14.9106447 12.3575693 14.9106447 12.1456884 14.8889442 11.982409 14.6751297 12.001522 14.4166377 12.0113515 14.1709106 12.2030273 13.979435 12.4143622 14.0017739M35.9984954 14.4300358C36.0163995 14.7021869 35.8726556 14.9405725 35.6665035 14.9642084 35.6567841 14.9642084 35.5401521 14.976364 35.3150728 15 35.1171054 14.8575089 34.9912656 14.5725268 35.0004734 14.2510778L35.0004734 14.0619902C35.3779927 14.0255233 35.5938642 14.0018873 35.6035836 14.0018873 35.800528 13.9789267 35.9805914 14.1680143 35.9984954 14.4300358M35.9981042 18.3368254C36.0219325 18.531699 35.818371 18.6998845 35.5433247 18.7175088 35.3281894 18.7255655 35.1123734 18.735133 34.9088118 18.7441969 31.1745814 18.9123824 27.8597286 19 25.0228027 19 22.1743032 19 18.8233675 18.9209427 15.029226 18.7618211 14.837919 18.7527572 14.646612 18.7441969 14.4553051 18.735133 14.1918325 18.7255655 13.988271 18.55738 14.0005255 18.3544496 14.0120992 18.1590724 14.2517436 18.0095182 14.5145353 18.0180786 14.6105292 18.0180786 14.7072039 18.0271424 14.7902625 18.0271424 18.6681433 18.195328 22.1150729 18.2748888 25.0228027 18.2748888 27.8835568 18.2748888 31.2828298 18.195328 35.0762905 18.0180786 35.2083672 18.0095182 35.3397631 18.0095182 35.4834136 18.0004543 35.7584599 17.9908869 35.9858497 18.1333914 35.9981042 18.3368254"/>
    <path d="M47.4422834,37.8167064 C47.3718014,37.7572315 47.3006482,37.7111217 47.2180836,37.6750358 L32.2423419,31.2604296 C33.9426357,29.1814797 35.1106227,26.7383294 35.5945989,24.9527446 C36.8565619,24.1067303 37.1398323,21.6629117 37.104927,20.3711695 C37.0935156,20.030358 37.0572677,19.7249642 37.010951,19.4543198 L47.9369998,18.3857757 C48.3511653,18.3496897 48.6686698,18.0088783 48.6921638,17.6105967 C48.7284116,17.1982816 48.4572239,16.823389 48.0558122,16.7284964 L37.3177154,14.1329833 C37.2465622,12.2177566 36.7505033,6.76677804 33.2465422,3.19494033 C31.1696734,1.06988067 28.4081224,0 25.0451253,0 C21.6821282,0 18.9440712,1.06988067 16.9262729,3.19494033 C13.5391106,6.75608592 13.1853582,12.1703103 13.1732756,14.1216229 L1.34975631,16.7284964 C0.936933311,16.8106921 0.653662894,17.1875895 0.677156886,17.5978998 C0.712733503,18.0088783 1.03023802,18.3496897 1.44373228,18.3857757 L13.3034994,19.5251551 C13.2444288,19.877327 13.2209348,20.2769451 13.2323462,20.7473986 C13.2558402,22.3218138 13.681417,24.2470644 14.7661682,24.9754654 C15.1091805,26.2331265 16.0059797,28.9943675 17.8693889,31.4021002 L3.18967151,37.7111217 C3.0963668,37.7572315 3.01313094,37.8040095 2.94264896,37.8862053 C1.89280315,38.896611 0.546933046,45.2878282 0.0159688284,47.9902625 C-0.0316904123,48.2368496 0.0273801959,48.4947971 0.192509396,48.6832458 C0.346898486,48.8830549 0.594592286,49 0.84161483,49 L49.1533173,49 C49.3889285,49 49.6252109,48.893747 49.7903401,48.7066348 C49.9554693,48.5188544 50.0266225,48.2829594 49.9910459,48.0370406 C49.5191523,44.6422912 48.5632824,38.8030549 47.4422834,37.8167064 L47.4422834,37.8167064 Z M1.88072053,47.3086396 C2.61239056,43.7615274 3.5682604,39.9771838 4.05089412,39.1786158 L11.6159595,35.9248687 L12.5832407,35.5138902 L15.8871672,34.092506 L16.8437083,33.6815274 L17.657943,33.340716 L18.5661536,32.9404296 L19.5804228,32.5067303 C19.628082,32.4833413 19.6629874,32.459284 19.6992352,32.4352267 C19.8999411,32.3176134 20.0288224,32.1298329 20.0764816,31.9066348 C20.1120582,31.7422434 20.1006469,31.577852 20.0415763,31.4368496 C20.0059997,31.3319332 19.946929,31.2370406 19.8764471,31.1548449 C17.5163078,28.6061098 16.5597667,25.1879714 16.3241555,24.2009547 C16.2530023,23.9075895 16.0288025,23.6723628 15.7341207,23.5901671 C15.6864614,23.5774702 15.5099209,23.4257757 15.3206264,22.9553222 C14.8487328,21.7805251 14.8614867,19.9956086 15.0494386,19.4890692 C15.1796625,19.3961814 15.2857211,19.2665394 15.3447917,19.125537 C15.4038623,18.9965632 15.4273563,18.8555609 15.4159449,18.7152267 C15.3924509,18.4906921 15.2736384,18.2908831 15.1091805,18.1505489 C14.9789566,18.0442959 14.8252388,17.9747971 14.6486982,17.9621002 L6.95475152,17.2230072 L14.2237926,15.6252029 C14.2714519,15.612506 14.3177686,15.6018138 14.3654278,15.5777566 C14.6836036,15.4481146 14.9078034,15.1193317 14.8849807,14.7551313 L14.8849807,14.6502148 C14.8614867,13.7801432 14.8373214,7.86004773 18.1654132,4.35904535 C19.8522818,2.584821 22.1654331,1.68066826 25.0451253,1.68066826 C27.9355576,1.68066826 30.2836142,2.584821 32.030896,4.36973747 C35.3938931,7.80124105 35.6295043,13.4874463 35.6415869,14.5907399 L35.6415869,14.7785203 C35.6295043,15.096611 35.7946335,15.3786158 36.0544099,15.5196181 C36.1255631,15.5777566 36.1967164,15.6018138 36.2786097,15.6252029 L42.8045694,17.1982816 L35.6295043,17.9032936 C35.4294697,17.9159905 35.2522579,18.0088783 35.1106227,18.1391885 C34.9689875,18.2908831 34.8743403,18.4793317 34.8629289,18.6911695 C34.8508463,18.8321718 34.8864229,18.9845346 34.9454935,19.1014797 C35.0159755,19.255179 35.1220341,19.3841527 35.2757519,19.4656802 C35.4643751,19.9481623 35.4999517,21.5927446 35.0750461,22.8022912 C34.8864229,23.366969 34.6857171,23.5427208 34.6266464,23.566778 C34.3319647,23.6489737 34.1077649,23.882864 34.0366116,24.1882578 C33.6358712,25.9631504 32.2671784,28.8526969 30.2252149,31.0031504 C30.1426503,31.0853461 30.0721683,31.1909308 30.0359204,31.3085442 C29.9896037,31.4495465 29.9768498,31.6012411 30.0124264,31.7549403 C30.0594144,31.9774702 30.2010496,32.1779475 30.3903441,32.2835322 C30.4252494,32.3176134 30.4729087,32.3423389 30.507814,32.353031 L31.4999318,32.7767064 L32.4088136,33.1642959 L33.5640468,33.6574702 L34.5205879,34.0691169 L37.8251856,35.4905012 L38.7810555,35.9014797 L46.356861,39.1431981 C46.8522486,39.9537947 47.6429892,43.7615274 48.1739534,47.3086396 L1.88072053,47.3086396 Z"/>
    <path d="M41.5326569 46L41.5326569 40.9588166C41.5326569 40.7094318 41.3294269 40.4942004 41.0805345 40.4942004L39 40.4942004 39 35 46.2583965 38.126655C46.7336716 38.9083187 47.4906388 42.5788518 48 46L41.5326569 46zM12 36L12 41.4945113 9.575674 41.4945113C9.29711094 41.4945113 9.07853548 41.6985618 9.07853548 41.9484591L9.07853548 47 2 47C2.75156864 43.5724684 3.73343446 39.9163487 4.22919396 39.1447021L12 36zM34 33.4670886L34 41 17 41 17 33.4892405 17.8278202 33.1658228C18.2946206 35.3588608 20.4191088 36.9164557 23.1182256 36.9164557L27.4490967 36.9164557C30.0888398 36.9164557 32.283621 35.2360759 32.8234444 33L34 33.4670886zM43 16.7037508L35.7955511 17.4171274C35.5940045 17.4286226 35.4160503 17.5239648 35.2738218 17.6537926 31.5172356 17.8924864 28.1522834 18 25.3198457 18 22.4402232 18 19.0280862 17.8924864 15.1879154 17.6666401 15.0578201 17.5598027 14.9041324 17.4874508 14.7261782 17.4766318L7 16.7267412 14.2994926 15.1106559C14.3466774 15.0991607 14.3945363 15.0863132 14.4417211 15.0626467 14.7619039 14.9328189 14.9870429 14.5994591 14.9627764 14.2316137L14.9627764 14.1241001C14.939184 13.2450579 14.9155916 7.2526948 18.2576254 3.71083091 19.9515607 1.91623245 22.2744022 1 25.166158 1 28.070047 1 30.4272661 1.91623245 32.1811935 3.72300227 35.5582789 7.19386659 35.7955511 12.9468597 35.8070103 14.0645957L35.8070103 14.2552802C35.7955511 14.5757925 35.9613721 14.860467 36.2215627 15.0031423 36.293014 15.0626467 36.3637913 15.0863132 36.4467017 15.1106559L43 16.7037508zM14.5003086 43.8823529C14.1596379 43.8823529 13.8819173 44.1593994 13.8819173 44.5 13.8819173 44.8406006 14.1596379 45.1182641 14.5003086 45.1182641 14.8409792 45.1182641 15.1186999 44.8406006 15.1186999 44.5 15.1186999 44.1593994 14.8409792 43.8823529 14.5003086 43.8823529M14.5003086 46C13.6733182 46 13 45.3268202 13 44.5 13 43.6731798 13.6733182 43 14.5003086 43 15.3272989 43 16 43.6731798 16 44.5 16 45.3268202 15.3272989 46 14.5003086 46M35.5003086 43.8823529C35.1590208 43.8823529 34.8843859 44.1593994 34.8843859 44.5 34.8843859 44.8406006 35.1614894 45.1182641 35.5003086 45.1182641 35.8409792 45.1182641 36.1186999 44.8406006 36.1186999 44.5 36.1186999 44.1593994 35.8409792 43.8823529 35.5003086 43.8823529M35.5003086 46C34.6727011 46 34 45.3268202 34 44.5 34 43.6731798 34.6727011 43 35.5003086 43 36.3272989 43 37 43.6731798 37 44.5 37 45.3268202 36.3272989 46 35.5003086 46"/>
  </g>
</svg>
