<svg xmlns="http://www.w3.org/2000/svg" width="65" height="39" viewBox="0 0 65 39">
  <path fill="currentColor" fill-rule="evenodd" d="M70.9151533,83.3456342 C70.0521575,83.3456342 68.6792096,83.0557896 68.6792096,82.0453291 C68.6792096,81.2527967 68.1016998,80.6745605 67.3077147,80.6745605 C66.5863722,80.6745605 66.008136,81.2527967 66.008136,81.9741392 C65.9369461,83.9957867 67.7406654,85.439198 69.5443847,85.8706959 L69.5443847,87.3141072 C69.5443847,88.1066395 70.122621,88.6856022 70.9151533,88.6856022 C71.6364957,88.6856022 72.2154584,88.1066395 72.2154584,87.3845707 L72.2154584,85.8706959 C74.3090222,85.439198 75.822897,83.9245968 75.822897,82.0453291 C75.822897,81.1060584 75.3913991,80.1704199 74.7405201,79.4490774 C73.8012495,78.5098068 72.434113,78.0049397 70.9907017,78.0049397 C70.1262531,78.0049397 68.7547581,77.6453581 68.7547581,76.6341711 C68.7547581,75.984745 69.6947552,75.3345925 70.9907017,75.3345925 C71.7839605,75.3345925 73.2266454,75.6949005 73.2266454,76.6341711 C73.2266454,77.3555136 73.805608,78.0049397 74.526224,78.0049397 C75.3202092,78.0049397 75.897719,77.4274299 75.897719,76.6341711 C75.897719,74.5420601 74.0947261,73.3151242 72.3621967,72.8095307 L72.3621967,71.2949295 C72.3621967,70.5735871 71.7839605,69.9227081 70.9907017,69.9227081 C70.2693593,69.9227081 69.6192067,70.5016708 69.6192067,71.2230132 L69.6192067,72.7376144 C67.5263693,73.1698387 66.0117681,74.7592619 66.0117681,76.4874328 C66.0117681,77.4986198 66.3728026,78.3630684 67.1653349,79.0844109 C68.0290571,80.0236815 69.4724684,80.5270957 70.9151533,80.5270957 C71.708412,80.5270957 73.0791806,80.9600465 73.0791806,81.8985907 C73.1554555,82.6242917 72.2154584,83.3456342 70.9151533,83.3456342 L70.9151533,83.3456342 Z M99.0525933,68.2657272 C96.9604823,65.0185965 91.5493244,56 84.9838733,56 L70.9907017,56 C70.9907017,56 68.46564,56 68.46564,58.5969781 L68.46564,60.1834956 C68.46564,60.1834956 68.46564,62.2770594 70.9907017,62.2770594 L80.151678,62.2770594 C81.0916751,62.2770594 81.0916751,64.3691704 79.9337498,64.3691704 L48.8390237,64.3691704 C46.3139619,64.2979805 45.8817376,65.8881302 45.8817376,66.390818 L45.8817376,67.9054191 C45.8105477,70.1406364 48.2644196,69.9982566 48.8390237,69.9982566 L61.3945954,69.9982566 C63.7765509,67.5443847 67.1653349,65.9585936 70.9907017,65.9585936 C78.3479587,65.9585936 84.3388058,71.8731658 84.3388058,79.3059712 C84.3388058,86.6625018 78.3479587,92.6533488 70.9907017,92.6533488 C67.0236815,92.6533488 63.6334447,90.9912829 61.1788464,88.3245678 L54.5392997,88.3245678 C52.014238,88.3245678 52.014238,90.4181316 52.014238,90.4181316 L52.014238,92.0031963 C52.014238,94.0967601 54.5392997,94.0967601 54.5392997,94.0967601 L86.0662502,94.0967601 C92.7777132,94.0967601 97.0316722,91.4278658 99.1245097,88.3245678 L105.906436,88.3245678 C107.207468,84.5732965 108,80.5307279 108,76.2774953 C108,73.4633154 107.638966,70.7951475 107.060729,68.1981694 L99.0525933,68.1981694 L99.0525933,68.2657272 Z M48.8390237,80.5307279 C46.3139619,80.5307279 45.8817376,81.756211 45.8817376,82.6242917 L45.8817376,84.20863 C45.8817376,85.5815778 46.8217347,86.3029202 48.8390237,86.3029202 L59.5189598,86.3029202 C58.5077728,84.5703908 57.7864303,82.6242917 57.6440506,80.5307279 L48.8390237,80.5307279 Z M57.6440506,78.3667006 C57.7864303,76.1300305 58.5077728,74.0379195 59.6649717,72.2342002 L45.9580125,72.2342002 C43.4322243,72.2342002 43,73.4596833 43,74.3270376 L43,76.3494116 C43,78.4415226 45.0209211,78.4415226 45.9580125,78.4415226 L57.6440506,78.4415226 L57.6440506,78.3667006 Z" transform="translate(-43 -56)"/>
</svg>
