<svg xmlns="http://www.w3.org/2000/svg" width="85" height="39" viewBox="0 0 85 39" xmlns:xlink="http://www.w3.org/1999/xlink">
  <g fill="none" fill-rule="evenodd" transform="translate(.5)">
    <path fill="currentColor" d="M30.8655091,24.7433455 L27.4964182,14.7960273 L24.1273273,32.0293909 L21.0735091,16.2070273 L20.2111455,18.4008 L8.61637273,18.3977091 C12.6901909,27.0939818 23.5006455,34.3761636 25.7693727,35.7863909 C26.0823273,35.9424818 26.3976,35.9424818 26.6325091,35.7863909 C28.9035545,34.3761636 39.7132364,27.0136182 43.7097818,18.3977091 L32.9001,18.3977091 L30.8655091,24.7433455 Z"/>
    <g transform="translate(6.955 .502)">
      <mask id="b" fill="white">
        <polygon id="a" points="38.166 .271 .017 .271 .017 21.344 38.166 21.344 38.166 .271"/>
      </mask>
      <path fill="currentColor" d="M14.6669045,8.57549545 L17.1728591,21.3440409 L20.0705864,6.69699545 L23.8299045,17.9757227 L24.4581318,16.0168591 L37.4623591,16.0168591 C37.9337227,14.6066318 38.1663136,13.1191318 38.1663136,11.7089045 C38.1663136,5.83385909 33.3869955,0.270995455 27.51195,0.270995455 C23.1236318,0.270995455 21.4019955,2.54126818 19.6780409,4.49935909 C19.3666318,4.89113182 18.81645,4.89113182 18.5042682,4.49935909 C16.7803136,2.46167727 15.1344045,0.270995455 10.6711318,0.270995455 C4.79608636,0.270995455 0.0167681818,5.83385909 0.0167681818,11.7089045 C0.0167681818,13.1956318 0.251677273,14.6066318 0.71995,16.0168591 L11.7660864,16.0168591 L14.6669045,8.57549545 Z" mask="url(#b)"/>
    </g>
    <path fill="currentColor" d="M.939636364 16.5184364C.391772727 16.5184364 0 16.9898 0 17.4580727 0 17.9294364.471363636 18.3969364.939636364 18.3969364L8.61668182 18.3969364C8.3045 17.7702545 8.06881818 17.0663 7.83313636 16.4388455L.939636364 16.4388455.939636364 16.5184364zM51.2311227 16.5184364L44.4179864 16.5184364C44.1815318 17.1458909 43.94585 17.8498455 43.6336682 18.4773L51.2311227 18.4773C51.7789864 18.4773 52.1707591 18.0059364 52.1707591 17.5376636 52.1707591 17.0663 51.7789864 16.5184364 51.2311227 16.5184364"/>
    <g transform="translate(74.955 4.365)">
      <mask id="d" fill="white">
        <polygon id="c" points="9.309 9.366 9.309 .212 .152 .212 .152 9.366 9.309 9.366"/>
      </mask>
      <path fill="currentColor" d="M4.66897273,0.668640909 C4.06006364,0.0597318182 3.07406364,0.0597318182 2.46592727,0.668640909 L0.152381818,2.97986818 L6.53974545,9.36645909 L8.85251818,7.05523182 C9.46142727,6.44632273 9.46142727,5.46109545 8.85251818,4.85218636 L4.66897273,0.668640909 Z" mask="url(#d)"/>
    </g>
    <path fill="currentColor" d="M76.2640091 9.49372727L55.9698727 29.7870909C55.4343727 29.1441818 54.9661 28.5074545 54.5735545 27.8939091 54.6469636 27.8112273 54.7242364 27.7293182 54.8038273 27.6512727L74.6119182 7.84086364 76.2640091 9.49372727zM53.3304682 29.9917091C53.5290591 29.4253 53.8080136 28.8921182 54.1572864 28.4099364 54.8890591 29.5234364 55.8511045 30.7041636 56.9947409 31.8470273 58.1360591 32.9898909 59.3183318 33.9519364 60.4310591 34.6837091 59.9473318 35.0322091 59.4156955 35.3103909 58.8500591 35.5097545L53.5862409 37.3596636 53.3660136 37.2337091C52.63115 36.8172091 52.0230136 36.2098455 51.6065136 35.4742091L51.4813318 35.2539818 53.3304682 29.9917091zM61.1904955 34.0376318C61.1101318 34.1172227 61.0297682 34.19295 60.9478591 34.2686773 60.2949045 33.8490864 59.6172227 33.3483591 58.9333591 32.7695864L79.2367682 12.4661773 81.0001318 14.2279955 61.1904955 34.0376318zM76.7039227 9.93402727L78.7964682 12.0250273 58.4683318 32.3531636C57.6515591 31.6329818 57.0982864 31.0781636 56.3835136 30.2544364L76.7039227 9.93402727z"/>
    <path fill="currentColor" d="M2.70925909,2.31972727 L1.38712273,3.00127273 C0.713304545,3.34745455 -0.00996818182,2.62572727 0.337759091,1.95268182 L1.01853182,0.629 C1.42730455,1.32909091 2.00916818,1.9125 2.70925909,2.31972727" transform="translate(50.227 35.274)"/>
  </g>
</svg>
