<svg xmlns="http://www.w3.org/2000/svg" width="45" height="60" viewBox="0 0 45 60" xmlns:xlink="http://www.w3.org/1999/xlink">
  <g fill="none" fill-rule="evenodd">
    <polygon id="a" points="0 0 0 59.427 44.156 59.427 44.156 0"/>
    <path fill="currentColor" d="M11.519475,55.377225 L7.138725,56.636475 C6.720975,56.754225 6.297975,56.336475 6.479475,55.917225 L10.137975,44.516475 C10.856475,45.235725 11.819475,45.657225 12.896475,45.657225 C13.255725,45.657225 13.615725,45.597975 13.977975,45.476475 L17.096475,44.516475 L19.496475,46.734975 C19.555725,46.794225 19.677225,46.853475 19.736475,46.915725 L15.837975,58.973475 C15.719475,59.391975 15.177975,59.513475 14.878725,59.154225 L12.060225,55.554975 C11.997975,55.377225 11.756475,55.314225 11.519475,55.377225 M34.133475,44.516475 L37.850475,55.974225 C37.970475,56.392725 37.611225,56.814225 37.191975,56.691975 L32.752725,55.433475 C32.511975,55.374225 32.333475,55.433475 32.152725,55.614225 L29.334225,59.213475 C29.034975,59.573475 28.494225,59.454225 28.375725,59.032725 L24.475725,46.975725 C24.534975,46.915725 24.657225,46.856475 24.717225,46.794225 L27.117225,44.576475 L30.234225,45.534975 C30.594225,45.653475 30.951975,45.715725 31.316475,45.715725 C32.451975,45.657225 33.414975,45.238725 34.133475,44.516475 M30.652725,21.120975 L26.813475,24.361725 L28.012725,29.219475 C28.253475,30.119475 27.231225,30.837975 26.453475,30.360225 L22.135725,27.720225 L17.877975,30.360225 C17.096475,30.841725 16.077975,30.119475 16.318725,29.219475 L17.517975,24.361725 L13.677975,21.120975 C12.960225,20.520975 13.319475,19.321725 14.278725,19.262475 L19.317975,18.903225 L21.235725,14.222475 C21.595725,13.322475 22.854225,13.322475 23.217975,14.222475 L25.134975,18.903225 L30.174975,19.262475 C30.951975,19.321725 31.374975,20.520975 30.652725,21.120975 M22.135725,10.623225 C15.537225,10.623225 10.197225,15.963225 10.197225,22.561725 C10.197225,29.160225 15.537225,34.500225 22.135725,34.500225 C28.734225,34.500225 34.074225,29.160225 34.074225,22.561725 C34.074225,15.963225 28.734225,10.623225 22.135725,10.623225 M22.135725,37.199475 C14.097225,37.199475 7.557975,30.660225 7.557975,22.620975 C7.557975,14.582475 14.097225,8.043225 22.135725,8.043225 C30.174975,8.043225 36.714975,14.582475 36.714975,22.620975 C36.714975,30.600975 30.174975,37.199475 22.135725,37.199475 M39.472725,30.300975 L43.790475,27.900975 C44.150475,27.660225 44.271975,27.183225 44.031975,26.820225 L41.151225,22.861725 C40.969725,22.620975 40.969725,22.261725 41.151225,22.020975 L43.969725,18.003225 C44.210475,17.643975 44.088225,17.103975 43.728225,16.921725 L39.410475,14.582475 C39.110475,14.400975 38.991975,14.100975 39.050475,13.800975 L39.891225,8.943225 C39.950475,8.523975 39.651225,8.102475 39.172725,8.102475 L34.254975,7.921725 C33.954975,7.921725 33.655725,7.680975 33.596475,7.380975 L32.215725,2.640975 C32.096475,2.222475 31.614975,1.981725 31.196475,2.159475 L26.697225,4.077975 C26.335725,4.265475 26.034975,4.146975 25.794225,3.906225 L22.495725,0.247725 C22.194975,-0.111525 21.654975,-0.052275 21.354225,0.247725 L18.114975,3.965475 C17.934225,4.206225 17.574225,4.265475 17.274975,4.146975 L12.716475,2.288475 C12.296475,2.106975 11.816475,2.347725 11.697225,2.769225 L10.378725,7.508475 C10.319475,7.808475 10.019475,8.049225 9.720225,8.049225 L4.801725,8.349225 C4.383225,8.349225 4.020975,8.767725 4.142475,9.249225 L5.042475,14.048475 C5.101725,14.348475 4.923225,14.647725 4.683975,14.828475 L0.364725,17.228475 C0.006225,17.469225 -0.116025,17.947725 0.124725,18.309975 L3.005475,22.267725 C3.187725,22.509225 3.187725,22.867725 3.005475,23.108475 L0.188475,27.126225 C-0.053025,27.485475 0.068475,28.026225 0.427725,28.207725 L4.746225,30.548475 C5.045475,30.728475 5.163975,31.028475 5.104725,31.328475 L4.263975,36.186975 C4.204725,36.606225 4.504725,37.027725 4.983225,37.027725 L9.901725,37.209225 C10.200225,37.209225 10.500975,37.449975 10.560225,37.749225 L11.940975,42.488475 C12.060225,42.907725 12.540975,43.147725 12.960225,42.970725 L17.457975,41.051475 C17.757975,40.932975 18.118725,40.992225 18.298725,41.232975 L21.597975,44.891475 C21.898725,45.250725 22.439475,45.191475 22.738725,44.891475 L25.978725,41.173725 C26.160225,40.932975 26.518725,40.873725 26.818725,40.992225 L31.378725,42.850725 C31.795725,43.032975 32.277975,42.792225 32.395725,42.369975 L33.715725,37.630725 C33.774975,37.330725 34.074225,37.089975 34.374975,37.089975 L39.291225,36.789975 C39.711225,36.789975 40.072725,36.371475 39.950475,35.889975 L39.050475,31.090725 C39.050475,30.782475 39.231975,30.419475 39.472725,30.300975" mask="url(#b)"/>
  </g>
</svg>
