<svg xmlns="http://www.w3.org/2000/svg" width="60" height="50" viewBox="0 0 60 50">
  <path fill="currentColor" fill-rule="evenodd" d="M14.9833571,7.63514286 L10.5212143,7.63514286 L9.3555,13.1487143 L14.9833571,7.63514286 Z M17.6797857,24.0665714 L21.0155,18.0222857 L14.0440714,21.2151429 L17.6797857,24.0665714 Z M4.2105,13.5172857 L6.35335714,3.24871429 C6.51192857,2.47514286 7.19835714,1.92014286 7.98692857,1.92014286 L21.7290714,1.92014286 C22.2805,1.92014286 22.7890714,2.18585714 23.1019286,2.63371429 L29.5440714,11.8672857 C29.9119286,12.398 29.9433571,13.0965714 29.6226429,13.6558571 L21.8012143,27.2994286 L37.5705,39.6615714 C37.7455,39.6615714 37.9197857,39.6701429 38.0912143,39.6851429 C38.6733571,38.4051429 39.7676429,37.4251429 41.1076429,36.9765714 C43.7776429,36.088 46.6576429,37.5315714 47.5447857,40.1972857 C48.4297857,39.868 49.4019286,39.868 50.2855,40.1887143 C52.3483571,40.943 53.4033571,43.2237143 52.6490714,45.2815714 C53.6540714,45.4365714 54.4819286,46.1537143 54.7712143,47.1258571 C56.8305,46.6658571 58.8762143,47.9344286 59.3755,49.9858571 L22.3090714,49.9858571 C23.5983571,47.6222857 26.3590714,46.4758571 28.9440714,47.2251429 C28.8690714,46.8487143 28.8690714,46.4637143 28.9440714,46.083 C29.2569286,44.4644286 30.8283571,43.4137143 32.4462143,43.7315714 C32.8269286,42.113 33.9455,40.7722857 35.4647857,40.1015714 L20.9726429,28.7472857 L20.5676429,29.4565714 L21.6626429,30.6222857 C22.8919286,31.9351429 23.1505,33.8865714 22.2926429,35.4737143 L15.1855,48.633 C14.5433571,49.823 13.0912143,50.3144286 11.8540714,49.763 C10.5569286,49.1808571 9.96978571,47.6494286 10.5569286,46.3487143 L16.3397857,33.4551429 L8.94192857,24.7251429 L8.94192857,32.808 C8.94192857,33.1644286 8.89621429,33.518 8.80478571,33.8672857 L5.08478571,48.058 C4.7305,49.4058571 3.36621429,50.2315714 2.0055,49.918 C0.618357143,49.5965714 -0.2545,48.213 0.0662142857,46.8251429 L2.68764286,35.4094286 C2.7605,35.1051429 2.79621429,34.7872857 2.79621429,34.473 L2.79621429,21.3301429 C2.79621429,20.208 3.24692857,19.133 4.04835714,18.3437143 L5.30907143,17.1101429 C4.71407143,16.773 4.28692857,16.2094286 4.11621429,15.548 L0.962642857,13.0801429 C0.606214286,12.7994286 0.538357143,12.2794286 0.819785714,11.9187143 C1.10192857,11.5572857 1.62478571,11.4944286 1.98692857,11.7758571 L4.2105,13.5172857 Z M36.8569286,4.7435 C36.8569286,7.36135714 34.7305,9.48707143 32.1133571,9.48707143 C29.4912143,9.48707143 27.3697857,7.36492857 27.3697857,4.7435 C27.3697857,2.12207143 29.4912143,-7.14285716e-05 32.1133571,-7.14285716e-05 C34.7347857,-7.14285716e-05 36.8569286,2.12564286 36.8569286,4.7435 Z"/>
</svg>
