<svg xmlns="http://www.w3.org/2000/svg" width="71" height="70" viewBox="0 0 71 70">
  <g fill="currentColor" fill-rule="evenodd">
    <g transform="translate(2.718 9.788)">
      <path d="M37.5399126,41.8383204 C38.4934078,42.819 39.6745728,43.379 40.199233,43.5998738 C40.3786505,43.6753107 40.2889417,43.6895825 40.1856408,43.6753107 C38.7000097,43.4347282 37.1538932,42.5498738 36.0964175,41.8315243 C36.0413689,41.7968641 35.8476796,41.7139515 35.7443786,41.7139515 L35.1571942,41.7139515 C34.9709806,41.7139515 35.0538932,41.8315243 35.0885534,41.8940485 C35.4956408,42.6327864 35.8062233,43.0962816 36.2622427,43.5237573 C36.3104951,43.613466 36.9527282,44.0137573 37.2497184,44.0966699 C39.2110777,44.6220097 40.6341845,45.5129806 41.1656408,45.8854078 C41.3185534,45.9893883 41.2968058,46.0029806 41.118068,45.920068 C40.585932,45.6720097 39.3429223,45.1398738 37.6989417,44.8150194 C37.1878738,44.6770583 37.1117573,44.8150194 37.2707864,45.1813301 C37.843699,46.5140485 38.9487476,47.8127864 39.4530194,48.3585146 C39.6052524,48.5318155 39.5012718,48.4760874 39.3979709,48.3931748 C37.7268058,47.0883204 35.7103981,44.8632718 34.0521456,41.8729806 C33.9970971,41.7696796 33.9563204,41.7139515 33.8312718,41.7139515 L33.6586505,41.7139515 C33.5621456,41.7139515 33.528165,41.8036602 33.528165,41.8525922 C33.5132136,42.9155049 33.500301,43.7792913 33.5064175,44.0348252 C33.5206893,44.5730777 33.6654466,44.8503592 34.039233,45.1949223 C35.661466,46.6948252 36.8908835,49.2766699 37.2775825,50.1608447 C37.3672913,50.3538544 37.2843786,50.2852136 37.222534,50.1955049 C36.0135049,48.3374466 34.8534078,46.8660874 33.9420485,46.0376408 C33.7483592,45.8582233 33.4309806,45.7338544 33.3963204,46.5555049 C33.2787476,49.2080291 32.2634078,52.0324951 31.9317573,52.8888058 C31.8631165,53.0546311 31.8420485,53.0546311 31.8699126,52.8820097 C32.0703981,51.7633689 32.8573883,47.6265728 32.5536019,41.8383204 C32.5468058,41.7968641 32.4917573,41.7139515 32.429233,41.7139515 L32.2498155,41.7139515 C32.1533107,41.7139515 32.0846699,41.8247282 32.0629223,41.8804563 C31.5933107,43.0962816 31.2630194,43.7099709 30.9796214,44.4351165 C30.9245728,44.5798738 30.7995243,45.0787087 30.8063204,45.3063786 C30.8137961,46.3896796 30.6690388,48.7316214 29.6462233,51.383466 C29.6115631,51.4663786 29.555835,51.535699 29.5701068,51.3759903 C29.7291359,50.3477379 30.0601068,48.1580291 30.0118544,45.795699 C30.0050583,45.4708447 29.9153495,45.3614272 29.7637961,45.4776408 C28.7409806,46.1756019 27.3946699,47.4328835 26.5172913,48.4686117 C26.475835,48.5168641 26.421466,48.5447282 26.4894272,48.406767 C26.759233,47.846767 27.6427282,46.2517184 29.6598155,44.6906505 C29.860301,44.5390971 30.1226311,44.2285146 30.2476796,43.9457961 C30.481466,43.4129806 30.8199126,42.5702621 31.0271942,41.8804563 C31.0693301,41.7486117 31.0482621,41.7139515 30.8967087,41.7139515 L30.5990388,41.7139515 C30.4196214,41.7139515 30.3224369,41.8172524 30.2748641,41.8729806 C28.147,44.3732718 25.9722427,45.5544369 25.3089417,45.8786117 C25.1784563,45.9411359 25.1784563,45.920068 25.2946699,45.8235631 C25.730301,45.4851165 26.8421456,44.5798738 28.0504951,43.2886117 C28.168068,43.1642427 28.0504951,43.123466 27.8846699,43.123466 C26.5798155,43.1370583 25.170301,43.5237573 24.6945728,43.6685146 C24.659233,43.6827864 24.6320485,43.6827864 24.6177767,43.6827864 C24.6252524,43.6623981 24.6456408,43.6549223 24.6673883,43.6413301 C25.1363204,43.3647282 26.759233,42.5084175 28.2931165,42.5702621 C28.3957379,42.5770583 28.7756408,42.4744369 28.8721456,42.3561845 C29.0107864,42.1917184 29.1487476,42.0109417 29.2935049,41.8315243 C29.3213689,41.7968641 29.328165,41.7139515 29.2255437,41.7139515 L23.6235049,41.7139515 C24.5905922,40.4016214 29.3560291,39.2897767 31.7591359,38.7997767 C31.9467087,38.0603592 32.1601068,37.0382233 32.1601068,36.4653107 C32.2572913,33.916767 31.3241845,33.0951165 29.604767,31.4511359 C26.2835049,28.2603592 23.168165,26.4784175 21.475932,23.861233 C21.5520485,24.0617184 22.6149612,26.7135631 25.6541845,29.0065728 C25.6895243,29.0405534 25.6677767,29.0752136 25.6195243,29.0684175 C19.8666117,27.7424951 19.2379709,19.3717184 19.2379709,19.3717184 C21.2693301,21.423466 27.912534,22.5692913 27.5394272,28.350068 C27.5326311,28.4676408 27.553699,28.5505534 27.6637961,28.6402621 C28.7688447,29.5726893 29.8874854,30.4364757 30.8199126,31.1758932 C31.5661262,31.7698738 32.0629223,32.0933689 31.9188447,30.2706505 C31.0068058,20.4074466 27.7541845,16.367835 26.0408835,10.1099709 C26.0408835,10.1099709 26.3997184,15.7181262 29.3349612,21.2019126 C29.370301,21.3609417 29.2316602,21.3541456 29.175932,21.3126893 C19.2318544,15.6019126 25.4890388,0.206669903 25.4890388,0.206669903 C27.3253495,5.28268932 38.4444757,11.6370583 31.6422427,21.8652136 C31.5185534,22.065699 31.5110777,22.300165 31.5661262,22.4863786 C32.1872913,24.7454078 32.8709806,27.0791942 33.0993301,29.634534 C33.1822427,30.560165 33.3902039,30.9054078 33.8931165,29.8350194 C34.735835,28.0741456 35.2401068,27.1899709 35.8340874,26.0230777 C35.9720485,25.809 35.9516602,25.4562816 35.917,25.2014272 C34.1486505,16.6920097 43.5211748,15.5597767 46.0554466,12.6795825 C46.0554466,12.6795825 46.2491359,25.6499709 38.1889417,26.1746311 C38.0373883,26.2092913 37.9816602,26.1746311 38.0373883,26.043466 C39.0316602,24.5238544 42.1463204,20.3041456 42.7131165,18.8674466 C40.689233,21.7687087 37.712534,23.197932 34.1839903,32.1144369 C33.7007864,33.1916214 33.6790388,35.7680291 33.6586505,36.4653107 C33.6239903,37.5771553 33.6307864,37.8952136 33.5689417,38.6060874 C35.253699,38.9166699 41.6148641,40.1814272 42.7477767,41.7139515 L37.6228252,41.7139515 C37.3740874,41.7139515 37.4916602,41.7968641 37.5399126,41.8383204"/>
      <path d="M32.6465728,59.8055534 C18.2768641,59.8055534 5.20045631,50.785068 0.106087379,37.357301 L2.2482233,36.5431262 C7.00686408,49.0867184 19.2235631,57.5132233 32.6465728,57.5132233 C48.6038544,57.5132233 62.0853107,46.1140971 64.7004563,30.4055534 L66.9615243,30.7820583 C64.1615243,47.5997282 49.7299709,59.8055534 32.6465728,59.8055534"/>
    </g>
    <polygon points="0 49.262 8.78 46.709 2.18 40.383"/>
    <path d="M3.31045631,29.4 L1.04938835,29.0241748 C3.85006796,12.2065049 18.2816214,1.42108547e-14 35.3650194,1.42108547e-14 C49.7347282,1.42108547e-14 62.8104563,9.02252427 67.9048252,22.4482524 L65.7620097,23.2617476 C61.0033689,10.7195146 48.7880291,2.2923301 35.3650194,2.2923301 C19.4070583,2.2923301 5.92628155,13.6928155 3.31045631,29.4"/>
    <polygon points="61.949 22.886 68.549 29.211 70.729 20.332"/>
  </g>
</svg>
