<svg xmlns="http://www.w3.org/2000/svg" width="60" height="67" viewBox="0 0 60 67" xmlns:xlink="http://www.w3.org/1999/xlink">
  <g fill="none" fill-rule="evenodd">
    <mask id="b" fill="white">
      <polygon id="a" points="59.942 66.569 0 66.569 0 0 59.942 0"/>
    </mask>
    <path fill="currentColor" d="M49.7237368,35.3433158 L56.7832105,35.3433158 C57.1803158,35.3448947 57.5134737,35.6772632 57.5142632,36.0751579 L57.5142632,37.8159474 C57.5142632,38.052 57.4179474,38.1633158 57.1866316,38.1633158 L52.2737368,38.1633158 C51.2561053,38.1917368 50.4721579,38.8667368 50.2842632,39.8148947 C50.2574211,39.9475263 50.1658421,40.0912105 50.0071579,40.0580526 C49.9076842,40.0383158 49.8066316,40.0225263 49.7008421,40.0146316 C49.5555789,40.0027895 49.4411053,39.8598947 49.4182105,39.702 C49.3984737,39.5456842 49.1118947,36.0088421 49.1118947,36.0088421 C49.1087368,35.982 49.1071579,35.9796316 49.1071579,35.9496316 C49.1158421,35.5951579 49.3487368,35.3543684 49.7237368,35.3433158 M39.8174211,37.4109474 C41.2147895,37.1748947 42.6595263,37.0667368 44.1461053,37.0659474 C45.0800526,37.0651579 46.0282105,37.1117368 46.989,37.1891053 C47.4926842,37.2301579 47.7461053,37.4504211 47.8376842,38.3448947 C47.8503158,38.4506842 47.8874211,38.9038421 47.9426842,39.5725263 C47.9608421,39.7754211 47.9284737,39.9104211 47.7137368,39.9041053 C47.3821579,39.8922632 47.0545263,39.8843684 46.7371579,39.8843684 C45.1084737,39.8859474 43.5855789,40.0225263 42.1432105,40.2712105 C41.8242632,40.3280526 41.6592632,40.2025263 41.589,39.9514737 C41.1776842,38.9946316 40.2950526,38.2541053 39.7803158,37.7780526 C39.6713684,37.677 39.6942632,37.4330526 39.8174211,37.4109474 M7.71031579,0.000157894737 C7.86978947,6.27647368 12.0366316,10.3288421 15.2371579,14.3883158 C18.6105789,18.6656842 19.8761053,25.3035789 16.7521579,29.8762105 C16.5358421,30.1912105 16.5224211,30.3491053 16.6171579,30.6562105 C17.0205789,31.9564737 17.3355789,33.2385789 17.5661053,34.4188421 C17.6134737,34.662 17.7255789,34.8262105 18.0034737,34.7227895 C19.3716316,34.2127895 20.7603158,33.8614737 22.1537368,33.6601579 C22.3771579,33.6277895 22.4474211,33.4438421 22.4576842,33.2448947 C22.5082105,31.9501579 22.5816316,30.4864737 22.6803158,29.2880526 C22.8500526,27.4406842 24.1376842,23.3433158 26.1074211,19.7693684 C22.9692632,23.7814737 22.0763684,26.8588421 21.7724211,28.7212105 C21.7487368,28.8609474 21.5245263,28.9422632 21.4392632,28.8388421 C19.0218947,25.9272632 19.0818947,20.4143684 23.5913684,16.2712105 C28.764,11.5177895 28.4553158,9.39963158 28.4553158,9.39963158 C31.0258421,16.4701579 33.9879474,27.1691053 24.4329474,29.5154211 C24.1850526,29.5762105 24.0421579,29.7341053 23.9995263,29.9654211 C23.8305789,30.8796316 23.7634737,31.9106842 23.8858421,32.9993684 C23.9118947,33.2338421 24.0682105,33.4706842 24.3453158,33.4612105 C24.5742632,33.4525263 24.8008421,33.4477895 25.0282105,33.4477895 C30.7345263,33.4485789 36.2418947,35.8809474 40.0795263,40.1606842 C40.1616316,40.2514737 40.269,40.3943684 40.3732105,40.5491053 C40.509,40.7512105 40.3566316,40.9438421 40.0234737,41.0472632 C37.7576842,41.7483158 35.5447895,42.8172632 33.3058421,44.307 L32.0418947,45.1493684 C27.6137368,48.0996316 20.2005789,53.037 17.7824211,54.522 C16.1063684,55.5522632 15.3176842,57.3491053 15.7266316,59.1506842 C15.7597895,59.2975263 15.7132105,59.472 15.5032105,59.4759474 C13.794,59.5122632 11.3868947,59.5383158 10.8247895,59.5383158 C9.91057895,59.5564737 8.45242105,58.8901579 7.01557895,58.0604211 C6.42978947,57.7304211 5.84873684,57.3814737 5.28268421,57.0530526 C5.13268421,56.9677895 5.07821053,56.8777895 5.04742105,56.6812105 C4.89663158,55.6785789 4.81768421,54.6759474 4.81768421,53.6788421 C4.81768421,46.2964737 8.89294737,39.2598947 15.7653158,35.7183158 C16.044,35.5754211 16.1253158,35.3906842 16.0724211,35.0954211 C14.2503158,25.2443684 9.234,20.1459474 7.83505263,14.8817368 C7.99926316,19.8988421 11.5637368,24.0317368 13.0984737,29.5209474 C13.3676842,30.4809474 13.0732105,30.6325263 12.8608421,30.5654211 C-4.13021053,25.1693684 7.71031579,0.000157894737 7.71031579,0.000157894737 M11.6071579,36.3483158 C11.7066316,36.4896316 11.6821579,36.6048947 11.5716316,36.6917368 C11.3568947,36.8598947 11.1476842,37.0288421 10.9424211,37.2041053 C10.8263684,37.302 10.6779474,37.2404211 10.614,37.1354211 C6.174,29.9472632 0.523736842,27.9127895 0.523736842,27.9127895 C3.459,28.3217368 7.86584211,31.0722632 11.6071579,36.3483158 M3.46847368,55.8577895 C3.48031579,55.9730526 3.42821053,56.0741053 3.28136842,56.0093684 C3.14636842,55.9501579 3.01294737,55.8964737 2.88189474,55.8491053 C2.57873684,55.7433158 2.27163158,55.6817368 1.96768421,55.6651579 C1.84531579,55.6572632 1.77978947,55.5325263 1.79478947,55.4101579 C1.88242105,54.6585789 2.44136842,54.0293684 3.17005263,53.7751579 C3.30978947,53.7262105 3.35557895,53.8043684 3.35715789,53.9496316 C3.36505263,54.5898947 3.40294737,55.2254211 3.46847368,55.8577895 M50.2100526,54.4959474 C45.5655789,55.6612105 42.6453158,57.4675263 39.8363684,59.1546316 C34.8950526,62.1696316 30.1929474,66.5922632 27.0137368,66.5693684 C23.964,66.5693684 14.9229474,66.5654211 10.5871579,66.5654211 C10.5500526,66.5654211 10.5121579,66.567 10.4868947,66.567 L10.4466316,66.567 C9.30821053,66.5733158 7.62663158,65.7151579 6.09978947,64.647 C4.53189474,63.5725263 3.12584211,62.3622632 2.09557895,61.7638421 C0.421894737,60.7912105 0.00347368421,59.8154211 0.000315789474,59.0922632 C-0.000473684211,58.1133158 0.869526316,57.2867368 1.78215789,57.2859474 C1.96452632,57.2867368 2.14689474,57.3151579 2.33873684,57.3814737 C3.26478947,57.7043684 4.72452632,58.6256842 6.21031579,59.4735789 C7.71742105,60.3167368 9.26636842,61.1417368 10.8224211,61.1646316 C11.9016316,61.1646316 14.8384737,61.1464737 16.0605789,61.0880526 C16.0913684,61.0872632 16.1205789,61.0856842 16.1505789,61.0856842 C16.5342632,61.0967368 16.5421579,61.1756842 16.8453158,61.4551579 C17.5976842,62.1696316 18.5932105,62.592 19.6763684,62.592 C20.3418947,62.592 21.0129474,62.4325263 21.6642632,62.1230526 C21.9224211,62.0006842 22.194,61.8680526 22.4600526,61.7401579 C26.1161053,60.1264737 30.1479474,58.0754211 33.0374211,56.4909474 C33.3311053,56.3259474 33.5024211,56.0180526 33.5008421,55.7022632 C33.5024211,55.5585789 33.4676842,55.4101579 33.3926842,55.2759474 C33.2292632,54.9759474 32.9205789,54.8077895 32.6055789,54.8077895 C32.4595263,54.8077895 32.3118947,54.8425263 32.1776842,54.9191053 C29.1255789,56.5880526 24.5868947,58.9114737 20.9576842,60.6388421 C20.5021579,60.8535789 20.0726842,60.9451579 19.6724211,60.9475263 C18.1874211,60.9443684 17.1011053,59.6188421 17.1003158,58.2096316 C17.1026842,57.327 17.5211053,56.4230526 18.5561053,55.7851579 C21.2442632,54.1327895 29.8116316,48.4114737 34.1253158,45.5401579 C38.0403158,42.9356842 42.0374211,41.517 46.7387368,41.5106842 L46.7553158,41.4948947 L46.7553158,41.5106842 C47.6782105,41.5106842 48.6168947,41.5580526 49.5682105,41.6354211 C50.0055789,41.6938421 50.1468947,41.7633158 50.2661053,42.6435789 C50.3126842,43.1093684 50.9237368,50.4712105 51.1558421,53.3038421 C51.1605789,53.3804211 51.1645263,53.4506842 51.1645263,53.5146316 C51.1447895,54.2891053 50.8218947,54.3175263 50.2100526,54.4959474 M59.3774211,55.4725263 L53.7713684,55.4725263 C53.7666316,55.4725263 53.7618947,55.4717368 53.7579474,55.4717368 C53.754,55.4717368 53.7516316,55.4725263 53.7484737,55.4725263 C53.4516316,55.4843684 53.0797895,55.1330526 53.0797895,54.8441053 C53.0797895,54.8441053 51.8632105,40.2585789 51.8632105,40.2309474 C51.8829474,39.9538421 52.0171579,39.8077895 52.3195263,39.7896316 L59.3774211,39.7896316 C59.6774211,39.7880526 59.9418947,40.0533158 59.9418947,40.3564737 L59.9395263,54.9041053 C59.9395263,55.2096316 59.6774211,55.4717368 59.3774211,55.4725263" mask="url(#b)"/>
  </g>
</svg>
