<svg xmlns="http://www.w3.org/2000/svg" width="55" height="66" viewBox="0 0 55 66">
  <g fill="currentColor" fill-rule="evenodd">
    <g transform="translate(8.919 .485)">
      <path d="M35.906973 12.0881081L33.3695405 11.5425676C33.1064324 10.5585135 32.716973 9.62797297 32.2204865 8.76655405L33.6289324 6.58959459C33.7694054 6.33168919 33.7151486 5.95709459 33.5107568 5.75195946L30.9250135 3.16175676C30.7206216 2.95662162 30.346027 2.90756757 30.0873784 3.04952703L27.9104189 4.45574324C27.0482568 3.96445946 26.1184595 3.57054054 25.1344054 3.30743243L24.5888649.769256757C24.5115676.488310811 24.2090676.258648649 23.916973.258648649L20.2602162.258648649C19.9681216.258648649 19.6656216.492027027 19.5875811.769256757L19.0427838 3.30743243C18.0587297 3.57054054 17.1281892 3.96445946 16.2667703 4.45574324L14.0898108 3.04952703C13.8311622 2.90756757 13.4565676 2.95662162 13.2529189 3.16175676L10.6612297 5.75195946C10.4568378 5.95709459 10.4040676 6.33168919 10.549 6.58959459L11.9567027 8.76655405C11.4602162 9.62797297 11.0700135 10.5585135 10.8031892 11.5425676L8.27021622 12.0881081C7.98852703 12.1654054 7.75886486 12.4679054 7.75886486 12.7592568L7.75886486 16.4175C7.75886486 16.7095946 7.98852703 17.0113514 8.27021622 17.0893919L10.8031892 17.6349324C11.0700135 18.6189865 11.4602162 19.5487838 11.9567027 20.4109459L10.549 22.5879054C10.4040676 22.8406081 10.4568378 23.2211486 10.6612297 23.4255405L13.2529189 26.0105405C13.4565676 26.2156757 13.8311622 26.2691892 14.0898108 26.127973L16.2667703 24.7158108C17.1281892 25.2122973 18.0587297 25.6062162 19.0427838 25.8700676L19.5875811 28.4075C19.6656216 28.6847297 19.9681216 28.9136486 20.2602162 28.9136486L23.916973 28.9136486C24.2090676 28.9136486 24.5115676 28.6847297 24.5888649 28.4075L25.1344054 25.8700676C26.1184595 25.6062162 27.0482568 25.2122973 27.9104189 24.7158108L30.0873784 26.127973C30.346027 26.2691892 30.7206216 26.2156757 30.9250135 26.0105405L33.5107568 23.4255405C33.7210946 23.2211486 33.7694054 22.8406081 33.6289324 22.5879054L32.2204865 20.4109459C32.716973 19.5487838 33.1064324 18.6189865 33.3695405 17.6349324L35.906973 17.0893919C36.1894054 17.0113514 36.4183243 16.7095946 36.4183243 16.4175L36.4183243 12.7592568C36.4183243 12.4679054 36.1894054 12.1654054 35.906973 12.0881081M22.0908243 21.2337162C18.4199459 21.2337162 15.4432568 18.2585135 15.4432568 14.5854054 15.4432568 10.914527 18.4199459 7.93858108 22.0908243 7.93858108 25.7579865 7.93858108 28.7339324 10.914527 28.7339324 14.5854054 28.7339324 18.2585135 25.7579865 21.2337162 22.0908243 21.2337162M.719756757 44.7523851L11.0560405 54.862723 16.5545541 49.2519797C16.5545541 49.2519797 32.5536081 49.71725 34.0891486 49.2519797 34.9966486 48.7621824 45.2504324 35.9048176 45.5782027 34.4599527 45.6956351 33.7144797 45.4622568 33.6215743 45.1129324 33.1563041 44.7643514 32.6910338 44.0664459 32.3186689 43.2518514 32.4108311 42.438 32.5037365 42.0202973 32.7831959 41.5312432 33.0619122 41.0421892 33.3413716 32.1121216 42.4773176 31.3458378 43.1061014 30.5996216 43.4561689 21.9980676 43.1759662 21.3915811 43.059277 20.7865811 42.9418446 20.4855676 42.6556959 20.3346892 42.0328581 20.1815811 41.4100203 20.325027 40.3791419 20.5539459 40.1294122 20.7865811 39.8796824 20.6698919 39.7563041 21.2518514 39.4798176 21.8338108 39.1981284 30.4829324 39.6641419 31.2492162 39.4798176 32.0147568 39.29475 32.2971892 39.0829257 32.6457703 38.4563716 32.9950946 37.8275878 32.9705676 36.5023851 32.5974595 35.9456959 32.3886081 35.5042095 31.8311757 35.1318446 31.2492162 34.9668446 30.668 34.8025878 12.900027 34.5944797 10.4599595 35.3399527 7.92847297 36.0683311.719756757 44.7523851.719756757 44.7523851"/>
    </g>
    <polygon points="0 50.975 14.206 65.147 20.683 58.657 6.478 44.485"/>
  </g>
</svg>
