<svg xmlns="http://www.w3.org/2000/svg" width="70" height="38" viewBox="0 0 70 38">
  <g fill="currentColor" fill-rule="evenodd">
    <path d="M65.49214,22.13624 C70.53004,23.61324 69.66764,27.27424 69.65224,29.72494 L57.07954,29.72494 C56.62664,28.24164 55.51154,26.85494 52.84314,26.07654 L51.99754,25.82454 C48.46604,24.79974 46.57884,24.24534 46.08604,23.13164 C45.96354,22.72914 46.00274,22.28674 47.17804,21.85554 C50.96224,20.75304 52.87744,20.17554 53.32964,18.76014 L53.57114,18.76014 C53.50254,18.70414 53.44094,18.64814 53.38494,18.58094 C51.51524,16.77844 50.08794,13.26374 50.08794,10.42594 C50.08794,6.41214 53.16164,3.77034 56.07224,3.77034 C58.97654,3.77034 61.90394,6.62004 61.90394,10.63804 C61.90394,13.47724 60.31494,16.88554 58.36754,18.62504 C58.76514,20.27144 60.95334,20.80904 65.49214,22.13624"/>
    <path d="M54.85886,37.1217 L15.79466,37.1217 C15.77156,36.729 15.74426,36.3377 15.70016,35.8792 C15.57626,34.335 15.45866,32.7502 15.88916,31.2956 C16.41626,29.5932 17.78756,28.0931 20.95086,27.1698 L22.17586,26.7771 C27.73946,25.1881 30.71726,24.2928 31.70286,22.1935 L32.01506,21.6678 L31.99336,21.0014 C31.92056,20.9566 31.87576,20.9111 31.77426,20.7935 C31.43896,20.447 31.10366,20.1061 30.79006,19.6917 C28.62916,16.9491 27.09616,12.712 27.09616,9.2127 C27.09616,4.7404 30.40856,0 35.35126,0 C39.21386,0 43.36696,3.8234 43.36696,9.5319 C43.36696,13.1705 41.46926,17.6827 38.87716,20.335 C38.71056,20.5198 38.51946,20.6815 38.35146,20.8453 L38.03856,21.1246 L38.13376,21.5383 C38.80576,24.164 41.82766,25.0593 47.90156,26.789 L49.14826,27.1803 C52.29546,28.1043 53.77876,29.6219 54.42766,31.3054 L54.45076,31.3054 C55.04926,32.9406 54.97646,34.7144 54.90366,36.3706 C54.88056,36.6114 54.88056,36.8865 54.85886,37.1217"/>
    <path d="M4.22576,18.61454 C-0.81704,20.09154 0.04956,23.75254 0.06706,26.20324 L12.63836,26.20324 C13.09266,24.71994 14.20636,23.33324 16.88036,22.55484 L17.72036,22.30284 C21.25256,21.27804 23.14396,20.72364 23.63676,19.60994 C23.50306,19.16754 23.74946,18.50674 22.53916,18.33384 C18.76266,17.23134 16.84186,16.65384 16.39386,15.23844 L16.15936,15.23844 C16.22096,15.18244 16.28746,15.12644 16.34416,15.05924 C18.21316,13.25674 19.64046,9.74204 19.64046,6.90424 C19.64046,2.89044 16.56886,0.24864 13.65756,0.24864 C10.74626,0.24864 7.82516,3.09834 7.82516,7.11634 C7.82516,9.95554 9.40786,13.36384 11.35736,15.10334 C10.95416,16.74974 8.75966,17.28734 4.22576,18.61454" transform="translate(0 3.522)"/>
  </g>
</svg>
