<?xml version="1.0" encoding="UTF-8" standalone="no"?>
<svg width="60px" height="50px" viewBox="0 0 60 50" version="1.1" xmlns="http://www.w3.org/2000/svg" xmlns:xlink="http://www.w3.org/1999/xlink">
    <!-- Generator: Sketch 46.2 (44496) - http://www.bohemiancoding.com/sketch -->
    <title>Group 6</title>
    <desc>Created with Sketch.</desc>
    <defs></defs>
    <g id="Desktop/Mobile" stroke="none" stroke-width="1" fill="none" fill-rule="evenodd">
        <g id="Framework-Page" transform="translate(-961.000000, -2551.000000)" fill="currentColor">
            <g id="intervention-pathways" transform="translate(-66.000000, 2025.000000)">
                <g id="HOVER" transform="translate(328.000000, 363.000000)">
                    <g id="Blue" transform="translate(375.000000, 0.000000)">
                        <g id="labor-conditions" transform="translate(292.000000, 125.000000)">
                            <g id="Group-6" transform="translate(32.000000, 38.000000)">
                                <path d="M14.9833571,7.64657143 L10.5212143,7.64657143 L9.3555,13.1601429 L14.9833571,7.64657143 Z M17.6797857,24.078 L21.0155,18.0337143 L14.0440714,21.2265714 L17.6797857,24.078 Z M4.2105,13.5287143 L6.35335714,3.26014286 C6.51192857,2.48657143 7.19835714,1.93157143 7.98692857,1.93157143 L21.7290714,1.93157143 C22.2805,1.93157143 22.7890714,2.19728571 23.1019286,2.64514286 L29.5440714,11.8787143 C29.9119286,12.4094286 29.9433571,13.108 29.6226429,13.6672857 L21.8012143,27.3108571 L37.5705,39.673 C37.7455,39.673 37.9197857,39.6815714 38.0912143,39.6965714 C38.6733571,38.4165714 39.7676429,37.4365714 41.1076429,36.988 C43.7776429,36.0994286 46.6576429,37.543 47.5447857,40.2087143 C48.4297857,39.8794286 49.4019286,39.8794286 50.2855,40.2001429 C52.3483571,40.9544286 53.4033571,43.2351429 52.6490714,45.293 C53.6540714,45.448 54.4819286,46.1651429 54.7712143,47.1372857 C56.8305,46.6772857 58.8762143,47.9458571 59.3755,49.9972857 L22.3090714,49.9972857 C23.5983571,47.6337143 26.3590714,46.4872857 28.9440714,47.2365714 C28.8690714,46.8601429 28.8690714,46.4751429 28.9440714,46.0944286 C29.2569286,44.4758571 30.8283571,43.4251429 32.4462143,43.743 C32.8269286,42.1244286 33.9455,40.7837143 35.4647857,40.113 L20.9726429,28.7587143 L20.5676429,29.468 L21.6626429,30.6337143 C22.8919286,31.9465714 23.1505,33.898 22.2926429,35.4851429 L15.1855,48.6444286 C14.5433571,49.8344286 13.0912143,50.3258571 11.8540714,49.7744286 C10.5569286,49.1922857 9.96978571,47.6608571 10.5569286,46.3601429 L16.3397857,33.4665714 L8.94192857,24.7365714 L8.94192857,32.8194286 C8.94192857,33.1758571 8.89621429,33.5294286 8.80478571,33.8787143 L5.08478571,48.0694286 C4.7305,49.4172857 3.36621429,50.243 2.0055,49.9294286 C0.618357143,49.608 -0.2545,48.2244286 0.0662142857,46.8365714 L2.68764286,35.4208571 C2.7605,35.1165714 2.79621429,34.7987143 2.79621429,34.4844286 L2.79621429,21.3415714 C2.79621429,20.2194286 3.24692857,19.1444286 4.04835714,18.3551429 L5.30907143,17.1215714 C4.71407143,16.7844286 4.28692857,16.2208571 4.11621429,15.5594286 L0.962642857,13.0915714 C0.606214286,12.8108571 0.538357143,12.2908571 0.819785714,11.9301429 C1.10192857,11.5687143 1.62478571,11.5058571 1.98692857,11.7872857 L4.2105,13.5287143 Z" id="Fill-4"></path>
                                <path d="M36.8569286,4.75492857 C36.8569286,2.13707143 34.7347857,0.0113571429 32.1133571,0.0113571429 C29.4912143,0.0113571429 27.3697857,2.1335 27.3697857,4.75492857 C27.3697857,7.37635714 29.4912143,9.4985 32.1133571,9.4985 C34.7305,9.4985 36.8569286,7.37278571 36.8569286,4.75492857" id="Fill-1"></path>
                            </g>
                        </g>
                    </g>
                </g>
            </g>
        </g>
    </g>
</svg>