<?xml version="1.0" encoding="UTF-8" standalone="no"?>
<svg width="60px" height="60px" viewBox="0 0 60 60" version="1.1" xmlns="http://www.w3.org/2000/svg" xmlns:xlink="http://www.w3.org/1999/xlink">
    <!-- Generator: Sketch 46.2 (44496) - http://www.bohemiancoding.com/sketch -->
    <title>Page 1</title>
    <desc>Created with Sketch.</desc>
    <defs></defs>
    <g id="Desktop/Mobile" stroke="none" stroke-width="1" fill="none" fill-rule="evenodd">
        <g id="Framework-Page" transform="translate(-368.000000, -2561.000000)" fill="currentColor">
            <g id="intervention-pathways" transform="translate(-66.000000, 2025.000000)">
                <g id="OUTLINES" transform="translate(328.000000, 363.000000)">
                    <g id="Orange" transform="translate(0.000000, 32.000000)">
                        <g id="producer-country-policy" transform="translate(73.000000, 108.000000)">
                            <g id="Page-1" transform="translate(33.000000, 33.000000)">
                                <path d="M29.87416,42.2036 C27.13576,42.2036 24.65816,41.0164 22.51336,38.678 C22.29976,38.4444 22.31336,38.0844 22.54696,37.8716 C22.78136,37.658 23.14136,37.6748 23.35336,37.9052 C25.27416,39.9988 27.46696,41.0604 29.87176,41.0604 C32.62456,41.0604 34.90776,39.2508 36.33976,37.7316 C36.55496,37.5036 36.91736,37.4924 37.14616,37.7084 C37.37736,37.9236 37.38536,38.2868 37.16936,38.518 C34.89896,40.9284 32.37816,42.2036 29.87416,42.2036" id="Fill-1"></path>
                                <path d="M41.14128,40.64264 L41.14128,51.17624 C41.14128,51.49944 40.88848,51.75304 40.56448,51.75304 L19.49728,51.75304 C19.18768,51.75304 18.93488,51.49944 18.93488,51.17624 L18.93488,40.89464 C18.93488,40.57224 19.18768,40.31944 19.49728,40.31944 C19.82048,40.31944 20.07408,40.57224 20.07408,40.89464 L20.07408,50.61384 L40.00208,50.61384 L40.00208,40.64264 C40.00208,40.33304 40.25488,40.08024 40.56448,40.08024 C40.88848,40.08024 41.14128,40.33304 41.14128,40.64264" id="Fill-3"></path>
                                <path d="M14.9968,43.06144 L14.9968,51.17584 C14.9968,51.49984 14.744,51.75344 14.42,51.75344 L11.6072,51.75344 L11.6072,57.95504 C11.5936,58.27824 11.34,58.53184 11.0304,58.53184 C10.7072,58.53184 10.4544,58.27824 10.4544,57.95504 L10.4544,51.17584 C10.4544,50.86704 10.7072,50.61344 11.0304,50.61344 L13.8432,50.61344 L13.8432,43.06144 C13.8432,42.75184 14.0968,42.49904 14.42,42.49904 C14.7296,42.49904 14.9968,42.75184 14.9968,43.06144" id="Fill-5"></path>
                                <path d="M49.36864,51.17624 L49.36864,57.95544 C49.36864,58.27864 49.11584,58.53064 48.80624,58.53064 C48.48224,58.53064 48.22944,58.27864 48.22944,57.95544 L48.22944,51.75304 L45.65504,51.75304 C45.33264,51.75304 45.07904,51.49864 45.07904,51.17624 L45.07904,42.82264 C45.07904,42.51304 45.33264,42.24584 45.65504,42.24584 C45.96544,42.24584 46.21824,42.51304 46.21824,42.82264 L46.21824,50.60024 L48.80624,50.60024 C49.11584,50.60024 49.36864,50.86584 49.36864,51.17624" id="Fill-7"></path>
                                <path d="M38.7788,39.18016 C38.7788,39.62976 38.7228,40.08016 38.6244,40.50176 C37.9916,43.32896 35.4172,45.45296 32.3236,45.45296 L27.2468,45.45296 C24.082,45.45296 21.5932,43.48336 21.0444,40.71296 C20.9604,40.31936 20.918,39.92576 20.918,39.50336 C20.918,39.19456 21.17,38.94016 21.4948,38.94016 C21.8028,38.94016 22.07,39.19456 22.07,39.50336 C22.07,39.75696 22.0852,39.99616 22.1276,40.23376 C22.4788,42.61216 24.5604,44.31376 27.2468,44.31376 L32.3236,44.31376 C34.9388,44.31376 37.1196,42.45696 37.5412,40.03776 C37.5964,39.75696 37.6252,39.47456 37.6252,39.18016 C37.6252,38.85696 37.8788,38.60256 38.2012,38.60256 C38.5116,38.60256 38.7788,38.85696 38.7788,39.18016" id="Fill-9"></path>
                                <path d="M15.41864,18.19656 C15.43304,18.19656 16.31864,18.25256 17.73944,18.33816 L17.73944,18.46376 C17.76824,18.89976 17.50024,19.29336 17.12024,19.44776 C16.00904,19.37896 15.34824,19.33576 15.33544,19.33576 C15.02504,19.30856 14.78584,19.04056 14.81384,18.71656 C14.82824,18.40856 15.10904,18.16856 15.41864,18.19656" id="Fill-11"></path>
                                <path d="M44.03816,18.7036 C44.06616,19.026 43.84136,19.3084 43.51896,19.3364 C43.50376,19.3364 43.32136,19.3508 42.96936,19.3788 C42.65976,19.21 42.46296,18.8724 42.47736,18.4916 L42.47736,18.2676 C43.06776,18.2244 43.40536,18.1964 43.42056,18.1964 C43.72856,18.1692 44.01016,18.3932 44.03816,18.7036" id="Fill-13"></path>
                                <path d="M42.92728,23.0208 C42.95528,23.3304 42.71608,23.5976 42.39288,23.6256 C42.14008,23.6384 41.88648,23.6536 41.64728,23.668 C37.25928,23.9352 33.36408,24.0744 30.03048,24.0744 C26.68328,24.0744 22.74568,23.9488 18.28728,23.696 C18.06248,23.6816 17.83768,23.668 17.61288,23.6536 C17.30328,23.6384 17.06408,23.3712 17.07848,23.0488 C17.09208,22.7384 17.37368,22.5008 17.68248,22.5144 C17.79528,22.5144 17.90888,22.5288 18.00648,22.5288 C22.56328,22.796 26.61368,22.9224 30.03048,22.9224 C33.39208,22.9224 37.38648,22.796 41.84408,22.5144 C41.99928,22.5008 42.15368,22.5008 42.32248,22.4864 C42.64568,22.4712 42.91288,22.6976 42.92728,23.0208" id="Fill-15"></path>
                                <path d="M56.54128,46.0716 C56.45728,46.0004 56.37248,45.9452 56.27408,45.902 L38.42608,38.2228 C40.45248,35.734 41.84448,32.8092 42.42128,30.6716 C43.92528,29.6588 44.26288,26.7332 44.22128,25.1868 C44.20768,24.7788 44.16448,24.4132 44.10928,24.0892 L57.13088,22.81 C57.62448,22.7668 58.00288,22.3588 58.03088,21.882 C58.07408,21.3884 57.75088,20.9396 57.27248,20.826 L44.47488,17.7188 C44.39008,15.426 43.79888,8.9004 39.62288,4.6244 C37.14768,2.0804 33.85648,0.7996 29.84848,0.7996 C25.84048,0.7996 22.57728,2.0804 20.17248,4.6244 C16.13568,8.8876 15.71408,15.3692 15.69968,17.7052 L1.60848,20.826 C1.11648,20.9244 0.77888,21.3756 0.80688,21.8668 C0.84928,22.3588 1.22768,22.7668 1.72048,22.81 L15.85488,24.174 C15.78448,24.5956 15.75648,25.074 15.77008,25.6372 C15.79808,27.522 16.30528,29.8268 17.59808,30.6988 C18.00688,32.2044 19.07568,35.51 21.29648,38.3924 L3.80128,45.9452 C3.69008,46.0004 3.59088,46.0564 3.50688,46.1548 C2.25568,47.3644 0.65168,55.0156 0.01888,58.2508 C-0.03792,58.546 0.03248,58.8548 0.22928,59.0804 C0.41328,59.3196 0.70848,59.4596 1.00288,59.4596 L58.58048,59.4596 C58.86128,59.4596 59.14288,59.3324 59.33968,59.1084 C59.53648,58.8836 59.62128,58.6012 59.57888,58.3068 C59.01648,54.2428 57.87728,47.2524 56.54128,46.0716 L56.54128,46.0716 Z M2.24128,57.4348 C3.11328,53.1884 4.25248,48.658 4.82768,47.702 L13.84368,43.8068 L14.99648,43.3148 L18.93408,41.6132 L20.07408,41.1212 L21.04448,40.7132 L22.12688,40.234 L23.33568,39.7148 C23.39248,39.6868 23.43408,39.658 23.47728,39.6292 C23.71648,39.4884 23.87008,39.2636 23.92688,38.9964 C23.96928,38.7996 23.95568,38.6028 23.88528,38.434 C23.84288,38.3084 23.77248,38.1948 23.68848,38.0964 C20.87568,35.0452 19.73568,30.9532 19.45488,29.7716 C19.37008,29.4204 19.10288,29.1388 18.75168,29.0404 C18.69488,29.0252 18.48448,28.8436 18.25888,28.2804 C17.69648,26.874 17.71168,24.7372 17.93568,24.1308 C18.09088,24.0196 18.21728,23.8644 18.28768,23.6956 C18.35808,23.5412 18.38608,23.3724 18.37248,23.2044 C18.34448,22.9356 18.20288,22.6964 18.00688,22.5284 C17.85168,22.4012 17.66848,22.318 17.45808,22.3028 L8.28848,21.418 L16.95168,19.5052 C17.00848,19.49 17.06368,19.4772 17.12048,19.4484 C17.49968,19.2932 17.76688,18.8996 17.73968,18.4636 L17.73968,18.338 C17.71168,17.2964 17.68288,10.2092 21.64928,6.018 C23.65968,3.894 26.41648,2.8116 29.84848,2.8116 C33.29328,2.8116 36.09168,3.894 38.17408,6.0308 C42.18208,10.1388 42.46288,16.946 42.47728,18.2668 L42.47728,18.4916 C42.46288,18.8724 42.65968,19.21 42.96928,19.3788 C43.05408,19.4484 43.13888,19.4772 43.23648,19.5052 L51.01408,21.3884 L42.46288,22.2324 C42.22448,22.2476 42.01328,22.3588 41.84448,22.5148 C41.67568,22.6964 41.56288,22.922 41.54928,23.1756 C41.53488,23.3444 41.57728,23.5268 41.64768,23.6668 C41.73168,23.8508 41.85808,24.0052 42.04128,24.1028 C42.26608,24.6804 42.30848,26.6492 41.80208,28.0972 C41.57728,28.7732 41.33808,28.9836 41.26768,29.0124 C40.91648,29.1108 40.64928,29.3908 40.56448,29.7564 C40.08688,31.8812 38.45568,35.3404 36.02208,37.9148 C35.92368,38.0132 35.83968,38.1396 35.79648,38.2804 C35.74128,38.4492 35.72608,38.6308 35.76848,38.8148 C35.82448,39.0812 35.99328,39.3212 36.21888,39.4476 C36.26048,39.4884 36.31728,39.518 36.35888,39.5308 L37.54128,40.038 L38.62448,40.502 L40.00128,41.0924 L41.14128,41.5852 L45.07968,43.2868 L46.21888,43.7788 L55.24768,47.6596 C55.83808,48.63 56.78048,53.1884 57.41328,57.4348 L2.24128,57.4348 Z" id="Fill-17"></path>
                                <path d="M49.36864,57.43488 L49.36864,51.17648 C49.36864,50.86688 49.11584,50.59968 48.80624,50.59968 L46.21824,50.59968 L46.21824,43.77888 L55.24704,47.66048 C55.83824,48.63088 56.77984,53.18768 57.41344,57.43488 L49.36864,57.43488 Z" id="Fill-20"></path>
                                <path d="M13.84368,43.80672 L13.84368,50.61392 L11.03088,50.61392 C10.70768,50.61392 10.45408,50.86672 10.45408,51.17632 L10.45408,57.43472 L2.24128,57.43472 C3.11328,53.18832 4.25248,48.65872 4.82768,47.70272 L13.84368,43.80672 Z" id="Fill-22"></path>
                                <path d="M40.00224,41.09264 L40.00224,50.61424 L20.07424,50.61424 L20.07424,41.12064 L21.04464,40.71184 C21.59184,43.48384 24.08224,45.45264 27.24624,45.45264 L32.32304,45.45264 C35.41744,45.45264 37.99024,43.32864 38.62304,40.50224 L40.00224,41.09264 Z" id="Fill-24"></path>
                                <path d="M51.014,21.38952 L42.4636,22.23352 C42.2244,22.24712 42.0132,22.35992 41.8444,22.51352 C37.386,22.79592 33.3924,22.92312 30.0308,22.92312 C26.6132,22.92312 22.5636,22.79592 18.006,22.52872 C17.8516,22.40232 17.6692,22.31672 17.458,22.30392 L8.2884,21.41672 L16.9516,19.50472 C17.0076,19.49112 17.0644,19.47592 17.1204,19.44792 C17.5004,19.29432 17.7676,18.89992 17.7388,18.46472 L17.7388,18.33752 C17.7108,17.29752 17.6828,10.20792 21.6492,6.01752 C23.6596,3.89432 26.4164,2.81032 29.8484,2.81032 C33.2948,2.81032 36.0924,3.89432 38.174,6.03192 C42.182,10.13832 42.4636,16.94472 42.4772,18.26712 L42.4772,18.49272 C42.4636,18.87192 42.6604,19.20872 42.9692,19.37752 C43.054,19.44792 43.138,19.47592 43.2364,19.50472 L51.014,21.38952 Z" id="Fill-26"></path>
                                <path d="M17.20304,53.72936 C16.76144,53.72936 16.40144,54.08856 16.40144,54.53016 C16.40144,54.97176 16.76144,55.33176 17.20304,55.33176 C17.64464,55.33176 18.00464,54.97176 18.00464,54.53016 C18.00464,54.08856 17.64464,53.72936 17.20304,53.72936 M17.20304,56.47496 C16.13104,56.47496 15.25824,55.60216 15.25824,54.53016 C15.25824,53.45816 16.13104,52.58536 17.20304,52.58536 C18.27504,52.58536 19.14704,53.45816 19.14704,54.53016 C19.14704,55.60216 18.27504,56.47496 17.20304,56.47496" id="Fill-28"></path>
                                <path d="M43.11008,53.72936 C42.66768,53.72936 42.31168,54.08856 42.31168,54.53016 C42.31168,54.97176 42.67088,55.33176 43.11008,55.33176 C43.55168,55.33176 43.91168,54.97176 43.91168,54.53016 C43.91168,54.08856 43.55168,53.72936 43.11008,53.72936 M43.11008,56.47496 C42.03728,56.47496 41.16528,55.60216 41.16528,54.53016 C41.16528,53.45816 42.03728,52.58536 43.11008,52.58536 C44.18208,52.58536 45.05408,53.45816 45.05408,54.53016 C45.05408,55.60216 44.18208,56.47496 43.11008,56.47496" id="Fill-30"></path>
                            </g>
                        </g>
                    </g>
                </g>
            </g>
        </g>
    </g>
</svg>