<?xml version="1.0" encoding="UTF-8" standalone="no"?>
<svg width="80px" height="79px" viewBox="0 0 80 79" version="1.1" xmlns="http://www.w3.org/2000/svg" xmlns:xlink="http://www.w3.org/1999/xlink">
    <!-- Generator: Sketch 46.2 (44496) - http://www.bohemiancoding.com/sketch -->
    <title>Page 1</title>
    <desc>Created with Sketch.</desc>
    <g id="Desktop/Mobile" stroke="none" stroke-width="1" fill="none" fill-rule="evenodd">
        <g id="Framework-Page" transform="translate(-345.000000, -2995.000000)">
            <g id="intervention-pathways" transform="translate(-66.000000, 2025.000000)">
                <g id="OUTLINES" transform="translate(328.000000, 363.000000)">
                    <g id="Orange" transform="translate(0.000000, 32.000000)">
                        <g id="renovation" transform="translate(60.000000, 552.000000)">
                            <g id="Page-1" transform="translate(23.000000, 23.000000)">
                                <path d="M45.133181,57.8781714 C46.2021333,58.9776 47.5263238,59.6054095 48.1145143,59.8530286 C48.3156571,59.9376 48.2150857,59.9536 48.0992762,59.9376 C46.4337524,59.6678857 44.700419,58.6758857 43.5148952,57.8705524 C43.453181,57.8316952 43.2360381,57.7387429 43.1202286,57.7387429 L42.4619429,57.7387429 C42.253181,57.7387429 42.3461333,57.8705524 42.3849905,57.9406476 C42.8413714,58.7688381 43.1895619,59.2884571 43.7008,59.7676952 C43.7548952,59.8682667 44.4748952,60.3170286 44.8078476,60.409981 C47.0067048,60.9989333 48.6021333,61.9977905 49.1979429,62.4153143 C49.3693714,62.5318857 49.3449905,62.5471238 49.1446095,62.4541714 C48.5480381,62.1760762 47.1545143,61.5795048 45.3114667,61.2153143 C44.7385143,61.0606476 44.653181,61.2153143 44.8314667,61.625981 C45.4737524,63.1200762 46.7126095,64.5760762 47.2779429,65.1878857 C47.4486095,65.3821714 47.3320381,65.3196952 47.2162286,65.2267429 C45.3427048,63.7638857 43.0821333,61.2694095 41.2230857,57.9170286 C41.1613714,57.801219 41.1156571,57.7387429 40.9754667,57.7387429 L40.7819429,57.7387429 C40.6737524,57.7387429 40.6356571,57.8393143 40.6356571,57.8941714 C40.6188952,59.0857905 40.604419,60.0541714 40.6112762,60.3406476 C40.6272762,60.9440762 40.7895619,61.2549333 41.2086095,61.641219 C43.0272762,63.3227429 44.4055619,66.217219 44.8390857,67.2084571 C44.9396571,67.4248381 44.8467048,67.3478857 44.7773714,67.2473143 C43.4219429,65.1642667 42.1213714,63.5147429 41.0996571,62.585981 C40.8825143,62.3848381 40.5267048,62.2454095 40.4878476,63.1665524 C40.3560381,66.1402667 39.2177524,69.3067429 38.8459429,70.2667429 C38.7689905,70.4526476 38.7453714,70.4526476 38.7766095,70.2591238 C39.0013714,69.0050286 39.8836571,64.3673143 39.5430857,57.8781714 C39.5354667,57.8316952 39.4737524,57.7387429 39.4036571,57.7387429 L39.2025143,57.7387429 C39.0943238,57.7387429 39.0173714,57.8629333 38.9929905,57.9254095 C38.4665143,59.2884571 38.0962286,59.9764571 37.7785143,60.7894095 C37.7168,60.9516952 37.5766095,61.5109333 37.5842286,61.7661714 C37.5926095,62.9806476 37.4303238,65.6061714 36.2836571,68.5791238 C36.2448,68.6720762 36.1823238,68.7497905 36.1983238,68.5707429 C36.3766095,67.417981 36.7476571,64.9631238 36.6935619,62.3147429 C36.6859429,61.9505524 36.5853714,61.8278857 36.4154667,61.9581714 C35.2688,62.7406476 33.7594667,64.1501714 32.7758476,65.3113143 C32.7293714,65.3654095 32.668419,65.3966476 32.7446095,65.241981 C33.0470857,64.6141714 34.0375619,62.825981 36.2988952,61.0758857 C36.5236571,60.905981 36.8177524,60.5577905 36.9579429,60.2408381 C37.2200381,59.6435048 37.5994667,58.6987429 37.8318476,57.9254095 C37.8790857,57.7776 37.8554667,57.7387429 37.6855619,57.7387429 L37.3518476,57.7387429 C37.1507048,57.7387429 37.0417524,57.8545524 36.988419,57.9170286 C34.6028952,60.7200762 32.1648,62.0442667 31.421181,62.4076952 C31.2748952,62.4777905 31.2748952,62.4541714 31.405181,62.345981 C31.8935619,61.9665524 33.1400381,60.9516952 34.4947048,59.5040762 C34.6265143,59.3646476 34.4947048,59.3189333 34.3088,59.3189333 C32.8459429,59.3341714 31.2657524,59.7676952 30.732419,59.929981 C30.6928,59.945981 30.6623238,59.945981 30.6463238,59.945981 C30.6547048,59.9231238 30.6775619,59.9147429 30.7019429,59.8995048 C31.2276571,59.5894095 33.0470857,58.6294095 34.7667048,58.6987429 C34.8817524,58.7063619 35.3076571,58.5913143 35.4158476,58.4587429 C35.5712762,58.2743619 35.7259429,58.0716952 35.8882286,57.8705524 C35.9194667,57.8316952 35.9270857,57.7387429 35.8120381,57.7387429 L29.5316571,57.7387429 C30.6158476,56.2675048 35.9583238,55.0210286 38.652419,54.4716952 C38.8627048,53.6427429 39.1019429,52.4968381 39.1019429,51.8545524 C39.2108952,48.9974095 38.1648,48.0762667 36.237181,46.233219 C32.5137524,42.6560762 29.021181,40.6583619 27.1240381,37.7242667 C27.2093714,37.9490286 28.4009905,40.921981 31.8082286,43.4926476 C31.8478476,43.5307429 31.8234667,43.5696 31.7693714,43.561981 C25.3198476,42.0755048 24.6150857,32.6911238 24.6150857,32.6911238 C26.892419,34.9913143 34.3400381,36.2758857 33.9217524,42.7566476 C33.9141333,42.8884571 33.9377524,42.9814095 34.061181,43.081981 C35.3000381,44.1273143 36.5541333,45.0956952 37.5994667,45.9246476 C38.4360381,46.5905524 38.9929905,46.953219 38.8314667,44.9097905 C37.8089905,33.8522667 34.1625143,29.3235048 32.2417524,22.3078857 C32.2417524,22.3078857 32.6440381,28.5951238 35.9347048,34.7429333 C35.9743238,34.921219 35.8188952,34.9136 35.756419,34.8671238 C24.6082286,28.4648381 31.6230857,11.2054095 31.6230857,11.2054095 C33.6817524,16.8960762 46.1472762,24.0198857 38.5213714,35.4865524 C38.3827048,35.7113143 38.3743238,35.9741714 38.4360381,36.1829333 C39.132419,38.7155048 39.8988952,41.3318857 40.1548952,44.1966476 C40.2478476,45.2343619 40.4809905,45.6214095 41.0448,44.4214095 C41.9895619,42.4473143 42.5548952,41.4560762 43.2208,40.1478857 C43.3754667,39.9078857 43.3526095,39.5124571 43.3137524,39.2267429 C41.3312762,29.6869333 51.8387048,28.4176 54.6798476,25.1886476 C54.6798476,25.1886476 54.8969905,39.7296 45.8608,40.3177905 C45.6908952,40.3566476 45.628419,40.3177905 45.6908952,40.1707429 C46.8055619,38.4671238 50.2973714,33.7364571 50.9328,32.1257905 C48.6638476,35.3783619 45.3267048,36.9806476 41.3708952,46.9768381 C40.829181,48.1844571 40.8048,51.0728381 40.7819429,51.8545524 C40.7430857,53.1010286 40.7507048,53.4576 40.6813714,54.2545524 C42.5701333,54.6027429 49.7015619,56.0206476 50.9716571,57.7387429 L45.2261333,57.7387429 C44.9472762,57.7387429 45.0790857,57.8316952 45.133181,57.8781714" id="Fill-1" fill="currentColor"></path>
                                <path d="M39.6473143,78.0210286 C23.5376,78.0210286 8.87779048,67.9082667 3.16655238,52.8545524 L5.56807619,51.9417905 C10.9029333,66.0042667 24.5989333,75.4511238 39.6473143,75.4511238 C57.5368381,75.4511238 72.6507429,62.6716952 75.5825524,45.0610286 L78.1174095,45.4831238 C74.9783619,64.337219 58.7993143,78.0210286 39.6473143,78.0210286" id="Fill-3" fill="currentColor"></path>
                                <polygon id="Fill-5" fill="currentColor" points="0 55.2271238 2.44419048 45.2736 9.84380952 52.3654095"></polygon>
                                <path d="M3.71131429,32.96 L1.17645714,32.5386667 C4.31626667,13.6845714 20.4953143,1.42108547e-14 39.6473143,1.42108547e-14 C55.7570286,1.42108547e-14 70.4160762,10.1150476 76.1273143,25.1664762 L73.7250286,26.0784762 C68.3901714,12.0175238 54.6956952,2.56990476 39.6473143,2.56990476 C21.7570286,2.56990476 6.64388571,15.3508571 3.71131429,32.96" id="Fill-7" fill="currentColor"></path>
                                <g id="Group-11" transform="translate(69.333333, 22.402286)">
                                    <polygon id="path-1" points="9.96038095 10.3467429 9.96038095 0.392457143 0.1168 0.392457143 0.1168 10.3467429 9.96038095 10.3467429"></polygon>
                                    <g id="Clip-10"></g>
                                    <polygon id="Fill-9" fill="currentColor" points="0.1168 3.25417143 7.51641905 10.3467429 9.96060952 0.392457143"></polygon>
                                </g>
                            </g>
                        </g>
                    </g>
                </g>
            </g>
        </g>
    </g>
</svg>
