<?xml version="1.0" encoding="UTF-8" standalone="no"?>
<svg width="50px" height="50px" viewBox="0 0 50 50" version="1.1" xmlns="http://www.w3.org/2000/svg" xmlns:xlink="http://www.w3.org/1999/xlink">
    <!-- Generator: Sketch 46.2 (44496) - http://www.bohemiancoding.com/sketch -->
    <title>Page 1</title>
    <desc>Created with Sketch.</desc>
    <defs>
        <polygon id="path-1" points="0.676980881 0.456164384 6.00325082 0.456164384 6.00325082 14.368466 0.676980881 14.368466 0.676980881 0.456164384"></polygon>
        <polygon id="path-3" points="0.000131566243 0.456164384 5.32614333 0.456164384 5.32614333 14.368466 0.000131566242 14.368466 0.000131566242 0.456164384"></polygon>
        <polygon id="path-5" points="0.669326921 0.456164384 5.99523712 0.456164384 5.99523712 14.368466 0.669326921 14.368466 0.669326921 0.456164384"></polygon>
    </defs>
    <g id="Desktop/Mobile" stroke="none" stroke-width="1" fill="none" fill-rule="evenodd">
        <g id="Framework-Page" transform="translate(-776.000000, -3149.000000)">
            <g id="intervention-pathways" transform="translate(-66.000000, 2025.000000)">
                <g id="OUTLINES" transform="translate(328.000000, 363.000000)">
                    <g id="Red" transform="translate(329.000000, 661.000000)">
                        <g id="sourcing-policies" transform="translate(147.000000, 62.000000)">
                            <g id="Page-1" transform="translate(38.000000, 38.000000)">
                                <g id="Group-3" transform="translate(0.000000, 17.351986)" fill="currentColor">
                                    <path d="M45.1526712,5.60671233 C43.8704795,5.1909589 42.5417123,5.1169863 41.3499315,5.20123288 C41.3108904,5.20739726 41.2711644,5.20739726 41.2307534,5.20739726 C40.5129452,5.20739726 40.1081507,4.70739726 40.1081507,4.70739726 L40.1081507,4.70054795 C40.0225342,3.49712329 39.874589,2.63 39.7376027,2.24232877 C39.2814384,0.953287671 25.2026712,0.250547945 20.0958219,0.250547945 C14.9889726,0.250547945 0.908835616,0.953287671 0.453356164,2.24232877 C-0.537739726,5.02726027 -1.88294521,32.1916438 20.0958219,32.1916438 C25.5732192,32.1916438 29.6033562,30.5046575 32.5499315,27.9156164 C32.5786986,27.8984932 32.6013014,27.8758904 32.6300685,27.8539726 C32.6403425,27.8423288 32.6581507,27.8313699 32.674589,27.8142466 C33.1307534,27.4210959 34.8526712,26.0026027 38.2273288,24.0286301 C40.8266438,22.7786301 43.0095205,21.4573973 44.855411,20.0217808 C47.9389726,17.6306849 49.6102055,14.890274 49.6834932,12.1108219 C49.7581507,9.17383562 47.8944521,6.49575342 45.1526712,5.60671233 M20.1300685,5.16767123 C10.6677397,5.16767123 2.98965753,4.38547945 2.98965753,3.41835616 C2.98965753,2.45123288 10.6677397,1.66287671 20.1300685,1.66287671 C29.5978767,1.66287671 37.2691096,2.45123288 37.2691096,3.41835616 C37.2691096,4.38547945 29.5978767,5.16767123 20.1300685,5.16767123 M43.054726,17.7656164 C41.504726,18.969726 39.6060959,20.1286301 37.3896575,21.2258904 C39.2533562,17.13 39.9656849,12.6005479 40.1423973,8.97109589 L40.1423973,8.96561644 C40.1471918,8.39164384 40.7410274,8.18342466 40.8882877,8.13890411 C40.9006164,8.13273973 40.9060959,8.13273973 40.9122603,8.13273973 C42.5184247,7.91356164 43.6355479,8.13890411 44.2403425,8.33547945 C45.7732192,8.83616438 46.8170548,10.3560274 46.7704795,12.0320548 C46.7081507,14.4354795 44.7191096,16.4772603 43.054726,17.7656164" id="Fill-1"></path>
                                </g>
                                <g id="Group-6" transform="translate(18.493151, 0.228699)">
                                    <mask id="mask-2" fill="white">
                                        <use xlink:href="#path-1"></use>
                                    </mask>
                                    <g id="Clip-5"></g>
                                    <path d="M3.51828767,0.463082192 C3.12171233,0.506917808 2.78130137,0.767876712 2.63746575,1.13979452 C2.49294521,1.51308219 2.56828767,1.935 2.83335616,2.23363014 C3.86486301,3.43773973 3.95869863,4.1589726 3.81828767,4.84047945 C3.67924658,5.52130137 3.15732877,6.27678082 2.49910959,7.11239726 C1.84157534,7.9480137 1.05458904,8.84732877 0.762123288,10.0863699 C0.469657534,11.3240411 0.92239726,12.7760959 2.24842466,14.0617123 C2.67239726,14.4781507 3.35321918,14.4685616 3.7689726,14.045274 C4.18472603,13.6219863 4.17650685,12.9411644 3.75253425,12.524726 C2.75184932,11.5514384 2.70527397,11.1069178 2.83335616,10.5706164 C2.96075342,10.0343151 3.51417808,9.28842466 4.18678082,8.43226027 C4.85869863,7.57609589 5.65253425,6.58773973 5.92376712,5.25760274 C6.19568493,3.92815068 5.7840411,2.37883562 4.47034247,0.848013699 C4.23883562,0.565136986 3.87924658,0.42130137 3.51828767,0.463082192" id="Fill-4" fill="currentColor" mask="url(#mask-2)"></path>
                                </g>
                                <g id="Group-9" transform="translate(12.328767, 0.228699)">
                                    <mask id="mask-4" fill="white">
                                        <use xlink:href="#path-3"></use>
                                    </mask>
                                    <g id="Clip-8"></g>
                                    <path d="M2.84143836,0.463082192 C2.44486301,0.506917808 2.10445205,0.767876712 1.96061644,1.13979452 C1.81609589,1.51308219 1.89075342,1.935 2.15650685,2.23363014 C3.1880137,3.43773973 3.28184932,4.1589726 3.14143836,4.84047945 C3.00171233,5.52130137 2.48047945,6.27678082 1.82226027,7.11239726 C1.16472603,7.9480137 0.377054795,8.84732877 0.0852739726,10.0863699 C-0.207191781,11.3240411 0.245547945,12.7760959 1.57157534,14.0617123 C1.99554795,14.4781507 2.67636986,14.4685616 3.09143836,14.045274 C3.50787671,13.6219863 3.49965753,12.9411644 3.07568493,12.524726 C2.075,11.5514384 2.02842466,11.1069178 2.15650685,10.5706164 C2.28390411,10.0343151 2.83664384,9.28842466 3.50993151,8.43226027 C4.18184932,7.57609589 4.975,6.58773973 5.24691781,5.25760274 C5.51815068,3.92815068 5.10719178,2.37883562 3.79349315,0.848013699 C3.5619863,0.565136986 3.20171233,0.42130137 2.84143836,0.463082192" id="Fill-7" fill="currentColor" mask="url(#mask-4)"></path>
                                </g>
                                <g id="Group-12" transform="translate(25.342466, 0.228699)">
                                    <mask id="mask-6" fill="white">
                                        <use xlink:href="#path-5"></use>
                                    </mask>
                                    <g id="Clip-11"></g>
                                    <path d="M3.51027397,0.463082192 C3.11369863,0.506917808 2.77328767,0.767876712 2.62945205,1.13979452 C2.48493151,1.51308219 2.56027397,1.935 2.82534247,2.23363014 C3.85684932,3.43773973 3.95136986,4.1589726 3.8109589,4.84047945 C3.67123288,5.52130137 3.14931507,6.27678082 2.49109589,7.11239726 C1.83356164,7.9480137 1.04657534,8.84732877 0.754794521,10.0863699 C0.461643836,11.3240411 0.914383562,12.7760959 2.24041096,14.0617123 C2.66438356,14.4781507 3.34520548,14.4685616 3.7609589,14.045274 C4.17671233,13.6219863 4.16849315,12.9411644 3.74452055,12.524726 C2.74383562,11.5514384 2.69794521,11.1069178 2.82534247,10.5706164 C2.95342466,10.0343151 3.50616438,9.28842466 4.17945205,8.43226027 C4.85068493,7.57609589 5.64452055,6.58773973 5.91575342,5.25760274 C6.18767123,3.92815068 5.7760274,2.37883562 4.46232877,0.848013699 C4.23082192,0.565136986 3.87123288,0.42130137 3.51027397,0.463082192" id="Fill-10" fill="currentColor" mask="url(#mask-6)"></path>
                                </g>
                            </g>
                        </g>
                    </g>
                </g>
            </g>
        </g>
    </g>
</svg>