<?xml version="1.0" encoding="UTF-8" standalone="no"?>
<svg width="60px" height="72px" viewBox="0 0 60 72" version="1.1" xmlns="http://www.w3.org/2000/svg" xmlns:xlink="http://www.w3.org/1999/xlink">
    <!-- Generator: Sketch 46.2 (44496) - http://www.bohemiancoding.com/sketch -->
    <title>Page 1</title>
    <desc>Created with Sketch.</desc>
    <g id="Desktop/Mobile" stroke="none" stroke-width="1" fill="none" fill-rule="evenodd">
        <g id="Framework-Page" transform="translate(-477.000000, -3101.000000)" fill="currentColor">
            <g id="intervention-pathways" transform="translate(-66.000000, 2025.000000)">
                <g id="OUTLINES" transform="translate(328.000000, 363.000000)">
                    <g id="Orange" transform="translate(0.000000, 32.000000)">
                        <g id="tech-assitance" transform="translate(182.000000, 654.000000)">
                            <g id="Page-1" transform="translate(33.000000, 27.000000)">
                                <path d="M48.900973,13.7158378 L46.1328649,13.1207027 C45.8458378,12.0471892 45.420973,11.0320541 44.8793514,10.0923243 L46.4158378,7.71745946 C46.5690811,7.43610811 46.5098919,7.02745946 46.2869189,6.80367568 L43.4661081,3.978 C43.2431351,3.75421622 42.8344865,3.7007027 42.5523243,3.85556757 L40.1774595,5.38962162 C39.2369189,4.85367568 38.2225946,4.42394595 37.1490811,4.13691892 L36.5539459,1.368 C36.4696216,1.06151351 36.1396216,0.810972973 35.820973,0.810972973 L31.8317838,0.810972973 C31.5131351,0.810972973 31.1831351,1.06556757 31.098,1.368 L30.5036757,4.13691892 C29.4301622,4.42394595 28.415027,4.85367568 27.4752973,5.38962162 L25.1004324,3.85556757 C24.8182703,3.7007027 24.4096216,3.75421622 24.1874595,3.978 L21.3601622,6.80367568 C21.1371892,7.02745946 21.0796216,7.43610811 21.2377297,7.71745946 L22.7734054,10.0923243 C22.2317838,11.0320541 21.8061081,12.0471892 21.515027,13.1207027 L18.7517838,13.7158378 C18.4444865,13.8001622 18.1939459,14.1301622 18.1939459,14.448 L18.1939459,18.4388108 C18.1939459,18.7574595 18.4444865,19.0866486 18.7517838,19.1717838 L21.515027,19.7669189 C21.8061081,20.8404324 22.2317838,21.8547568 22.7734054,22.7952973 L21.2377297,25.1701622 C21.0796216,25.4458378 21.1371892,25.860973 21.3601622,26.0839459 L24.1874595,28.9039459 C24.4096216,29.1277297 24.8182703,29.1861081 25.1004324,29.0320541 L27.4752973,27.4915135 C28.415027,28.0331351 29.4301622,28.4628649 30.5036757,28.7507027 L31.098,31.5188108 C31.1831351,31.8212432 31.5131351,32.070973 31.8317838,32.070973 L35.820973,32.070973 C36.1396216,32.070973 36.4696216,31.8212432 36.5539459,31.5188108 L37.1490811,28.7507027 C38.2225946,28.4628649 39.2369189,28.0331351 40.1774595,27.4915135 L42.5523243,29.0320541 C42.8344865,29.1861081 43.2431351,29.1277297 43.4661081,28.9039459 L46.2869189,26.0839459 C46.5163784,25.860973 46.5690811,25.4458378 46.4158378,25.1701622 L44.8793514,22.7952973 C45.420973,21.8547568 45.8458378,20.8404324 46.1328649,19.7669189 L48.900973,19.1717838 C49.2090811,19.0866486 49.4588108,18.7574595 49.4588108,18.4388108 L49.4588108,14.448 C49.4588108,14.1301622 49.2090811,13.8001622 48.900973,13.7158378 M33.8288108,23.6928649 C29.8242162,23.6928649 26.5769189,20.4471892 26.5769189,16.4401622 C26.5769189,12.4355676 29.8242162,9.18908108 33.8288108,9.18908108 C37.8293514,9.18908108 41.0758378,12.4355676 41.0758378,16.4401622 C41.0758378,20.4471892 37.8293514,23.6928649 33.8288108,23.6928649" id="Fill-1"></path>
                                <path d="M10.5149189,49.3495946 L21.7908649,60.3790541 L27.7892432,54.2582432 C27.7892432,54.2582432 45.2427568,54.7658108 46.9178919,54.2582432 C47.9078919,53.7239189 59.0938378,39.6977027 59.4514054,38.1214865 C59.5795135,37.3082432 59.3249189,37.2068919 58.9438378,36.6993243 C58.5635676,36.1917568 57.8022162,35.7855405 56.9135676,35.8860811 C56.0257297,35.9874324 55.5700541,36.2922973 55.0365405,36.5963514 C54.503027,36.9012162 44.7611351,46.8677027 43.9251892,47.5536486 C43.1111351,47.9355405 33.7276216,47.6298649 33.066,47.5025676 C32.406,47.3744595 32.0776216,47.0622973 31.913027,46.3828378 C31.746,45.7033784 31.9024865,44.5787838 32.1522162,44.3063514 C32.406,44.0339189 32.2787027,43.8993243 32.9135676,43.5977027 C33.5484324,43.2904054 42.9838378,43.7987838 43.8197838,43.5977027 C44.6549189,43.3958108 44.963027,43.1647297 45.3432973,42.4812162 C45.7243784,41.7952703 45.6976216,40.3495946 45.2905946,39.7422973 C45.0627568,39.2606757 44.4546486,38.8544595 43.8197838,38.6744595 C43.1857297,38.4952703 23.8024865,38.2682432 21.1405946,39.0814865 C18.378973,39.8760811 10.5149189,49.3495946 10.5149189,49.3495946" id="Fill-3"></path>
                                <polygon id="Fill-5" points="15.4977568 71.0696757 -8.10810811e-05 55.6091351 7.06694595 48.5283243 22.5631622 63.9888649"></polygon>
                            </g>
                        </g>
                    </g>
                </g>
            </g>
        </g>
    </g>
</svg>
