<?xml version="1.0" encoding="UTF-8" standalone="no"?>
<svg width="30px" height="25px" viewBox="0 0 30 25" version="1.1" xmlns="http://www.w3.org/2000/svg" xmlns:xlink="http://www.w3.org/1999/xlink">
    <g id="Desktop/Mobile" stroke="none" stroke-width="1" fill="none" fill-rule="evenodd">
        <g id="Homepage-FINAL" transform="translate(-639.000000, -3390.000000)">
            <g id="Footer" transform="translate(-66.000000, 3073.000000)">
                <g id="Twitter-icon" transform="translate(705.000000, 317.000000)">
                    <g>
                        <polygon id="path-1" points="1.61354276e-15 25.8902621 1.61354276e-15 0 30 0 30 25.8902621"></polygon>
                        <g id="Clip-2"></g>
                        <path d="M28.3810267,1.33820794 C27.2229781,2.03689121 25.9407405,2.54367646 24.5775225,2.81524124 C23.4858607,1.63506837 21.9286331,0.896551724 20.2080139,0.896551724 C16.8998352,0.896551724 14.218897,3.61888692 14.218897,6.97855616 C14.218897,7.45626595 14.272407,7.91972876 14.3737041,8.36487403 C9.3984162,8.11133603 4.98398207,5.68964108 2.0323461,2.00810651 C1.51756247,2.90566592 1.2216835,3.95209167 1.2216835,5.06713551 C1.2216835,7.1774323 2.27814884,9.04204147 3.88488039,10.1314989 C2.90338632,10.0989344 1.98055297,9.8273696 1.17189342,9.37117566 L1.17189342,9.44735336 C1.17189342,12.3941511 3.23818167,14.8504458 5.97434679,15.4116022 C5.47387065,15.5488384 4.94506568,15.6250161 4.39794712,15.6250161 C4.01135864,15.6250161 3.63736075,15.5851827 3.27223351,15.5165646 C4.03281988,17.9309907 6.24533072,19.6906374 8.86388823,19.7412287 C6.81534127,21.3738157 4.23598629,22.3440638 1.42856986,22.3440638 C0.945835019,22.3440638 0.469967775,22.3149883 -0.000176470588,22.2606172 C2.65042983,23.9876995 5.79636156,24.9937103 9.1792254,24.9937103 C20.1937064,24.9937103 26.216589,15.7230004 26.216589,7.6845083 C26.216589,7.41992163 26.2111522,7.15940552 26.1988477,6.89888941 C27.3692007,6.04087262 28.3844605,4.96915122 29.1862524,3.74914497 C28.1137627,4.23092532 26.9594341,4.56005951 25.7481617,4.7048553 C26.9843291,3.95209167 27.9323437,2.76087013 28.3810267,1.33820794" id="Fill-1" fill="currentColor"></path>
                    </g>
                </g>
            </g>
        </g>
    </g>
</svg>
