<?xml version="1.0" encoding="UTF-8" standalone="no"?>
<svg width="81px" height="50px" viewBox="0 0 81 50" version="1.1" xmlns="http://www.w3.org/2000/svg" xmlns:xlink="http://www.w3.org/1999/xlink">
    <!-- Generator: Sketch 46.2 (44496) - http://www.bohemiancoding.com/sketch -->
    <title>Page 1</title>
    <desc>Created with Sketch.</desc>
    <g id="Desktop/Mobile" stroke="none" stroke-width="1" fill="none" fill-rule="evenodd">
        <g id="Framework-Page" transform="translate(-1035.000000, -2839.000000)">
            <g id="intervention-pathways" transform="translate(-66.000000, 2025.000000)">
                <g id="OUTLINES" transform="translate(328.000000, 363.000000)">
                    <g id="Green" transform="translate(708.000000, 265.000000)">
                        <g id="water-construction" transform="translate(43.000000, 148.000000)">
                            <g id="Page-1" transform="translate(22.000000, 38.000000)">
                                <g id="Group-3" transform="translate(0.000000, 20.952537)">
                                    <mask id="mask-2" fill="white">
                                        <polygon id="path-1" points="5.05691312e-21 0.363656716 5.05691312e-21 28.358209 80.2171642 28.358209 80.2171642 0.363656716 0 0.363656716"></polygon>
                                    </mask>
                                    <g id="Clip-2"></g>
                                    <path d="M79.2797761,14.1905224 C77.5335075,17.4591791 74.5514179,19.6711194 71.4618657,21.5069403 C68.3275373,23.3248507 64.8887313,24.6860448 61.3782836,25.7696269 C54.3394776,27.9099254 46.9782836,28.3308209 40.4051493,28.3576866 C33.8327612,28.375597 26.4708209,27.9905224 19.4230597,25.9218657 C15.9036567,24.8920149 12.4648507,23.5487313 9.30365672,21.7935075 C6.18798507,20.0203731 3.19619403,17.9069403 1.27977612,14.8173881 C0.35738806,13.295 -0.233656716,11.4054478 0.0887313433,9.58753731 C0.366343284,7.73380597 1.46783582,6.38156716 2.51559701,5.42335821 C4.68276119,3.52485075 6.92156716,2.69201493 8.74022388,2.02932836 C12.115597,0.909925373 14.3096269,0.605447761 14.6499254,0.53380597 C12.2320149,1.27708955 9.84097015,2.13679104 7.63798507,3.33679104 C5.46186567,4.53679104 3.24097015,6.05022388 2.27380597,8.33380597 C1.24470149,10.6711194 2.54246269,13.2323134 4.26261194,14.9248507 C6.01708955,16.6890299 8.21186567,18.0054478 10.4857463,19.0979851 C19.746194,23.3248507 30.2051493,24.5248507 40.3872388,24.5606716 C50.5693284,24.4621642 61.0387313,23.1994776 70.2260448,18.8293284 C72.473806,17.6920149 74.6409701,16.3308209 76.3073881,14.4770896 C77.9723134,12.7129104 78.9394776,9.99947761 77.6320149,7.78753731 C76.4051493,5.63828358 74.1939552,4.18753731 71.9723134,3.05022388 C69.7335075,1.90395522 67.3335075,1.0711194 64.8984328,0.363656716 C65.2200746,0.426343284 67.4148507,0.703955224 70.8357463,1.76067164 C72.6715672,2.39649254 74.9103731,3.18455224 77.1663433,4.92186567 C78.2685821,5.79947761 79.4051493,7.03529851 79.9514179,8.79052239 C80.515597,10.5815672 80.1312687,12.5785821 79.2797761,14.1905224" id="Fill-1" fill="currentColor" mask="url(#mask-2)"></path>
                                </g>
                                <path d="M66.6259701,30.6119403 C66.1431343,31.838806 65.3013433,32.7701493 64.4595522,33.4865672 C60.9759701,36.2716418 56.8020896,37.5253731 52.6379104,38.5552239 C48.4558209,39.5134328 44.2110448,39.638806 40.4140299,39.6477612 C36.6170149,39.6567164 32.3729851,39.5492537 28.1901493,38.6179104 C24.0170149,37.6238806 19.861791,36.3791045 16.3692537,33.8 C15.5192537,33.119403 14.6774627,32.3134328 14.0767164,31.2208955 C13.4685075,30.119403 13.6647761,28.6597015 14.0864179,27.6119403 C14.9908955,25.5074627 16.6737313,24.9074627 17.7035821,24.3880597 C19.5662687,23.6179104 20.4625373,23.438806 20.6856716,23.3761194 C19.3244776,23.9313433 17.981194,24.5761194 16.8267164,25.5074627 C15.6714925,26.3940299 14.6229851,27.8895522 15.1334328,29.4298507 C15.6714925,30.9074627 17.0677612,31.7671642 18.3841791,32.4208955 C19.7364179,33.0746269 21.1692537,33.5223881 22.611791,33.8985075 C28.4319403,35.3134328 34.4408955,35.6358209 40.4050746,35.6537313 C46.3602985,35.6089552 52.378209,35.2686567 58.1819403,33.7731343 C59.6229851,33.3880597 61.0468657,32.9134328 62.3819403,32.2149254 C63.661791,31.5343284 65.050597,30.5313433 65.3185075,28.9731343 C65.5334328,27.3791045 64.3244776,26.0716418 63.1602985,25.2298507 C61.9513433,24.3522388 60.5901493,23.7343284 59.22,23.2059701 C59.4170149,23.2597015 60.3125373,23.4119403 62.2289552,24.1283582 C63.2946269,24.6119403 64.9155224,25.1223881 66.0528358,26.9671642 C66.608806,27.9074627 67.1185075,29.3402985 66.6259701,30.6119403" id="Fill-4" fill="currentColor"></path>
                                <g id="Group-8" transform="translate(31.343284, 0.057015)">
                                    <mask id="mask-4" fill="white">
                                        <polygon id="path-3" points="0.0167910448 0.689552239 17.5070896 0.689552239 17.5070896 28.1190299 0.0167910448 28.1190299 0.0167910448 0.689552239"></polygon>
                                    </mask>
                                    <g id="Clip-7"></g>
                                    <path d="M17.5070896,19.3787313 C17.5070896,24.205597 13.5936567,28.1190299 8.76604478,28.1190299 C3.93097015,28.1190299 0.0167910448,24.205597 0.0167910448,19.3787313 C0.0167910448,14.5518657 8.76604478,0.689179104 8.76604478,0.689179104 C8.76604478,0.689179104 17.5070896,14.5518657 17.5070896,19.3787313" id="Fill-6" fill="currentColor" mask="url(#mask-4)"></path>
                                </g>
                            </g>
                        </g>
                    </g>
                </g>
            </g>
        </g>
    </g>
</svg>
