<?xml version="1.0" encoding="UTF-8" standalone="no"?>
<svg width="27px" height="27px" viewBox="0 0 27 27" version="1.1" xmlns="http://www.w3.org/2000/svg" xmlns:xlink="http://www.w3.org/1999/xlink">
    <g id="Page-1" stroke="none" stroke-width="1" fill="none" fill-rule="evenodd">
        <g>
            <g id="Group-3" transform="translate(8.181818, 20.406273)">
                <mask id="mask-2" fill="white">
                    <polygon id="path-1" points="0.346090909 6.54545455 4.491 6.54545455 4.491 0.801144571 0.346090909 0.801144571 0.346090909 6.54545455"></polygon>
                </mask>
                <g id="Clip-2"></g>
                <path d="M4.491,0.801245455 C3.16636364,0.797972727 1.773,0.874063636 0.346090909,1.06797273 C1.97263636,3.92097273 3.89781818,5.95415455 4.491,6.5457 L4.491,0.801245455 Z" id="Fill-1" fill="currentColor" mask="url(#mask-2)"></path>
            </g>
            <path d="M5.26843636,13.2406364 C5.26843636,10.602 6.01952727,8.29472727 7.02343636,6.372 C5.05734545,6.012 3.64761818,5.59472727 3.10761818,5.42290909 C1.29534545,7.55509091 0.166254545,10.2755455 0.0230727273,13.2578182 L5.26925455,13.2578182 C5.26925455,13.2512727 5.26843636,13.2455455 5.26843636,13.2406364" id="Fill-4" fill="currentColor"></path>
            <path d="M12.6728182,20.3917091 L12.6728182,14.0745273 L6.13145455,14.0745273 C6.28936364,16.4906182 7.09363636,18.7610727 8.109,20.7108 C9.68154545,20.4800727 11.2180909,20.3884364 12.6728182,20.3917091" id="Fill-6" fill="currentColor"></path>
            <g id="Group-10" transform="translate(0.000000, 13.860818)">
                <mask id="mask-4" fill="white">
                    <polygon id="path-3" points="2.21768626e-20 0.214445455 2.21768626e-20 8.22280909 7.24238182 8.22280909 7.24238182 0.214445455"></polygon>
                </mask>
                <g id="Clip-9"></g>
                <path d="M2.86265455,8.17208182 C4.32229091,7.62962727 5.7942,7.24999091 7.24238182,6.99144545 C6.24010909,5.00244545 5.4612,2.69517273 5.31147273,0.214445455 L-0.000163636364,0.214445455 C0.0423818182,3.24499091 1.11256364,6.02435455 2.88065455,8.22280909 L2.86265455,8.17208182 Z" id="Fill-8" fill="currentColor" mask="url(#mask-4)"></path>
            </g>
            <path d="M20.0772,13.2406364 C20.0772,10.7091818 19.3212,8.48045455 18.3254727,6.62481818 C16.6923818,6.87927273 15.0944727,6.98236364 13.5841091,6.98236364 C13.5522,6.98236364 13.5219273,6.98072727 13.4908364,6.98072727 L13.4908364,13.257 L20.0763818,13.257 C20.0763818,13.2512727 20.0772,13.2455455 20.0772,13.2406364" id="Fill-11" fill="currentColor"></path>
            <path d="M12.6728182,6.96681818 C10.9120909,6.91936364 9.29454545,6.74263636 7.89709091,6.52009091 C6.87272727,8.39781818 6.08645455,10.6633636 6.08645455,13.2406364 C6.08645455,13.2444545 8.28190909,13.2499091 12.6728182,13.257 L12.6728182,6.96681818 Z" id="Fill-13" fill="currentColor"></path>
            <path d="M13.4990182,0.818918182 L13.4908364,0.818918182 L13.4908364,6.16491818 C14.8964727,6.16900909 16.3798364,6.08064545 17.8967455,5.86055455 C16.0983818,2.88319091 13.8123818,1.06028182 13.4990182,0.818918182" id="Fill-15" fill="currentColor"></path>
            <g id="Group-19" transform="translate(8.181818, 0.769909)">
                <mask id="mask-6" fill="white">
                    <polygon id="path-5" points="0.149563636 0.0482727273 4.49083636 0.0482727273 4.49083636 5.38265455 0.149563636 5.38265455 0.149563636 0.0482727273"></polygon>
                </mask>
                <g id="Clip-18"></g>
                <path d="M0.149563636,4.99401818 C1.43738182,5.18792727 2.9052,5.33929091 4.49083636,5.38265455 L4.49083636,0.0481090909 L4.48265455,0.0481090909 C4.17338182,0.287018182 1.93810909,2.07638182 0.149563636,4.99401818" id="Fill-17" fill="currentColor" mask="url(#mask-6)"></path>
            </g>
            <path d="M20.0324455,14.0751818 L13.4910818,14.0751818 L13.4910818,20.4038182 C15.1405364,20.4471818 16.6697182,20.6050909 18.0058091,20.808 C19.0449,18.837 19.8720818,16.5297273 20.0324455,14.0751818" id="Fill-20" fill="currentColor"></path>
            <path d="M11.4511091,26.8677 C10.5052909,25.8490636 8.95729091,23.9983364 7.64083636,21.6084273 C6.24747273,21.8440636 4.8312,22.2016091 3.42392727,22.7039727 C5.47183636,24.9457909 8.28147273,26.4733364 11.4511091,26.8677" id="Fill-22" fill="currentColor"></path>
            <path d="M22.7403,22.7032364 C22.1225727,22.5085091 20.5819364,22.0626 18.4677545,21.7058727 C17.1635727,24.0475091 15.6450273,25.8622364 14.7123,26.8669636 C17.8827545,26.4726 20.6923909,24.9458727 22.7403,22.7032364" id="Fill-24" fill="currentColor"></path>
            <path d="M3.71470909,4.75265455 C4.41507273,4.96210909 5.71761818,5.31556364 7.43089091,5.61665455 C8.71298182,3.42801818 10.2634364,1.83338182 11.2526182,0.939927273 C8.31452727,1.35147273 5.6898,2.72847273 3.71470909,4.75265455 Z" id="Fill-26" fill="currentColor"></path>
            <path d="M13.491,26.9517273 C14.0776364,26.3667273 15.9668182,24.3728182 17.5819091,21.5697273 C16.3546364,21.3938182 14.9743636,21.2588182 13.491,21.2187273 L13.491,26.9517273 Z" id="Fill-28" fill="currentColor"></path>
            <path d="M18.7892182,5.71598182 C20.0050364,5.49834545 21.2364,5.18907273 22.4628545,4.76934545 C20.4861273,2.73616364 17.8564909,1.35343636 14.9118545,0.940254545 C15.9149455,1.84761818 17.4981273,3.4758 18.7892182,5.71598182" id="Fill-30" fill="currentColor"></path>
            <g id="Group-34" transform="translate(18.818182, 13.860818)">
                <mask id="mask-8" fill="white">
                    <polygon id="path-7" points="7.34563636 0.213463636 7.34563636 8.18500909 0.0557181818 8.18500909 0.0557181818 0.213463636 7.34563636 0.213463636"></polygon>
                </mask>
                <g id="Clip-33"></g>
                <path d="M0.0557181818,7.08782727 C2.7369,7.55746364 4.45508182,8.15473636 4.49762727,8.17028182 L4.49271818,8.18500909 C6.24280909,5.99228182 7.30235455,3.22764545 7.34571818,0.213463636 L2.03408182,0.213463636 C1.88108182,2.73428182 1.0809,5.07755455 0.0557181818,7.08782727" id="Fill-32" fill="currentColor" mask="url(#mask-8)"></path>
            </g>
            <path d="M20.8953818,13.2406364 C20.8953818,13.2463636 20.8945636,13.2512727 20.8945636,13.257 L26.1407455,13.257 C25.9983818,10.2763636 24.8701091,7.55754545 23.0602909,5.42618182 C21.7700182,5.88845455 20.4740182,6.228 19.1927455,6.46936364 C20.1704727,8.37245455 20.8953818,10.647 20.8953818,13.2406364" id="Fill-35" fill="currentColor"></path>
        </g>
    </g>
</svg>
