<?xml version="1.0" encoding="UTF-8" standalone="no"?>
<svg width="31px" height="22px" viewBox="0 0 31 22" version="1.1" xmlns="http://www.w3.org/2000/svg" xmlns:xlink="http://www.w3.org/1999/xlink">
    <g id="Desktop/Mobile" stroke="none" stroke-width="1" fill="none" fill-rule="evenodd">
        <g id="Homepage-FINAL" transform="translate(-776.000000, -3391.000000)">
            <g id="Footer" transform="translate(-66.000000, 3073.000000)">
                <g id="YouTube-icon,-brown" transform="translate(842.000000, 318.000000)">
                    <g>
                        <mask id="mask-2" fill="white">
                            <polygon id="path-1" points="0 22 0 0 31 0 31 22"></polygon>
                        </mask>
                        <g id="Clip-2"></g>
                        <path d="M12.6364625,15.8749662 C12.6072339,12.6248921 12.6072339,9.37510795 12.6364625,6.12503378 C15.5260453,7.73687333 18.4674294,9.38177923 21.3940544,11 C18.4674294,12.6179307 15.5263347,14.2631267 12.6364625,15.8749662 M26.2364569,0.219499654 C19.0789154,-0.0731665513 11.9210846,-0.0731665513 4.7635431,0.219499654 C2.47763277,0.321889317 0.385615332,2.30354989 0.218346543,4.59992089 C-0.0727821809,8.8666403 -0.0727821809,13.1333597 0.218346543,17.4000791 C0.385904725,19.6964501 2.47763277,21.6781107 4.7635431,21.7805003 C11.9210846,22.0731666 19.0789154,22.0731666 26.2364569,21.7805003 C28.5223672,21.6781107 30.6140953,19.6964501 30.7816535,17.4000791 C31.0727822,13.1333597 31.0727822,8.8666403 30.7816535,4.59992089 C30.6140953,2.30354989 28.5226566,0.321889317 26.2364569,0.219499654" id="Fill-1" fill="currentColor" mask="url(#mask-2)"></path>
                    </g>
                </g>
            </g>
        </g>
    </g>
</svg>
