<?xml version="1.0" encoding="utf-8"?>
<!-- Generator: Adobe Illustrator 21.1.0, SVG Export Plug-In . SVG Version: 6.00 Build 0)  -->
<svg version="1.1" id="Layer_1" xmlns="http://www.w3.org/2000/svg" xmlns:xlink="http://www.w3.org/1999/xlink" x="0px" y="0px"
	 viewBox="0 0 388.4 155.2" style="enable-background:new 0 0 388.4 155.2;" xml:space="preserve">
<style type="text/css">
	.st0{clip-path:url(#SVGID_2_);fill:#473528;}
	.st1{clip-path:url(#SVGID_2_);fill:#76A1CF;}
	.st2{clip-path:url(#SVGID_4_);fill:#B9C32C;}
	.st3{clip-path:url(#SVGID_4_);fill:#6C8B29;}
	.st4{clip-path:url(#SVGID_4_);fill:#97B435;}
	.st5{clip-path:url(#SVGID_4_);fill:#C5C11F;}
	.st6{clip-path:url(#SVGID_6_);fill:#E2CC82;}
	.st7{clip-path:url(#SVGID_8_);fill:#F36E21;}
	.st8{clip-path:url(#SVGID_8_);fill:#A48E5F;}
	.st9{clip-path:url(#SVGID_8_);fill:#534128;}
	.st10{clip-path:url(#SVGID_8_);fill:#A72C18;}
	.st11{clip-path:url(#SVGID_10_);fill:#473528;}
	.st12{fill:#473528;}
	.st13{clip-path:url(#SVGID_12_);fill:#473528;}
	.st14{clip-path:url(#SVGID_14_);fill:#473528;}
	.st15{clip-path:url(#SVGID_16_);fill:#F36E24;}
	.st16{fill:#F36E24;}
</style>
<g>
	<defs>
		<rect id="SVGID_1_" x="0" width="388.4" height="155.2"/>
	</defs>
	<clipPath id="SVGID_2_">
		<use xlink:href="#SVGID_1_"  style="overflow:visible;"/>
	</clipPath>
	<path class="st0" d="M148.1,88.3c0.2,0.5,0.2,1.7,0,3.1c-0.4,1.6-0.8,3.3-1.3,5C147.5,93.4,148.1,90.5,148.1,88.3 M101,119.2
		l0.2-0.6c0.6-0.4,0.7-0.4,1.3-0.8L101,119.2z M100.7,118.7c-0.5,0.3-1.4,1-2.3,1.4c-2.5,1.2-0.4-0.2,0.4-0.7
		C99.7,119.2,101.3,118.3,100.7,118.7 M86.3,126.7c-6.2,1.3-11.8,1-16.9,0.1l-0.9-0.7c5.2,0.6,7.2,0.9,12.2,0.6
		c-1,0.3,1.4,0.2,3.6-0.1C86.4,126.3,88.3,125.9,86.3,126.7 M27.1,88.8c-0.2-0.6-0.3-1.2-0.4-1.8c-0.2-1.4-0.3-5.4,0.1-4.8
		c0,2.6,0.8,7.3,1.3,8.2C28.6,93.2,28.1,93.2,27.1,88.8 M42.5,11.8c-4.7,2.3-8.3,5-9.3,5l-1.3,1.1c-3.5,2.8-3.4,2.6-3.1,2.2
		c0.1-0.1,0.3-0.2,0.4-0.3c3.4-3,8.4-6.9,12.1-8.4c2.1-1.5,4.9-3.4,9.4-4.9C52.3,6,51,6.6,50.5,6.8c8.3-3.3,18.4-5.2,28.9-4.2
		C90,3.4,100.8,7,110.1,13.2c-6.8-4.3-12.7-6-15.6-7c1.1,0.4,2.1,0.8,3.2,1.3c-3.5-1.1,3.2,1.9,0.7,1.2c1.5,0.6,3.1,1.4,4.7,2.3
		C96.9,8.1,90,6,82.6,5.4c-4.9-0.7-11-0.9-17.4-0.2c0,0,0.1-0.1,0.2-0.1c-0.4,0.1-0.8,0.1-1.1,0.2c-2.6,0.3-5.1,0.8-7.7,1.5
		c0,0,0-0.1,0-0.1c-0.2,0.1-0.3,0.2-0.3,0.2C52.7,7.4,47.1,9.3,42.5,11.8 M111.9,47.7c-1.6-2-3.5-3.8-5.4-5.5l-0.3-0.4
		C108.2,43.5,110.2,45.5,111.9,47.7 M18.8,30.6c1.2-1.4,2.4-2.6,3.5-3.6C21.1,28.1,19.9,29.3,18.8,30.6 M14.2,35.9
		c0-0.1,0.1-0.1,0.1-0.2l0,0C14.3,35.8,14.2,35.9,14.2,35.9 M146.3,103.5c0.6-1.8,1.1-3.5,1.5-5.4c0,0.3,0,0.5,0.1,0.3
		c0.3-0.4,0.6-0.7,1-1.7c-0.2,0.6-0.3,1.1-0.5,1.7c1-2.4,1.8-4.9,2.5-7.4l-0.8,0.2c-0.2,1.5-0.6,2.9-0.9,4.3
		c0.3-1.8,0.6-3.6,0.7-5.4c1.9-15.1,0.1,6.4,1.7-3.7c0.2-2.2,0.2-3.3,0.2-4.3c-0.2-5-0.4-3.6-0.7-0.7c0-5.6,0-8.3,0.1-9.8
		c0.2-0.5,0.4-0.2,0.7,1.4c-0.1-2.2-0.2-3.9-0.3-5.4c0-0.8-0.2-1.8-0.5-3.3c-0.3-1.1-0.5-2-0.7-2.7c-0.3-1-0.6-2.1-0.9-3.4
		c-0.4-2.7-2.1-7.2-2.1-8.1c0.5,1,1,2.3,1.5,3.9c1.2,2.6,0.6-0.5-0.8-3.9c-0.6-1.2-3-5.4-3.3-5.5c-0.6-1.3-1.3-3-2.7-6.1
		c-2.7-4.7-6.1-8.6-4.2-5.5c2.8,4.1,5.2,8.5,7.2,13.1c0.5,1.6,0.5,2.1,0.3,2c-0.2-0.5-0.4-1-0.6-1.5c-2.7-6.5-7.7-14.2-13.5-20.1
		c-3-2.9-6.3-5.7-9.9-8.3c-1.7-1.5-3.5-2.9-3.1-3c2.9,1.9,5.8,3.9,8.5,6.2c-2.5-2.4-5.2-4.6-8-6.6c1.8,0.7,6.7,3.3,0.1-1.9
		C107,5.7,94.8,2.1,80.7,0.2C61.7-1.3,41.2,5,26.1,19c2.9-1.9-3.2,3.1,1.8-0.7c-2.2,2.2-4,4-7.8,7.9c2.3-3.4,0.7-1.8-1.4,0.5
		c-2.1,2.3-4.4,5.4-4.3,4.3c-5.3,8.2-6.5,7.3-10.7,17.2c-1.7,6.1,3.1-5.7,5.3-8.6c-0.5,0.9-1.1,2.1-1.8,3.4c2.3-3.9,5.2-6.9,5.4-6.1
		c-0.8,1.1-1,1.4-1.2,2c0.3-0.3,0.8-0.9-0.1,0.8c0.6-1.1,1.3-2.1,2-3.1c-0.8,1.2-1.3,2.4-1.6,3.3c-0.4,0.6,0-0.3-0.4,0.3
		c-1.2,2-2.2,4.1-3.1,6.3c0,0.5-0.3,1.9,0.4,1c-0.5,1-0.8,2-1.2,3.3c-0.1,0.1-0.4,0.8-1,2.1C6,53.6,5.7,54,5.4,54.3
		c0-0.1-0.1,0-0.2,0.1c-0.9,0.5-1.5-1-2.5,2.8c-1.5,2-2.2,13.8-2.6,16c0.1,8.9,0.7,16.5,2.4,21.8c0.3,1.5,0.6,3,0.9,4.5
		c-0.4,0.1,0.5,4.1,2.2,8.6c1.7,4.6,4.5,9.7,6.4,12.5c6.5,12.2,19.9,21.6,28.6,26.8c-5.8-2.3-13.8-9.4-14.9-9.9
		c0.7,0.7,1.3,1.4,2,2.1c4.7,4.4,13.4,9.9,17.2,10.8c-3.1-1.8-3.1-2.2-4-3c2.6,1.2,3.1,1.2,6.3,2.5c4.7,2,10.1,3.6,10,4
		c-2.8-0.6-5.6-1.7-8-2.7c-1.1,0.2,7.6,3.3,10.6,4c-4.9-2.4,8.8,0.8-4.8-3.5c2.5,0.7,5,1.3,7.6,1.7c3,0.1-3.2-1.1-8.1-3.1
		c-4.9-1.9-8.7-3.9-2.4-1.9c0.2,0,0.3,0,0.4,0c3.8,1.2,7.5,2.1,10.9,2.6c1.7,0.4,3.6,0.8,5,1c14.1,1.4,31.2-0.9,41.3-7.6
		c-0.5,0-1.1,0.1-2,0.3c1.1-0.7,2.3-1.4,3.9-2.3c1.2-0.2,5.1-2,6.7-2.8l-1.2,0.5c0.9-0.7,1.4-1.2,2.5-2.1c0.7-0.4,1.7-1.1,2.9-1.9
		c0,0.1-1.7,1.6-0.3,0.7c4.3-3.2,6.5-5.3,8.4-7.4c0.6-0.6,1.1-1.1,1.6-1.7c1.3-1.5,2.4-3.1,3.5-4.6c-0.2,0.2-0.4,0.4-0.6,0.6
		c0.5-0.6,1-1.2,1.5-1.9C141.5,115.6,144.2,109.6,146.3,103.5"/>
	<path class="st1" d="M14.4,57.3c0,0-7.6,74.7,55.8,82.1C70.3,139.4,91.3,75.3,14.4,57.3"/>
</g>
<g>
	<defs>
		<path id="SVGID_3_" d="M70.3,139.4c0,0,21-64.1-55.8-82.1C14.4,57.3,6.8,132,70.3,139.4"/>
	</defs>
	<clipPath id="SVGID_4_">
		<use xlink:href="#SVGID_3_"  style="overflow:visible;"/>
	</clipPath>
	<path class="st2" d="M33.3,106c-1.3-0.1-2.6-0.2-3.9-0.3c-2.3-0.1-4.6-0.1-7,0c3.8,8.2,9.4,16,17.4,22.1c2.9,2.2,6.1,4.2,9.7,5.9
		C40.6,124.2,35.7,114.8,33.3,106"/>
	<path class="st3" d="M52.3,111.5c1.6,8.3,5.2,17.4,12.1,27c0.6,0.1,1.3,0.2,1.9,0.4c-4.7-8.8-8.1-17.3-10.5-25.3
		C54.8,112.8,53.6,112.1,52.3,111.5"/>
	<path class="st3" d="M52.3,111.5c-1.3-0.7-2.7-1.3-4.1-1.8c-4.4-1.8-9.4-3-14.9-3.6c2.4,8.8,7.2,18.2,16.1,27.6
		c3,1.4,6.2,2.6,9.6,3.6c1.7,0.5,3.5,0.9,5.4,1.3C57.6,128.9,53.9,119.8,52.3,111.5"/>
	<path class="st4" d="M32.3,82.5c-1.2-0.2-2.4-0.4-3.7-0.6c-4.1-0.5-8.5-0.7-13.3-0.5c1,6.5,2.6,13.6,5.5,20.6
		c0.5,1.2,1,2.4,1.6,3.6c2.4-0.1,4.8-0.1,7,0c1.3,0.1,2.6,0.2,3.9,0.3c-0.3-1.3-0.6-2.6-0.9-3.8C31.1,95,31.3,88.3,32.3,82.5"/>
	<path class="st5" d="M54.6,108.5c-1.1-4.3-1.8-8.6-2.3-12.7c-0.1-0.8-0.2-1.7-0.3-2.5c-0.7,4.2-0.9,8.9-0.3,13.8
		c0.1,1.4,0.4,2.9,0.6,4.4c1.2,0.6,2.5,1.3,3.6,2C55.4,111.8,55,110.1,54.6,108.5"/>
	<path class="st5" d="M51.8,90.5c-0.9-0.6-1.8-1.2-2.7-1.8c-4.8-2.9-10.3-5-16.8-6.3c-1,5.8-1.2,12.5,0.2,19.7
		c0.2,1.3,0.5,2.5,0.9,3.8c5.5,0.6,10.5,1.9,14.9,3.6c1.4,0.6,2.8,1.2,4.1,1.8c-0.3-1.5-0.5-3-0.6-4.4c-0.5-4.9-0.3-9.6,0.3-13.8
		C51.9,92.4,51.9,91.4,51.8,90.5"/>
	<path class="st4" d="M37.9,65.5c-1.6,3.1-3.5,7.6-4.9,13.3c-0.3,1.2-0.5,2.4-0.7,3.6c6.4,1.3,12,3.5,16.8,6.3
		c0.9,0.6,1.9,1.1,2.7,1.8c-0.1-1.5-0.2-3.1-0.2-4.5c0-2,0-4,0.1-6c0.1-1.8,0.2-3.6,0.4-5.3C48.2,71.4,43.5,68.3,37.9,65.5"/>
</g>
<g>
	<defs>
		<rect id="SVGID_5_" x="0" width="388.4" height="155.2"/>
	</defs>
	<clipPath id="SVGID_6_">
		<use xlink:href="#SVGID_5_"  style="overflow:visible;"/>
	</clipPath>
	<path class="st6" d="M124.2,0.2c0,0-97.2,39.2-57.4,140.8C66.8,141,178.5,128.2,124.2,0.2"/>
</g>
<g>
	<defs>
		<path id="SVGID_7_" d="M66.8,141c0,0,111.8-12.8,57.4-140.8C124.2,0.2,27,39.4,66.8,141"/>
	</defs>
	<clipPath id="SVGID_8_">
		<use xlink:href="#SVGID_7_"  style="overflow:visible;"/>
	</clipPath>
	<path class="st7" d="M131.7,35.5c-6,0.5-16.9,2.1-28.9,7.4c4.8,11.5,6.6,22.5,6.2,32.9c9.2-3.8,18-5.5,25.3-6.3
		c0.1-1.8,0.2-3.5,0.3-5.4C134.8,55.6,133.9,46.1,131.7,35.5"/>
	<path class="st8" d="M134.3,69.6c-7.3,0.7-16.1,2.5-25.3,6.3c-0.8,23.2-12.2,43-24.6,57.8C104.3,125.8,131,108.1,134.3,69.6"/>
	<path class="st8" d="M88.6,18.7c-8.8,7.6-17.9,17.5-24.7,30c3.9,5.3,7.1,10.4,9.7,15.5c9.1-10.4,19.5-17,29.2-21.3
		C99.5,35.1,94.9,27,88.6,18.7"/>
	<path class="st9" d="M109,75.8c-8.8,3.6-17.8,9.1-26.3,17.3c1.9,16.1-1.6,30.9-7.7,43.7c2.8-0.8,6-1.9,9.4-3.2
		C96.8,118.9,108.2,99,109,75.8"/>
	<path class="st10" d="M63.9,48.7c-3.4,6.3-6.2,13.1-8.2,20.7c-0.4,1.7-0.8,3.4-1.2,5.2c-0.4,1.9-0.7,3.9-1,5.9
		c-0.2,1.5-0.4,3-0.5,4.5c-0.1,1.7-0.2,3.5-0.3,5.3c-0.1,4.2,0,8.5,0.5,13c4.7-16.9,12-29.6,20.4-39.1C71,59.1,67.8,54,63.9,48.7"/>
</g>
<g>
	<defs>
		<rect id="SVGID_9_" x="0" width="388.4" height="155.2"/>
	</defs>
	<clipPath id="SVGID_10_">
		<use xlink:href="#SVGID_9_"  style="overflow:visible;"/>
	</clipPath>
	<path class="st11" d="M171.6,45.7l2.8-4c1.5,1.5,3.8,2.8,6.7,2.8c1.8,0,3-0.7,3-1.7c0-2.8-11.8-0.6-11.8-8.6c0-3.5,3-6.6,8.3-6.6
		c3.3,0,6.3,1,8.5,2.9l-2.9,3.8c-1.7-1.4-4-2.2-6.1-2.2c-1.6,0-2.3,0.6-2.3,1.5c0,2.7,11.8,0.7,11.8,8.5c0,4.2-3.1,7-8.7,7
		C176.6,49,173.7,47.7,171.6,45.7"/>
	<path class="st11" d="M192.6,40.2V27.7h5.5V40c0,2.5,1.5,4.3,4.4,4.3c2.9,0,4.4-1.8,4.4-4.3V27.7h5.4v12.4c0,5.2-3.2,8.8-9.8,8.8
		C195.8,49,192.6,45.3,192.6,40.2"/>
	<path class="st11" d="M215.2,45.7l2.8-4c1.5,1.5,3.8,2.8,6.7,2.8c1.8,0,3-0.7,3-1.7c0-2.8-11.8-0.6-11.8-8.6c0-3.5,3-6.6,8.3-6.6
		c3.3,0,6.3,1,8.5,2.9l-2.9,3.8c-1.8-1.4-4-2.2-6.1-2.2c-1.6,0-2.3,0.6-2.3,1.5c0,2.7,11.8,0.7,11.8,8.5c0,4.2-3.1,7-8.7,7
		C220.2,49,217.3,47.7,215.2,45.7"/>
</g>
<polygon class="st12" points="240.9,48.6 240.9,32.4 235.1,32.4 235.1,27.7 252.1,27.7 252.1,32.4 246.3,32.4 246.3,48.6 "/>
<path class="st12" d="M264.3,33.1l-2.7,7.8h5.3L264.3,33.1z M269.5,48.6l-1-3h-8.2l-1,3h-6.1l7.8-20.8h6.8l7.9,20.8H269.5z"/>
<rect x="277.7" y="27.7" class="st12" width="5.4" height="20.8"/>
<polygon class="st12" points="301.7,48.6 292.8,36.5 292.8,48.6 287.5,48.6 287.5,27.7 293,27.7 301.4,39.2 301.4,27.7 306.8,27.7 
	306.8,48.6 "/>
<path class="st12" d="M320.2,33.1l-2.7,7.8h5.3L320.2,33.1z M325.4,48.6l-1-3h-8.2l-1,3H309l7.8-20.8h6.8l7.9,20.8H325.4z"/>
<g>
	<defs>
		<rect id="SVGID_11_" x="0" width="388.4" height="155.2"/>
	</defs>
	<clipPath id="SVGID_12_">
		<use xlink:href="#SVGID_11_"  style="overflow:visible;"/>
	</clipPath>
	<path class="st13" d="M346.5,42.2c0-1-0.7-1.9-2.1-1.9H339v3.8h5.4C345.7,44.1,346.5,43.3,346.5,42.2 M346.1,34
		c0-1-0.8-1.7-1.8-1.7H339v3.5h5.2C345.3,35.7,346.1,35,346.1,34 M333.6,48.6V27.7h11.8c4.1,0,6.1,2.7,6.1,5.3
		c0,2.6-1.6,4.3-3.6,4.8c2.2,0.3,4,2.5,4,5.1c0,3-2,5.7-6.1,5.7H333.6z"/>
</g>
<polygon class="st12" points="355.5,48.6 355.5,27.7 360.9,27.7 360.9,43.9 369.3,43.9 369.3,48.6 "/>
<polygon class="st12" points="372.7,48.6 372.7,27.7 388,27.7 388,32.4 378.1,32.4 378.1,35.7 387.7,35.7 387.7,40.4 378.1,40.4 
	378.1,43.9 388,43.9 388,48.6 "/>
<g>
	<defs>
		<rect id="SVGID_13_" x="0" width="388.4" height="155.2"/>
	</defs>
	<clipPath id="SVGID_14_">
		<use xlink:href="#SVGID_13_"  style="overflow:visible;"/>
	</clipPath>
	<path class="st14" d="M170.3,74.9c0-11.7,8.9-19.6,20.5-19.6c9.2,0,14,5.2,16.5,10.2l-8.4,4c-1.3-3-4.5-5.5-8.1-5.5
		c-6.2,0-10.6,4.8-10.6,11c0,6.2,4.4,11,10.6,11c3.6,0,6.9-2.5,8.1-5.5l8.4,4c-2.4,4.9-7.4,10.2-16.5,10.2
		C179.2,94.5,170.3,86.5,170.3,74.9"/>
	<path class="st14" d="M241.4,74.9c0-6.2-4-11-10.3-11c-6.3,0-10.3,4.8-10.3,11c0,6.1,4,11,10.3,11C237.4,85.8,241.4,81,241.4,74.9
		 M210.8,74.9c0-11.5,8.7-19.6,20.3-19.6c11.6,0,20.2,8.1,20.2,19.6c0,11.5-8.6,19.6-20.2,19.6C219.5,94.5,210.8,86.4,210.8,74.9"/>
</g>
<polygon class="st12" points="257.5,93.8 257.5,55.9 285.3,55.9 285.3,64.4 267.2,64.4 267.2,70.3 284.9,70.3 284.9,78.8 
	267.2,78.8 267.2,93.8 "/>
<polygon class="st12" points="291.7,93.8 291.7,55.9 319.5,55.9 319.5,64.4 301.5,64.4 301.5,70.3 319.1,70.3 319.1,78.8 
	301.5,78.8 301.5,93.8 "/>
<polygon class="st12" points="325.9,93.8 325.9,55.9 353.7,55.9 353.7,64.4 335.7,64.4 335.7,70.3 353.3,70.3 353.3,78.8 
	335.7,78.8 335.7,85.3 353.7,85.3 353.7,93.8 "/>
<polygon class="st12" points="360.5,55.9 360.5,93.8 388.4,93.8 388.4,85.3 370.3,85.3 370.3,78.8 388,78.8 388,70.3 370.3,70.3 
	370.3,64.4 388.4,64.4 388.4,55.9 "/>
<g>
	<defs>
		<rect id="SVGID_15_" x="0" width="388.4" height="155.2"/>
	</defs>
	<clipPath id="SVGID_16_">
		<use xlink:href="#SVGID_15_"  style="overflow:visible;"/>
	</clipPath>
	<path class="st15" d="M169.8,115.1c0-7.6,5.7-12.7,13.3-12.7c5.9,0,9.1,3.4,10.7,6.6l-5.5,2.6c-0.8-2-2.9-3.6-5.3-3.6
		c-4,0-6.9,3.1-6.9,7.1s2.8,7.1,6.9,7.1c2.4,0,4.5-1.6,5.3-3.6l5.5,2.6c-1.6,3.2-4.8,6.6-10.7,6.6
		C175.6,127.8,169.8,122.6,169.8,115.1"/>
</g>
<polygon class="st16" points="213.8,127.3 213.8,117.5 203.6,117.5 203.6,127.3 197.3,127.3 197.3,102.8 203.6,102.8 203.6,111.9 
	213.8,111.9 213.8,102.8 220.2,102.8 220.2,127.3 "/>
<path class="st16" d="M235.9,109l-3.1,9.2h6.3L235.9,109z M242,127.3l-1.2-3.5h-9.7l-1.2,3.5h-7.2l9.2-24.6h8l9.3,24.6H242z"/>
<polygon class="st16" points="251.7,127.3 251.7,102.8 258.1,102.8 258.1,121.8 267.9,121.8 267.9,127.3 "/>
<polygon class="st16" points="271.9,127.3 271.9,102.8 278.3,102.8 278.3,121.8 288.2,121.8 288.2,127.3 "/>
<polygon class="st16" points="292.2,127.3 292.2,102.8 310.2,102.8 310.2,108.3 298.5,108.3 298.5,112.1 309.9,112.1 309.9,117.6 
	298.5,117.6 298.5,121.8 310.2,121.8 310.2,127.3 "/>
<polygon class="st16" points="331.3,127.3 320.9,113.1 320.9,127.3 314.6,127.3 314.6,102.8 321.1,102.8 331.1,116.3 331.1,102.8 
	337.4,102.8 337.4,127.3 "/>
<g>
	<path class="st16" d="M341.3,115.1c0-7.8,6-12.7,13.3-12.7c5.5,0,8.8,2.9,10.5,6l-5.3,2.8c-0.9-1.6-2.8-3.1-5.2-3.1
		c-4,0-6.9,3.1-6.9,7.1s2.8,7.1,6.9,7.1c1.8,0,3.6-0.7,4.5-1.5v-1.9h-5.5v-5.6h11.9v9.8c-2.7,2.9-6.2,4.8-10.9,4.8
		C347.3,127.8,341.3,122.9,341.3,115.1"/>
</g>
<polygon class="st16" points="369.9,127.3 369.9,102.8 388,102.8 388,108.3 376.3,108.3 376.3,112.1 387.7,112.1 387.7,117.6 
	376.3,117.6 376.3,121.8 388,121.8 388,127.3 "/>
</svg>
