<?xml version="1.0" encoding="UTF-8" standalone="no"?><svg xmlns="http://www.w3.org/2000/svg" xmlns:xlink="http://www.w3.org/1999/xlink"><symbol viewBox="0 0 70 42" id="access-fin-icon" xmlns="http://www.w3.org/2000/svg"><path d="M30.062 29.45c-.929 0-2.407-.313-2.407-1.401 0-.854-.622-1.476-1.477-1.476-.777 0-1.4.622-1.4 1.4-.077 2.176 1.866 3.73 3.808 4.195v1.555c0 .853.623 1.477 1.476 1.477.777 0 1.4-.624 1.4-1.401v-1.63c2.255-.465 3.886-2.096 3.886-4.12 0-1.012-.465-2.02-1.166-2.796-1.011-1.012-2.484-1.555-4.038-1.555-.931 0-2.408-.388-2.408-1.477 0-.699 1.012-1.4 2.408-1.4.854 0 2.408.389 2.408 1.4 0 .777.623 1.477 1.4 1.477.854 0 1.476-.622 1.476-1.477 0-2.253-1.941-3.574-3.807-4.118V16.47c0-.776-.623-1.477-1.477-1.477-.777 0-1.477.623-1.477 1.4v1.631c-2.254.466-3.885 2.177-3.885 4.038 0 1.09.389 2.02 1.242 2.797.93 1.012 2.485 1.554 4.038 1.554.855 0 2.331.466 2.331 1.477.082.781-.93 1.558-2.33 1.558zm30.302-16.24C58.111 9.711 52.284 0 45.214 0h-15.07s-2.72 0-2.72 2.797v1.708s0 2.255 2.72 2.255h9.865c1.013 0 1.013 2.253-.234 2.253H6.288c-2.72-.077-3.185 1.636-3.185 2.177v1.631c-.076 2.407 2.566 2.254 3.185 2.254H19.81a14.352 14.352 0 0 1 10.334-4.35c7.923 0 14.375 6.37 14.375 14.374 0 7.922-6.452 14.374-14.375 14.374-4.272 0-7.923-1.79-10.567-4.662h-7.15c-2.72 0-2.72 2.255-2.72 2.255v1.707c0 2.254 2.72 2.254 2.72 2.254h33.952c7.228 0 11.809-2.874 14.063-6.216h7.303C69.147 30.771 70 26.418 70 21.837c0-3.03-.389-5.904-1.012-8.7h-8.624v.072zM6.288 26.417c-2.72 0-3.185 1.32-3.185 2.254v1.707c0 1.478 1.013 2.255 3.185 2.255H17.79c-1.09-1.866-1.866-3.962-2.02-6.216H6.289zm9.483-2.33c.153-2.41.93-4.663 2.176-6.605H3.186C.466 17.483 0 18.803 0 19.737v2.178c0 2.253 2.176 2.253 3.186 2.253H15.77v-.08z" fill="currentColor" fill-rule="evenodd"/></symbol><symbol viewBox="0 0 60 50" id="access-input-icon" xmlns="http://www.w3.org/2000/svg"><defs><path id="aba" d="M0 14.286V0h14.286v14.286z"/></defs><g fill="none" fill-rule="evenodd"><g transform="translate(0 18.571)"><mask id="abb" fill="#fff"><use xlink:href="#aba"/></mask><path d="M14.286 7.143A7.143 7.143 0 1 1 0 7.143a7.143 7.143 0 0 1 14.286 0" fill="currentColor" mask="url(#abb)"/></g><path d="M47.143 7.143a7.143 7.143 0 1 1-14.286 0 7.143 7.143 0 0 1 14.286 0M47.143 42.857a7.143 7.143 0 1 1-14.286 0 7.143 7.143 0 0 1 14.286 0" fill="currentColor"/><path d="M29.286 30.714A5.722 5.722 0 0 1 23.57 25a5.722 5.722 0 0 1 5.715-5.714A5.722 5.722 0 0 1 35 25a5.722 5.722 0 0 1-5.714 5.714m22.857-12.143a7.134 7.134 0 0 0-6.682 4.643h-7.065c-.832-4.271-4.593-7.5-9.11-7.5a9.243 9.243 0 0 0-2.941.483l-2.595-4.146a7.113 7.113 0 0 0 1.964-4.908 7.143 7.143 0 1 0-4.986 6.81l2.511 4.01A9.256 9.256 0 0 0 20 25a9.27 9.27 0 0 0 3.397 7.18l-2.548 3.914a7.098 7.098 0 0 0-2.277-.38 7.143 7.143 0 1 0 7.143 7.143 7.096 7.096 0 0 0-1.878-4.813l2.715-4.168a9.32 9.32 0 0 0 2.735.41c4.517 0 8.278-3.229 9.11-7.5h6.693c.52 3.435 3.474 6.071 7.054 6.071a7.144 7.144 0 0 0 0-14.286" fill="currentColor"/></g></symbol><symbol viewBox="0 0 33 29" id="arrow-left" xmlns="http://www.w3.org/2000/svg"><g stroke-width="2" stroke="currentColor" fill="none" fill-rule="evenodd"><path d="M15 28L2 14.5 15 1M2 15h31"/></g></symbol><symbol viewBox="0 0 33 29" id="arrow-right" xmlns="http://www.w3.org/2000/svg"><g stroke-width="2" stroke="currentColor" fill="none" fill-rule="evenodd"><path d="M18 1l13 13.5L18 28M31 14H0"/></g></symbol><symbol viewBox="0 0 50 68" id="certifications-icon" xmlns="http://www.w3.org/2000/svg"><defs><path id="aea" d="M0 0v67.149h49.894V0z"/></defs><g fill="none" fill-rule="evenodd"><mask id="aeb" fill="#fff"><use xlink:href="#aea"/></mask><path d="M13.016 62.573l-4.95 1.423c-.472.133-.95-.339-.745-.813l4.134-12.882a4.356 4.356 0 0 0 3.117 1.29c.406 0 .813-.068 1.222-.205l3.524-1.085 2.712 2.507c.067.067.204.134.271.204l-4.405 13.625c-.134.473-.746.61-1.084.204l-3.185-4.067c-.07-.2-.343-.272-.61-.2M38.568 50.3l4.2 12.947c.135.473-.27.949-.744.81l-5.016-1.421c-.272-.067-.474 0-.678.204l-3.185 4.067c-.338.407-.95.272-1.083-.204L27.656 53.08c.067-.068.205-.135.273-.205l2.712-2.506 3.522 1.083a3.88 3.88 0 0 0 1.223.204c1.283-.066 2.371-.539 3.183-1.355m-3.933-26.435l-4.338 3.661 1.355 5.49c.272 1.016-.883 1.828-1.762 1.288l-4.879-2.983-4.81 2.983c-.884.544-2.035-.272-1.763-1.289l1.355-5.489-4.339-3.661c-.81-.678-.405-2.034.68-2.1l5.693-.406 2.167-5.29c.407-1.016 1.829-1.016 2.24 0l2.166 5.29 5.695.406c.878.066 1.356 1.422.54 2.1m-9.624-11.862c-7.456 0-13.49 6.034-13.49 13.49 0 7.455 6.034 13.49 13.49 13.49s13.49-6.035 13.49-13.49c0-7.456-6.034-13.49-13.49-13.49m0 30.03c-9.083 0-16.472-7.39-16.472-16.474 0-9.083 7.39-16.472 16.472-16.472 9.084 0 16.474 7.39 16.474 16.472 0 9.017-7.39 16.473-16.474 16.473m19.59-7.795l4.879-2.711c.407-.273.544-.811.273-1.222l-3.255-4.473a.81.81 0 0 1 0-.95l3.184-4.54c.272-.405.134-1.015-.273-1.221l-4.878-2.644c-.34-.205-.473-.544-.407-.883l.95-5.489c.067-.473-.271-.95-.812-.95l-5.557-.204a.792.792 0 0 1-.744-.61l-1.56-5.357a.859.859 0 0 0-1.152-.544l-5.084 2.168c-.408.212-.748.078-1.02-.194L25.419.28c-.34-.406-.95-.34-1.29 0l-3.66 4.2c-.204.273-.611.34-.95.206l-5.15-2.1a.853.853 0 0 0-1.152.543l-1.49 5.355a.793.793 0 0 1-.744.611l-5.557.34c-.473 0-.883.472-.745 1.016l1.017 5.423c.067.339-.135.677-.405.881l-4.88 2.712c-.406.272-.544.813-.272 1.222l3.255 4.472a.808.808 0 0 1 0 .95l-3.183 4.54c-.273.406-.136 1.017.27 1.222l4.88 2.645a.817.817 0 0 1 .405.881l-.95 5.49c-.067.474.272.95.813.95l5.557.205c.338 0 .678.272.744.61l1.56 5.356a.859.859 0 0 0 1.152.544l5.083-2.168c.339-.134.746-.067.95.205l3.727 4.134c.34.406.951.339 1.29 0l3.66-4.201c.206-.272.61-.339.95-.205l5.152 2.1a.85.85 0 0 0 1.15-.543l1.49-5.355a.793.793 0 0 1 .746-.611l5.555-.34c.474 0 .883-.472.745-1.016l-1.017-5.423c0-.349.205-.759.477-.893" fill="currentColor" mask="url(#aeb)"/></g></symbol><symbol viewBox="0 0 50 59" id="climate-icon" xmlns="http://www.w3.org/2000/svg"><defs><path id="afa" d="M0 .298v3.935h7.962V.298H0z"/></defs><g fill="none" fill-rule="evenodd"><path d="M17.485 7.456a1.149 1.149 0 1 1-2.208.64l-1.638-5.661a1.152 1.152 0 0 1 2.211-.64l1.635 5.66zM31.675 21.143c0 6.315-5.119 11.431-11.431 11.431-6.316 0-11.432-5.116-11.432-11.431 0-6.312 5.115-11.432 11.432-11.432 6.312 0 11.431 5.12 11.431 11.432M23.056 35.015a1.153 1.153 0 0 1 .786-1.426 1.154 1.154 0 0 1 1.426.786l1.636 5.66a1.15 1.15 0 1 1-2.21.638l-1.638-5.658z" fill="currentColor"/><g transform="translate(0 23.678)"><mask id="afb" fill="#fff"><use xlink:href="#afa"/></mask><path d="M6.491.343c.61-.176 1.25.175 1.426.786A1.148 1.148 0 0 1 7.13 2.55l-5.66 1.637a1.151 1.151 0 0 1-.64-2.211L6.49.343z" fill="currentColor" mask="url(#afb)"/></g><path d="M28.045 9.524a1.15 1.15 0 1 1-2.015-1.11l2.845-5.16a1.15 1.15 0 0 1 2.015 1.11l-2.845 5.16zM12.496 32.95a1.153 1.153 0 0 1 1.563-.453c.557.307.76 1.006.452 1.563l-2.845 5.16a1.15 1.15 0 1 1-2.015-1.113l2.845-5.158zM8.557 13.46a1.15 1.15 0 0 1-1.11 2.016L2.29 12.63a1.15 1.15 0 0 1-.453-1.562 1.153 1.153 0 0 1 1.565-.453l5.155 2.846zM33.41 16.238a1.15 1.15 0 1 0 .64 2.21l.524-.15v-2.396l-1.163.336zM33.095 26.994a1.15 1.15 0 1 0-1.11 2.017l2.589 1.43v-2.629l-1.479-.818zM42.788 44.619a2.04 2.04 0 0 0 .036-.358V11.215a1.872 1.872 0 0 0-3.747 0V44.26c0 .123.011.241.036.358a5.57 5.57 0 1 0 3.676 0" fill="currentColor"/><path d="M40.95 57.25c-4.066 0-7.372-3.307-7.372-7.375a7.406 7.406 0 0 1 3.645-6.36l.387-.226V4.905c0-1.842 1.5-3.341 3.342-3.341 1.845 0 3.343 1.5 3.343 3.341V43.29l.386.226a7.412 7.412 0 0 1 3.646 6.36c-.003 4.068-3.31 7.375-7.378 7.375zm4.907-14.84V4.906A4.91 4.91 0 0 0 40.952 0a4.911 4.911 0 0 0-4.905 4.905V42.41a8.98 8.98 0 0 0-4.03 7.467c0 4.929 4.01 8.935 8.936 8.935 4.925 0 8.934-4.01 8.934-8.935a8.98 8.98 0 0 0-4.03-7.467z" fill="currentColor"/></g></symbol><symbol viewBox="0 0 38 38" id="coffee-mug" xmlns="http://www.w3.org/2000/svg"><g fill="none" fill-rule="evenodd"><mask id="aga" fill="#fff"><path d="M0 38V0h38v38z"/></mask><path fill="currentColor" d="M28.966 22.764a93.85 93.85 0 0 0 1.048-6.946c.466-4.26.642-8.171.757-11.033.526-.173 3.322-.931 4.893.234.758.585 1.166 1.578 1.166 2.92.058 4.96-2.97 10.507-7.864 14.825m7.398-18.677c-1.805-1.286-4.485-.819-5.593-.528V.583c0-.292-.29-.583-.582-.583H.597a.586.586 0 0 0-.584.583c0 .06-.173 7.121.76 15.178 1.22 10.857 3.785 18.328 7.513 22.063a.523.523 0 0 0 .408.176h13.398c.175 0 .29-.058.408-.176 2.62-2.628 4.66-7.122 6.06-13.309 4.542-3.617 9.436-9.865 9.436-16.577.058-1.75-.524-3.034-1.632-3.85" mask="url(#aga)"/></g></symbol><symbol viewBox="0 0 70 49" id="consumer-edu-icon" xmlns="http://www.w3.org/2000/svg"><defs><path id="aha" d="M11.84.265v5.71H.399V.266H11.84z"/><path id="ahc" d="M28.83.384H.712v36.51H28.83V.384z"/></defs><g fill="none" fill-rule="evenodd"><g transform="translate(57.692 25.77)"><mask id="ahb" fill="#fff"><use xlink:href="#aha"/></mask><path d="M1.488.275C.908.355.458.822.404 1.404A1.26 1.26 0 0 0 1.25 2.72l8.829 3.152a1.262 1.262 0 0 0 1.685-.724 1.26 1.26 0 0 0-.057-.995 1.257 1.257 0 0 0-.761-.645L2.118.355c-.2-.08-.416-.107-.63-.08" fill="currentColor" mask="url(#ahb)"/></g><path d="M59.259 17.848c-.336.014-.65.162-.875.411a1.256 1.256 0 0 0-.328.91 1.263 1.263 0 0 0 1.32 1.202h8.83c.337.004.663-.126.904-.362a1.272 1.272 0 0 0 0-1.798 1.266 1.266 0 0 0-.904-.363h-8.829a1.014 1.014 0 0 0-.118 0M68.107 7.758a1.21 1.21 0 0 0-.336.079l-8.828 3.153a1.264 1.264 0 0 0-.818 1.64 1.266 1.266 0 0 0 1.685.724L68.64 10.2c.597-.215.939-.837.806-1.456a1.263 1.263 0 0 0-1.338-.987M18.448 26.69H3.366A3.366 3.366 0 0 1 0 23.327v-8.6a3.367 3.367 0 0 1 3.365-3.365h15.08l.002 15.33z" fill="currentColor"/><g transform="translate(19.23 .386)"><mask id="ahd" fill="#fff"><use xlink:href="#ahc"/></mask><path d="M.713 26.305h3.49s14.335 1.799 19.693 9.001c5.36 7.203 4.925-12.178 4.925-16.668 0-4.488.435-23.87-4.925-16.667-5.358 7.204-19.692 9.001-19.692 9.001H.714v15.333z" fill="currentColor" mask="url(#ahd)"/></g><path d="M49.554 14.82a4.207 4.207 0 1 1 0 8.415V14.82zM5.38 28.187s1.776.749 2.337 2.899c.563 2.15-2.524 17.76 8.694 17.76 11.219 0 5.14-4.486 3.46-6.544-1.685-2.057-4.861-8.319-3.928-14.115H5.38z" fill="currentColor"/></g></symbol><symbol viewBox="0 0 65 75" id="consumer-pol-icon" xmlns="http://www.w3.org/2000/svg"><defs><path id="aia" d="M2.619 20.172H.372V.1H2.62v20.072z"/><path id="aic" d="M.374.116h2.247v20.072H.374V.116z"/></defs><g fill="none" fill-rule="evenodd"><path d="M23.846 37.672a8.284 8.284 0 1 1 16.567 0 8.284 8.284 0 0 1-16.567 0" fill="currentColor"/><g transform="translate(30.632 54.425)"><mask id="aib" fill="#fff"><use xlink:href="#aia"/></mask><path d="M1.495 20.173a1.124 1.124 0 0 1-1.123-1.124V1.224a1.122 1.122 0 1 1 2.247 0v17.825a1.126 1.126 0 0 1-1.124 1.124" fill="currentColor" mask="url(#aib)"/></g><path d="M39.196 63.837c-.29 0-.576-.11-.796-.329l-6.273-6.273-6.271 6.273a1.123 1.123 0 1 1-1.587-1.59l7.066-7.063a1.127 1.127 0 0 1 1.587 0l7.067 7.066a1.121 1.121 0 0 1-.793 1.916" fill="currentColor"/><g transform="translate(30.632 .632)"><mask id="aid" fill="#fff"><use xlink:href="#aic"/></mask><path d="M1.498.116c.619 0 1.123.502 1.123 1.123v17.825a1.122 1.122 0 1 1-2.247 0V1.24A1.126 1.126 0 0 1 1.498.116" fill="currentColor" mask="url(#aid)"/></g><path d="M25.062 11.507c.289 0 .576.111.796.33l6.272 6.271 6.272-6.272a1.121 1.121 0 0 1 1.587 0c.438.44.438 1.15 0 1.59l-7.066 7.064a1.126 1.126 0 0 1-1.587 0l-7.068-7.067a1.121 1.121 0 0 1 .794-1.916M64.106 56.136a1.124 1.124 0 0 1-1.535.41l-15.436-8.912a1.122 1.122 0 1 1 1.123-1.945L63.695 54.6c.537.313.72.999.41 1.535" fill="currentColor"/><path d="M58.322 44.634c-.143.25-.385.443-.684.525l-8.568 2.296 2.296 8.568c.161.599-.193 1.214-.793 1.374-.6.161-1.215-.194-1.377-.794l-2.584-9.651a1.128 1.128 0 0 1 .795-1.375l9.652-2.589a1.123 1.123 0 0 1 1.263 1.646M.152 19.209c.31-.536.997-.722 1.535-.411l15.436 8.912A1.123 1.123 0 1 1 16 29.656L.563 20.743a1.126 1.126 0 0 1-.411-1.534" fill="currentColor"/><path d="M5.936 30.71a1.13 1.13 0 0 1 .683-.525l8.568-2.296-2.296-8.568a1.12 1.12 0 0 1 .794-1.374c.6-.16 1.215.194 1.377.794l2.583 9.651a1.126 1.126 0 0 1-.794 1.375l-9.653 2.59a1.122 1.122 0 0 1-1.262-1.647M64.108 19.21a1.124 1.124 0 0 1-.412 1.535l-15.438 8.912a1.124 1.124 0 0 1-1.123-1.946L62.573 18.8a1.127 1.127 0 0 1 1.535.412" fill="currentColor"/><path d="M51.255 18.469c.144.25.191.554.113.855l-2.296 8.568 8.568 2.296c.6.16.954.775.793 1.373-.16.6-.775.955-1.376.796l-9.65-2.588a1.127 1.127 0 0 1-.794-1.375l2.585-9.654a1.122 1.122 0 0 1 2.057-.271M.15 56.134a1.124 1.124 0 0 1 .412-1.535L16 45.687a1.122 1.122 0 1 1 1.123 1.945L1.685 56.545a1.126 1.126 0 0 1-1.534-.411" fill="currentColor"/><path d="M13.003 56.875a1.132 1.132 0 0 1-.113-.855l2.296-8.567-8.568-2.297a1.123 1.123 0 0 1 .583-2.169l9.65 2.589c.596.159.953.778.794 1.373l-2.585 9.656a1.124 1.124 0 0 1-2.057.27" fill="currentColor"/></g></symbol><symbol viewBox="0 0 20 20" id="download" xmlns="http://www.w3.org/2000/svg"><g fill="currentColor" fill-rule="evenodd"><path d="M8.299 0v8.828L4.642 5.061 3 6.987l6.5 6.697L16 6.987l-1.643-1.926-3.656 3.767V0z"/><path d="M17.5 12.632v4.688h-15v-4.688H0V20h20v-7.368z"/></g></symbol><symbol viewBox="0 0 75 34" id="edu-health-icon" xmlns="http://www.w3.org/2000/svg"><g fill="currentColor" fill-rule="evenodd"><path d="M27.234 21.832l-2.972-8.777-2.973 15.206-2.695-13.96-.76 1.935-10.231-.003c3.594 7.673 13.133 14.099 15.135 15.343.276.138.554.138.761 0 2.004-1.244 11.542-7.74 15.068-15.343H29.03l-1.795 5.6z"/><path d="M19.078 8.01l2.21 11.266 2.558-12.924 3.317 9.952.554-1.729h11.474c.416-1.244.622-2.557.622-3.801 0-5.184-4.218-10.092-9.401-10.092-3.872 0-5.392 2.003-6.913 3.73a.647.647 0 0 1-1.035 0C20.943 2.616 19.49.683 15.552.683c-5.184 0-9.4 4.908-9.4 10.092 0 1.312.206 2.557.62 3.801h9.746l2.56-6.566z"/><path d="M.83 14.575a.841.841 0 0 0-.83.83c0 .415.416.828.83.828h6.773c-.276-.553-.483-1.175-.691-1.728H.829v.07zM45.204 14.575h-6.012c-.208.554-.416 1.175-.692 1.729h6.704c.483 0 .829-.416.829-.83 0-.415-.346-.899-.83-.899M70.256 4.442a1.374 1.374 0 0 0-1.944 0L66.271 6.48l5.636 5.635 2.04-2.04a1.374 1.374 0 0 0 0-1.943l-3.691-3.691zM67.292 8.377L49.385 26.283a16.67 16.67 0 0 1-1.232-1.67 4.29 4.29 0 0 1 .203-.215l17.478-17.48 1.458 1.459zM47.056 26.463c.176-.5.422-.97.73-1.395.646.982 1.494 2.024 2.503 3.032a19.547 19.547 0 0 0 3.033 2.503 5.53 5.53 0 0 1-1.395.73l-4.645 1.631-.194-.11a4.114 4.114 0 0 1-1.553-1.553l-.11-.195 1.631-4.643zM53.992 30.033c-.071.07-.142.137-.214.204A16.972 16.972 0 0 1 52 28.914L69.915 11l1.556 1.554-17.48 17.48zM67.68 8.765l1.846 1.845L51.59 28.547a17.734 17.734 0 0 1-1.84-1.852l17.93-17.93zM46.709 33.171l-1.167.602c-.594.305-1.233-.332-.926-.926l.6-1.168c.362.618.875 1.133 1.493 1.492"/></g></symbol><symbol viewBox="0 0 26 26" id="facebook" xmlns="http://www.w3.org/2000/svg"><g fill="none" fill-rule="evenodd"><mask id="ala" fill="#fff"><path d="M0 0v25.971h25.971V0z"/></mask><path d="M24.538 0H1.433C.642 0 0 .642 0 1.433v23.105c0 .791.642 1.433 1.433 1.433h12.439V15.914h-3.385v-3.92h3.385v-2.89c0-3.355 2.049-5.182 5.041-5.182 1.433 0 2.665.107 3.025.155v3.506h-2.076c-1.627 0-1.942.774-1.942 1.909v2.502H21.8l-.506 3.92H17.92V25.97h6.618c.791 0 1.433-.642 1.433-1.433V1.433C25.971.642 25.33 0 24.538 0" fill="currentColor" mask="url(#ala)"/></g></symbol><symbol viewBox="0 0 50 56" id="forest-con-icon" xmlns="http://www.w3.org/2000/svg"><g fill="none" fill-rule="evenodd"><path d="M49.952 55.474H0V0h49.952z"/><path d="M41.436 29.453h5.883c.331.001.609.278.61.61v1.45c0 .197-.08.29-.273.29H43.56c-.848.023-1.5.586-1.657 1.376-.023.11-.1.23-.231.203a2.11 2.11 0 0 0-.256-.036c-.12-.01-.216-.13-.235-.261-.017-.13-.255-3.078-.255-3.078-.003-.022-.004-.024-.004-.049.007-.295.2-.496.513-.505m-8.255 1.723a21.714 21.714 0 0 1 3.607-.288c.779 0 1.569.038 2.37.103.42.034.63.218.707.963.01.088.041.466.087 1.023.015.17-.012.282-.19.276a22.57 22.57 0 0 0-4.642.306c-.266.048-.404-.057-.462-.266-.343-.797-1.079-1.415-1.508-1.811-.09-.084-.071-.288.031-.306M6.425 0c.133 5.23 3.606 8.607 6.273 11.99 2.81 3.565 3.865 9.096 1.262 12.907-.18.262-.191.394-.112.65.336 1.083.598 2.152.79 3.135.04.203.133.34.365.254a16.745 16.745 0 0 1 3.458-.886c.187-.027.245-.18.254-.346.042-1.079.103-2.299.185-3.297.142-1.54 1.215-4.954 2.856-7.933-2.615 3.344-3.359 5.908-3.612 7.46-.02.117-.207.185-.278.098-2.014-2.426-1.964-7.02 1.793-10.473 4.311-3.96 4.054-5.726 4.054-5.726 2.142 5.892 4.61 14.808-3.352 16.763a.449.449 0 0 0-.361.375 8.635 8.635 0 0 0-.095 2.528c.022.196.152.393.383.385A16.888 16.888 0 0 1 33.4 33.467c.068.076.157.195.244.324.114.168-.013.329-.291.415-1.888.584-3.732 1.475-5.598 2.716l-1.053.702c-3.69 2.459-9.868 6.573-11.883 7.811-1.397.859-2.054 2.356-1.713 3.857.027.123-.012.268-.187.271-1.424.03-3.43.052-3.898.052-.762.015-1.977-.54-3.175-1.231-.488-.275-.972-.566-1.444-.84-.125-.07-.17-.146-.196-.31a16.822 16.822 0 0 1-.191-2.502c0-6.152 3.396-12.015 9.123-14.967.232-.119.3-.273.256-.519-1.519-8.209-5.699-12.458-6.865-16.845.137 4.181 3.107 7.625 4.386 12.2.225.8-.02.926-.198.87C-3.442 20.974 6.425.001 6.425.001m3.248 30.29c.083.117.062.213-.03.285-.179.14-.353.281-.524.427-.097.082-.22.03-.274-.057-3.7-5.99-8.409-7.685-8.409-7.685 2.446.34 6.119 2.633 9.237 7.03M2.89 46.547c.01.096-.033.18-.156.126a5.406 5.406 0 0 0-.332-.133 2.77 2.77 0 0 0-.762-.153c-.102-.007-.157-.11-.144-.213.073-.626.538-1.15 1.146-1.362.116-.041.154.024.156.145.006.534.038 1.063.092 1.59m38.952-1.135c-3.87.971-6.304 2.477-8.645 3.883-4.118 2.512-8.036 6.198-10.686 6.178l-13.688-.003-.084.002h-.033c-.95.005-2.35-.71-3.623-1.6-1.306-.896-2.478-1.904-3.337-2.403C.352 50.66.003 49.846 0 49.244c0-.816.725-1.505 1.485-1.506.152 0 .304.025.464.08.772.269 1.988 1.037 3.226 1.743 1.256.703 2.547 1.39 3.844 1.41.899 0 3.346-.016 4.365-.064l.075-.002c.32.009.326.075.579.308a3.41 3.41 0 0 0 2.359.947c.555 0 1.114-.133 1.657-.39l.663-.32c3.046-1.345 6.406-3.054 8.814-4.374a.754.754 0 0 0 .296-1.013.747.747 0 0 0-1.012-.297 209.553 209.553 0 0 1-9.35 4.766c-.38.18-.738.256-1.071.258-1.238-.003-2.143-1.108-2.144-2.282.002-.736.35-1.489 1.213-2.02 2.24-1.377 9.38-6.145 12.975-8.538 3.262-2.17 6.593-3.353 10.51-3.358l.015-.013v.013c.769 0 1.551.04 2.344.104.364.049.482.107.581.84.04.388.548 6.523.742 8.884.004.064.007.122.007.176-.016.645-.285.669-.795.817m7.64.814H44.79c-.247.01-.557-.283-.557-.524 0 0-1.014-12.154-1.014-12.177.017-.231.129-.353.38-.368h5.882c.25-.001.47.22.47.472l-.001 12.123a.482.482 0 0 1-.469.474" fill="currentColor"/></g></symbol><symbol viewBox="0 0 70 38" id="gender-icon" xmlns="http://www.w3.org/2000/svg"><g fill="currentColor" fill-rule="evenodd"><path d="M65.492 22.136c5.038 1.477 4.176 5.138 4.16 7.589H57.08c-.453-1.483-1.568-2.87-4.237-3.648l-.845-.252c-3.532-1.025-5.42-1.58-5.912-2.693-.122-.403-.083-.845 1.092-1.276 3.784-1.103 5.7-1.68 6.152-3.096h.241a1.328 1.328 0 0 1-.186-.18c-1.87-1.802-3.297-5.316-3.297-8.154 0-4.014 3.074-6.656 5.984-6.656 2.905 0 5.832 2.85 5.832 6.868 0 2.84-1.59 6.248-3.536 7.987.397 1.646 2.585 2.184 7.124 3.511"/><path d="M54.859 37.122H15.795c-.023-.393-.05-.784-.095-1.243-.124-1.544-.241-3.129.19-4.583.526-1.703 1.898-3.203 5.06-4.126l1.226-.393c5.563-1.589 8.541-2.484 9.527-4.584l.312-.525-.022-.667a.898.898 0 0 1-.219-.207c-.335-.347-.67-.688-.984-1.102-2.16-2.743-3.694-6.98-3.694-10.48C27.096 4.74 30.41 0 35.351 0c3.863 0 8.016 3.823 8.016 9.532 0 3.639-1.898 8.15-4.49 10.803-.166.185-.358.346-.526.51l-.312.28.095.413c.672 2.626 3.694 3.521 9.768 5.251l1.246.391c3.147.924 4.63 2.442 5.28 4.125h.023c.598 1.636.525 3.41.453 5.066-.023.24-.023.515-.045.75"/><path d="M4.226 22.136C-.817 23.613.05 27.274.067 29.725h12.571c.455-1.483 1.568-2.87 4.242-3.648l.84-.252c3.533-1.025 5.424-1.58 5.917-2.693-.134-.443.112-1.104-1.098-1.276-3.776-1.103-5.697-1.68-6.145-3.096h-.235c.062-.056.128-.112.185-.18 1.87-1.802 3.296-5.316 3.296-8.154 0-4.014-3.071-6.656-5.982-6.656-2.912 0-5.833 2.85-5.833 6.868 0 2.84 1.583 6.248 3.532 7.987-.403 1.646-2.597 2.184-7.131 3.511"/></g></symbol><symbol viewBox="0 0 18 18" id="instagram" xmlns="http://www.w3.org/2000/svg"><path d="M13.712 3.098a1.073 1.073 0 1 0 0 2.146 1.073 1.073 0 0 0 0-2.146M8.94 11.93a2.981 2.981 0 0 1-2.98-2.983 2.981 2.981 0 0 1 2.98-2.982 2.981 2.981 0 0 1 2.98 2.982 2.981 2.981 0 0 1-2.98 2.983m0-7.577a4.593 4.593 0 0 0-4.591 4.594 4.593 4.593 0 0 0 4.59 4.595 4.593 4.593 0 0 0 4.591-4.595 4.593 4.593 0 0 0-4.59-4.594m7.276 8.21c-.04.872-.185 1.346-.307 1.661a2.772 2.772 0 0 1-.67 1.03 2.77 2.77 0 0 1-1.027.668c-.315.123-.788.269-1.66.308-.943.044-1.225.053-3.612.053-2.388 0-2.67-.01-3.613-.053-.871-.04-1.345-.185-1.66-.308a2.77 2.77 0 0 1-1.028-.669 2.774 2.774 0 0 1-.668-1.029c-.123-.315-.268-.789-.308-1.661-.043-.944-.052-1.227-.052-3.616 0-2.389.009-2.672.052-3.615.04-.873.185-1.346.308-1.662.162-.417.356-.715.668-1.028a2.77 2.77 0 0 1 1.028-.67c.315-.122.789-.268 1.66-.308.943-.043 1.226-.052 3.613-.052s2.67.01 3.612.052c.872.04 1.345.186 1.66.308a2.77 2.77 0 0 1 1.028.67c.313.313.507.61.669 1.028.122.316.268.79.307 1.662.043.943.053 1.226.053 3.615 0 2.39-.01 2.672-.053 3.616m1.61-7.305c-.044-.952-.195-1.602-.416-2.172a4.386 4.386 0 0 0-1.031-1.584A4.381 4.381 0 0 0 14.795.47c-.568-.221-1.218-.373-2.17-.416C11.672.01 11.368 0 8.94 0S6.207.01 5.254.054c-.952.043-1.602.195-2.17.416A4.38 4.38 0 0 0 1.5 1.502 4.385 4.385 0 0 0 .47 3.086c-.222.57-.373 1.22-.416 2.172C.01 6.213 0 6.518 0 8.948c0 2.43.01 2.734.054 3.688.043.953.194 1.603.415 2.172A4.385 4.385 0 0 0 1.5 16.393a4.38 4.38 0 0 0 1.584 1.032c.568.221 1.218.372 2.17.416.953.043 1.258.054 3.686.054s2.732-.01 3.685-.054c.952-.044 1.602-.195 2.17-.416a4.381 4.381 0 0 0 1.584-1.032 4.386 4.386 0 0 0 1.031-1.585c.221-.569.372-1.22.416-2.172.043-.954.053-1.259.053-3.689s-.01-2.734-.053-3.689" fill="currentColor" fill-rule="evenodd"/></symbol><symbol viewBox="0 0 51 59" id="issue-climate" xmlns="http://www.w3.org/2000/svg"><g fill="none" fill-rule="evenodd"><path fill="currentColor" d="M17.985 7.456a1.149 1.149 0 1 1-2.208.64l-1.638-5.661a1.152 1.152 0 0 1 2.211-.64l1.635 5.66zm14.19 13.687c0 6.315-5.119 11.431-11.431 11.431-6.316 0-11.432-5.116-11.432-11.431 0-6.312 5.115-11.432 11.432-11.432 6.312 0 11.431 5.12 11.431 11.432m-8.619 13.872a1.153 1.153 0 0 1 .786-1.426 1.154 1.154 0 0 1 1.426.786l1.636 5.66a1.15 1.15 0 1 1-2.21.638l-1.638-5.658z"/><g transform="translate(.5 23.678)"><mask id="apa" fill="#fff"><path d="M0 .298v3.935h7.962V.298H0z"/></mask><path fill="currentColor" d="M6.491.343c.61-.176 1.25.175 1.426.786A1.148 1.148 0 0 1 7.13 2.55l-5.66 1.637a1.151 1.151 0 0 1-.64-2.211L6.49.343z" mask="url(#apa)"/></g><path fill="currentColor" d="M28.545 9.524a1.15 1.15 0 1 1-2.015-1.11l2.845-5.16a1.15 1.15 0 0 1 2.015 1.11l-2.845 5.16zM12.996 32.95a1.153 1.153 0 0 1 1.563-.452c.557.307.76 1.006.452 1.563l-2.845 5.16a1.15 1.15 0 1 1-2.015-1.113l2.845-5.158zM9.057 13.461a1.15 1.15 0 0 1-1.11 2.015L2.79 12.63a1.15 1.15 0 0 1-.453-1.562 1.153 1.153 0 0 1 1.565-.453l5.155 2.846zm24.854 2.777a1.15 1.15 0 1 0 .64 2.21l.523-.15v-2.396l-1.163.336zm-.316 10.756a1.15 1.15 0 1 0-1.11 2.017l2.589 1.43v-2.629l-1.479-.818zm9.693 17.625a2.04 2.04 0 0 0 .036-.358V11.215a1.872 1.872 0 0 0-3.747 0V44.26c0 .123.011.241.036.358a5.57 5.57 0 1 0 3.676 0"/><path fill="currentColor" d="M41.45 57.25c-4.066 0-7.372-3.307-7.372-7.375a7.406 7.406 0 0 1 3.645-6.36l.387-.226V4.905c0-1.842 1.5-3.341 3.342-3.341 1.845 0 3.343 1.5 3.343 3.341V43.29l.386.226a7.412 7.412 0 0 1 3.646 6.36c-.003 4.068-3.31 7.375-7.378 7.375zm4.907-14.84V4.906A4.91 4.91 0 0 0 41.452 0a4.911 4.911 0 0 0-4.905 4.905V42.41a8.98 8.98 0 0 0-4.03 7.467c0 4.929 4.01 8.935 8.936 8.935 4.925 0 8.934-4.01 8.934-8.935a8.98 8.98 0 0 0-4.03-7.467z"/></g></symbol><symbol viewBox="0 0 50 50" id="issue-consumer" xmlns="http://www.w3.org/2000/svg"><g fill="none" fill-rule="evenodd"><path fill="currentColor" d="M45.153 22.959c-1.283-.416-2.611-.49-3.803-.406-.04.006-.079.006-.12.006-.717 0-1.122-.5-1.122-.5v-.006c-.085-1.204-.233-2.071-.37-2.459-.457-1.289-14.535-1.991-19.642-1.991-5.107 0-19.187.702-19.643 1.991-.99 2.785-2.336 29.95 19.643 29.95 5.477 0 9.507-1.687 12.454-4.276.029-.018.051-.04.08-.062.01-.012.028-.023.045-.04.456-.393 2.178-1.811 5.552-3.785 2.6-1.25 4.783-2.572 6.628-4.007 3.084-2.391 4.755-5.132 4.828-7.911.075-2.937-1.789-5.615-4.53-6.504m-25.023-.44c-9.462 0-17.14-.782-17.14-1.749 0-.967 7.678-1.755 17.14-1.755 9.468 0 17.14.788 17.14 1.755 0 .967-7.672 1.75-17.14 1.75m22.925 12.598c-1.55 1.204-3.449 2.363-5.665 3.46 1.863-4.096 2.576-8.625 2.752-12.255v-.005c.005-.574.599-.783.746-.827.013-.006.018-.006.024-.006 1.606-.22 2.724.006 3.328.202 1.533.501 2.577 2.021 2.53 3.697-.062 2.403-2.05 4.445-3.715 5.734"/><path d="M19.17.685h5.326v13.912H19.17V.685z"/><path fill="currentColor" d="M3.518.463a1.07 1.07 0 0 0-.685 1.77C3.865 3.439 3.96 4.16 3.818 4.84c-.139.681-.66 1.437-1.319 2.272-.657.836-1.444 1.735-1.737 2.974-.292 1.238.16 2.69 1.486 3.976a1.075 1.075 0 0 0 1.505-1.537c-1.001-.974-1.048-1.418-.92-1.954.128-.537.681-1.283 1.354-2.139.672-.856 1.466-1.844 1.737-3.174.272-1.33-.14-2.88-1.454-4.41a1.071 1.071 0 0 0-.952-.385" mask="url(#b)" transform="translate(18.493 .229)"/><path d="M12.329.685h5.326v13.912h-5.326V.685z"/><path fill="currentColor" d="M2.841.463a1.07 1.07 0 0 0-.684 1.77C3.188 3.439 3.282 4.16 3.14 4.84c-.14.681-.66 1.437-1.319 2.272-.657.836-1.445 1.735-1.737 2.974-.292 1.238.16 2.69 1.487 3.976a1.074 1.074 0 1 0 1.504-1.537c-1.001-.974-1.048-1.418-.92-1.954.128-.537.68-1.283 1.354-2.139.672-.856 1.465-1.844 1.737-3.174.271-1.33-.14-2.88-1.454-4.41a1.072 1.072 0 0 0-.952-.385" mask="url(#d)" transform="translate(12.329 .229)"/><g><path d="M26.011.685h5.326v13.912h-5.326V.685z"/><path fill="currentColor" d="M3.51.463a1.07 1.07 0 0 0-.685 1.77c1.032 1.205 1.126 1.926.986 2.607-.14.681-.662 1.437-1.32 2.272-.657.836-1.444 1.735-1.736 2.974-.293 1.238.16 2.69 1.485 3.976a1.075 1.075 0 0 0 1.505-1.537c-1.001-.974-1.047-1.418-.92-1.954.128-.537.681-1.283 1.354-2.139.672-.856 1.466-1.844 1.737-3.174.272-1.33-.14-2.88-1.454-4.41A1.071 1.071 0 0 0 3.51.463" mask="url(#f)" transform="translate(25.342 .229)"/></g></g></symbol><symbol viewBox="0 0 71 50" id="issue-consumer-education" xmlns="http://www.w3.org/2000/svg"><g fill="none" fill-rule="evenodd"><path d="M70.62 26.442v5.8H58.998v-5.8H70.62z"/><path fill="currentColor" d="M1.51.28a1.28 1.28 0 1 0-.24 2.483l8.967 3.201a1.282 1.282 0 0 0 1.71-.735c.122-.33.102-.696-.056-1.011a1.277 1.277 0 0 0-.773-.655L2.15.36C1.948.28 1.73.252 1.511.28" mask="url(#b)" transform="translate(58.594 26.173)"/><path fill="currentColor" d="M60.185 18.127c-.34.014-.66.164-.889.418-.23.249-.347.582-.332.923a1.283 1.283 0 0 0 1.341 1.22h8.966c.343.006.674-.127.92-.367a1.292 1.292 0 0 0 0-1.827 1.286 1.286 0 0 0-.92-.367h-8.966a1.03 1.03 0 0 0-.12 0M69.17 7.879c-.118.01-.23.037-.341.08l-8.966 3.203a1.284 1.284 0 0 0-.831 1.666 1.286 1.286 0 0 0 1.712.734l8.966-3.201c.606-.219.954-.85.819-1.479a1.282 1.282 0 0 0-1.359-1.003M18.736 27.108H3.42A3.419 3.419 0 0 1 0 23.691v-8.735a3.42 3.42 0 0 1 3.418-3.418h15.315l.002 15.57z"/><path d="M48.811.782H20.255v37.08h28.556V.782z"/><path fill="currentColor" d="M.724 26.716H4.27s14.557 1.827 20 9.142c5.443 7.315 5.001-12.369 5.001-16.928 0-4.559.442-24.244-5.001-16.928-5.442 7.316-20 9.142-20 9.142H.724v15.572z" mask="url(#d)" transform="translate(19.531 .392)"/><path fill="currentColor" d="M50.328 15.052a4.272 4.272 0 1 1 0 8.546v-8.546zM5.464 28.627s1.804.76 2.374 2.944c.57 2.184-2.563 18.039 8.83 18.039s5.22-4.556 3.513-6.647c-1.71-2.09-4.937-8.449-3.99-14.336H5.465z"/></g></symbol><symbol viewBox="0 0 85 39" id="issue-education" xmlns="http://www.w3.org/2000/svg"><g fill="none" fill-rule="evenodd"><path fill="currentColor" d="M31.366 24.743l-3.37-9.947-3.369 17.233-3.053-15.822-.863 2.194-11.595-.003c4.074 8.696 14.885 15.978 17.153 17.388.313.156.629.156.864 0 2.27-1.41 13.08-8.772 17.077-17.388H33.4l-2.034 6.345z"/><g transform="translate(7.455 .502)"><mask id="asa" fill="#fff"><path d="M38.166.271H.017v21.073h38.149V.271z"/></mask><path fill="currentColor" d="M14.667 8.575l2.506 12.769L20.07 6.697l3.759 11.279.628-1.96h13.004c.472-1.41.704-2.897.704-4.307C38.166 5.834 33.387.27 27.512.27c-4.388 0-6.11 2.27-7.834 4.228a.733.733 0 0 1-1.174 0C16.78 2.462 15.134.271 10.671.271 4.796.271.017 5.834.017 11.709c0 1.487.235 2.898.703 4.308h11.046l2.9-7.442z" mask="url(#asa)"/></g><path fill="currentColor" d="M1.44 16.518c-.548 0-.94.472-.94.94 0 .471.471.939.94.939h7.677c-.313-.627-.548-1.33-.784-1.958H1.44v.08zm50.291 0h-6.813c-.236.628-.472 1.332-.784 1.96h7.597c.548 0 .94-.472.94-.94 0-.472-.392-1.02-.94-1.02"/><g transform="translate(75.455 4.365)"><mask id="asb" fill="#fff"><path d="M9.309 9.366V.212H.152v9.154h9.157z"/></mask><path fill="currentColor" d="M4.669.669a1.557 1.557 0 0 0-2.203 0L.152 2.979 6.54 9.367l2.313-2.31a1.557 1.557 0 0 0 0-2.204L4.669.67z" mask="url(#asb)"/></g><path fill="currentColor" d="M76.764 9.494L56.47 29.787a18.892 18.892 0 0 1-1.396-1.893c.073-.083.15-.165.23-.243l19.808-19.81 1.652 1.653zM53.83 29.992c.2-.567.478-1.1.827-1.582.732 1.113 1.694 2.294 2.838 3.437 1.141 1.143 2.323 2.105 3.436 2.837a6.267 6.267 0 0 1-1.58.826l-5.265 1.85-.22-.126a4.663 4.663 0 0 1-1.76-1.76l-.125-.22 1.85-5.262zm7.86 4.046c-.08.08-.16.155-.242.23-.653-.419-1.33-.92-2.015-1.498l20.304-20.304 1.763 1.762-19.81 19.81zM77.204 9.934l2.092 2.091-20.328 20.328a20.098 20.098 0 0 1-2.084-2.099l20.32-20.32zM53.436 37.594l-1.322.681c-.674.346-1.397-.375-1.05-1.048l.682-1.324c.408.7.99 1.284 1.69 1.69"/></g></symbol><symbol viewBox="0 0 65 39" id="issue-finance" xmlns="http://www.w3.org/2000/svg"><path fill="currentColor" fill-rule="evenodd" d="M27.915 27.346c-.863 0-2.236-.29-2.236-1.3 0-.793-.577-1.371-1.371-1.371-.722 0-1.3.578-1.3 1.3-.071 2.02 1.733 3.464 3.536 3.896v1.443c0 .793.579 1.372 1.371 1.372.721 0 1.3-.58 1.3-1.301V29.87c2.094-.432 3.608-1.946 3.608-3.826 0-.939-.432-1.875-1.082-2.596-.94-.94-2.307-1.444-3.75-1.444-.865 0-2.236-.36-2.236-1.37 0-.65.94-1.3 2.236-1.3.793 0 2.236.36 2.236 1.3 0 .72.579 1.37 1.3 1.37.793 0 1.37-.578 1.37-1.37 0-2.093-1.802-3.32-3.535-3.825v-1.515c0-.721-.578-1.372-1.371-1.372-.722 0-1.372.579-1.372 1.3v1.515c-2.093.432-3.607 2.021-3.607 3.75 0 1.01.36 1.875 1.153 2.596.864.94 2.307 1.443 3.75 1.443.793 0 2.164.433 2.164 1.372.076.725-.864 1.447-2.164 1.447zm28.138-15.08C53.96 9.019 48.549 0 41.983 0H27.992s-2.525 0-2.525 2.597v1.586s0 2.094 2.525 2.094h9.16c.94 0 .94 2.092-.217 2.092H5.839c-2.525-.071-2.957 1.52-2.957 2.022v1.514c-.071 2.236 2.382 2.093 2.957 2.093h12.556a13.326 13.326 0 0 1 9.596-4.04 13.318 13.318 0 0 1 13.348 13.348c0 7.357-5.991 13.347-13.348 13.347-3.967 0-7.358-1.662-9.812-4.328h-6.64c-2.525 0-2.525 2.093-2.525 2.093v1.585c0 2.094 2.525 2.094 2.525 2.094h31.527c6.712 0 10.966-2.67 13.059-5.772h6.781C64.207 28.573 65 24.53 65 20.277c0-2.814-.361-5.482-.94-8.079h-8.007v.068zM5.839 24.53c-2.525 0-2.957 1.225-2.957 2.093v1.585c0 1.373.94 2.094 2.957 2.094h10.68c-1.011-1.733-1.733-3.679-1.875-5.772H5.84zm8.805-2.164a12.846 12.846 0 0 1 2.021-6.133H2.958C.432 16.234 0 17.46 0 18.327v2.022c0 2.093 2.02 2.093 2.958 2.093h11.686v-.075z"/></symbol><symbol viewBox="0 0 70 38" id="issue-gender" xmlns="http://www.w3.org/2000/svg"><g fill="currentColor" fill-rule="evenodd"><path d="M65.492 22.136c5.038 1.477 4.176 5.138 4.16 7.589H57.08c-.453-1.483-1.568-2.87-4.237-3.648l-.845-.252c-3.532-1.025-5.42-1.58-5.912-2.693-.122-.403-.083-.845 1.092-1.276 3.784-1.103 5.7-1.68 6.152-3.096h.241a1.328 1.328 0 0 1-.186-.18c-1.87-1.802-3.297-5.316-3.297-8.154 0-4.014 3.074-6.656 5.984-6.656 2.905 0 5.832 2.85 5.832 6.868 0 2.84-1.59 6.248-3.536 7.987.397 1.646 2.585 2.184 7.124 3.511"/><path d="M54.859 37.122H15.795c-.023-.393-.05-.784-.095-1.243-.124-1.544-.241-3.129.19-4.583.526-1.703 1.898-3.203 5.06-4.126l1.226-.393c5.563-1.589 8.541-2.484 9.527-4.584l.312-.525-.022-.667a.898.898 0 0 1-.219-.207c-.335-.347-.67-.688-.984-1.102-2.16-2.743-3.694-6.98-3.694-10.48C27.096 4.74 30.41 0 35.351 0c3.863 0 8.016 3.823 8.016 9.532 0 3.639-1.898 8.15-4.49 10.803-.166.185-.358.346-.526.51l-.312.28.095.413c.672 2.626 3.694 3.521 9.768 5.251l1.246.391c3.147.924 4.63 2.442 5.28 4.125h.023c.598 1.636.525 3.41.453 5.066-.023.24-.023.515-.045.75"/><path d="M4.226 22.137C-.817 23.614.05 27.275.067 29.725h12.571c.455-1.483 1.568-2.87 4.242-3.648l.84-.252c3.533-1.025 5.424-1.58 5.917-2.693-.134-.442.112-1.103-1.098-1.276-3.776-1.103-5.697-1.68-6.145-3.096h-.235c.062-.056.128-.112.185-.179 1.87-1.802 3.296-5.317 3.296-8.155 0-4.014-3.071-6.655-5.982-6.655-2.912 0-5.833 2.85-5.833 6.867 0 2.84 1.583 6.248 3.532 7.987-.403 1.647-2.597 2.184-7.131 3.512"/></g></symbol><symbol viewBox="0 0 60 50" id="issue-inputs" xmlns="http://www.w3.org/2000/svg"><g fill="none" fill-rule="evenodd"><path d="M0 32.857V18.571h14.286v14.286z"/><path fill="currentColor" d="M14.286 7.143A7.143 7.143 0 1 1 0 7.143a7.143 7.143 0 0 1 14.286 0" mask="url(#b)" transform="translate(0 18.571)"/><path fill="currentColor" d="M47.143 7.143a7.143 7.143 0 1 1-14.286 0 7.143 7.143 0 0 1 14.286 0m0 35.714a7.143 7.143 0 1 1-14.286 0 7.143 7.143 0 0 1 14.286 0"/><path fill="currentColor" d="M29.286 30.714A5.722 5.722 0 0 1 23.57 25a5.722 5.722 0 0 1 5.715-5.714A5.722 5.722 0 0 1 35 25a5.722 5.722 0 0 1-5.714 5.714m22.857-12.143a7.134 7.134 0 0 0-6.682 4.643h-7.065c-.832-4.271-4.593-7.5-9.11-7.5a9.243 9.243 0 0 0-2.941.483l-2.595-4.146a7.113 7.113 0 0 0 1.964-4.908 7.143 7.143 0 1 0-4.986 6.81l2.511 4.01A9.256 9.256 0 0 0 20 25a9.27 9.27 0 0 0 3.397 7.18l-2.548 3.914a7.098 7.098 0 0 0-2.277-.38 7.143 7.143 0 1 0 7.143 7.143 7.096 7.096 0 0 0-1.878-4.813l2.715-4.168a9.32 9.32 0 0 0 2.735.41c4.517 0 8.278-3.229 9.11-7.5h6.693c.52 3.435 3.474 6.071 7.054 6.071a7.144 7.144 0 0 0 0-14.286"/></g></symbol><symbol viewBox="0 0 60 50" id="issue-labor" xmlns="http://www.w3.org/2000/svg"><path fill="currentColor" fill-rule="evenodd" d="M14.983 7.635h-4.462L9.355 13.15l5.628-5.514zm2.697 16.432l3.335-6.045-6.97 3.193 3.635 2.852zM4.21 13.517L6.353 3.25A1.668 1.668 0 0 1 7.987 1.92h13.742c.552 0 1.06.266 1.373.714l6.442 9.233c.368.531.4 1.23.079 1.789L21.8 27.299l15.77 12.363c.175 0 .349.008.52.023a5.089 5.089 0 0 1 9.454.512 3.967 3.967 0 0 1 5.104 5.084 2.63 2.63 0 0 1 2.122 1.845 3.867 3.867 0 0 1 4.605 2.86H22.309a5.738 5.738 0 0 1 6.635-2.76 2.978 2.978 0 0 1 3.502-3.494 5.293 5.293 0 0 1 3.019-3.63L20.973 28.747l-.405.71 1.095 1.165a4.184 4.184 0 0 1 .63 4.852l-7.107 13.159a2.587 2.587 0 0 1-3.332 1.13c-1.297-.582-1.884-2.114-1.297-3.414l5.783-12.894-7.398-8.73v8.083c0 .356-.046.71-.137 1.06l-3.72 14.19a2.585 2.585 0 0 1-5.019-1.233L2.688 35.41c.072-.304.108-.622.108-.936V21.33a4.19 4.19 0 0 1 1.252-2.986L5.31 17.11a2.512 2.512 0 0 1-1.193-1.562L.963 13.08A.83.83 0 0 1 .82 11.92a.833.833 0 0 1 1.167-.143l2.223 1.741zm32.647-8.774a4.747 4.747 0 0 1-4.744 4.744 4.741 4.741 0 0 1-4.743-4.744 4.744 4.744 0 0 1 9.487 0z"/></symbol><symbol viewBox="0 0 50 49" id="issue-producer" xmlns="http://www.w3.org/2000/svg"><g fill="currentColor" fill-rule="evenodd"><path d="M25.024 34c-2.196 0-4.183-1.021-5.903-3.033a.515.515 0 0 1 .027-.693.437.437 0 0 1 .647.029c1.54 1.8 3.299 2.714 5.227 2.714 2.208 0 4.039-1.557 5.187-2.864a.437.437 0 0 1 .647-.02.518.518 0 0 1 .019.697c-1.821 2.073-3.843 3.17-5.85 3.17"/><path d="M35 32.482v9.024a.488.488 0 0 1-.494.494H16.481a.486.486 0 0 1-.481-.494v-8.808a.488.488 0 0 1 .975 0v8.326h17.05v-8.542c0-.265.217-.482.481-.482.278 0 .494.217.494.482m-22 1.974v6.58c0 .262-.223.468-.508.468h-2.477v5.028a.5.5 0 0 1-.508.468C9.223 47 9 46.794 9 46.532v-5.497c0-.25.223-.456.507-.456h2.477v-6.123c0-.251.223-.456.508-.456.273 0 .508.205.508.456m29 7.221v5.829c0 .277-.236.494-.524.494-.303 0-.538-.217-.538-.494v-5.333h-2.4c-.302 0-.538-.218-.538-.496v-7.181c0-.266.236-.496.537-.496.29 0 .525.23.525.496v6.686h2.414c.288 0 .524.229.524.495"/><path d="M32 31.506c0 .394-.047.788-.13 1.157C31.34 35.14 29.177 37 26.58 37h-4.264c-2.658 0-4.748-1.725-5.209-4.152A5.21 5.21 0 0 1 17 31.79c0-.27.212-.493.484-.493.26 0 .483.223.483.493 0 .222.013.432.049.64.295 2.083 2.043 3.573 4.3 3.573h4.263c2.196 0 4.028-1.626 4.382-3.745.046-.246.07-.493.07-.751a.49.49 0 0 1 .484-.506c.26 0 .485.223.485.506M12.414 14.002l1.585.113v.1c.02.348-.164.662-.423.785-.759-.055-1.21-.09-1.218-.09-.212-.021-.376-.235-.356-.493.01-.246.201-.438.412-.415m23.584.428c.018.272-.125.51-.331.534-.01 0-.127.012-.352.036-.198-.142-.324-.427-.315-.749v-.189c.378-.036.594-.06.604-.06.197-.023.377.166.394.428m0 3.907c.024.195-.18.363-.455.38a90.05 90.05 0 0 0-.634.027c-3.734.168-7.05.256-9.886.256-2.849 0-6.2-.08-9.994-.238-.191-.01-.382-.018-.574-.027-.263-.01-.467-.178-.454-.38.011-.196.25-.345.514-.337.096 0 .192.01.275.01 3.878.167 7.325.247 10.233.247 2.86 0 6.26-.08 10.053-.257.132-.008.264-.008.407-.018.275-.01.503.133.515.337"/><path d="M47.442 37.817a.899.899 0 0 0-.224-.142L32.242 31.26c1.7-2.079 2.869-4.522 3.353-6.307 1.262-.846 1.545-3.29 1.51-4.582a6.75 6.75 0 0 0-.094-.917l10.926-1.068a.833.833 0 0 0 .755-.775.83.83 0 0 0-.636-.883l-10.738-2.595c-.071-1.915-.567-7.366-4.071-10.938C31.17 1.07 28.408 0 25.045 0c-3.363 0-6.1 1.07-8.119 3.195-3.387 3.561-3.74 8.975-3.753 10.927L1.35 16.728a.84.84 0 0 0-.673.87.857.857 0 0 0 .767.788l11.86 1.14c-.06.351-.083.75-.072 1.221.024 1.575.45 3.5 1.534 4.228.343 1.258 1.24 4.02 3.103 6.427l-14.68 6.31a.725.725 0 0 0-.246.174C1.893 38.896.547 45.288.016 47.99a.814.814 0 0 0 .177.693c.154.2.402.317.649.317h48.311a.86.86 0 0 0 .637-.293.819.819 0 0 0 .201-.67c-.472-3.395-1.428-9.234-2.549-10.22zM1.881 47.309c.731-3.547 1.687-7.332 2.17-8.13l7.565-3.254.967-.411 3.304-1.421.957-.411.814-.341.908-.4 1.014-.434c.048-.024.083-.048.12-.072.2-.117.329-.305.376-.528a.787.787 0 0 0-.034-.47.863.863 0 0 0-.166-.282c-2.36-2.549-3.316-5.967-3.552-6.954a.84.84 0 0 0-.59-.61c-.048-.014-.224-.165-.413-.636-.472-1.174-.46-2.96-.272-3.466a.87.87 0 0 0 .367-.774.87.87 0 0 0-.307-.564.812.812 0 0 0-.46-.189l-7.694-.739 7.269-1.598c.047-.012.094-.023.141-.047a.84.84 0 0 0 .52-.823v-.105c-.024-.87-.048-6.79 3.28-10.291 1.687-1.774 4-2.678 6.88-2.678 2.89 0 5.239.904 6.986 2.689 3.363 3.431 3.599 9.117 3.61 10.22v.189c-.011.318.154.6.413.74a.575.575 0 0 0 .225.106l6.526 1.573-7.175.705a.85.85 0 0 0-.52.236.878.878 0 0 0-.247.552.798.798 0 0 0 .082.41c.071.154.177.283.33.365.19.482.225 2.127-.2 3.336-.189.565-.39.74-.448.765a.834.834 0 0 0-.59.621c-.401 1.775-1.77 4.665-3.812 6.815a.752.752 0 0 0-.19.306.823.823 0 0 0-.023.446.8.8 0 0 0 .378.529.311.311 0 0 0 .118.069l.992.424.909.387 1.155.493.957.412 3.304 1.422.956.41 7.576 3.242c.495.81 1.286 4.619 1.817 8.166H1.881z"/><path d="M41.533 46v-5.041a.464.464 0 0 0-.452-.465H39V35l7.258 3.127c.476.781 1.233 4.452 1.742 7.873h-6.467zM12 36v5.495H9.576c-.279 0-.497.204-.497.453V47H2c.752-3.428 1.733-7.084 2.23-7.855L12 36zm22-2.533V41H17v-7.51l.828-.324c.467 2.193 2.591 3.75 5.29 3.75h4.331c2.64 0 4.835-1.68 5.374-3.916l1.177.467zm9-16.763l-7.204.713a.852.852 0 0 0-.522.237c-3.757.238-7.122.346-9.954.346-2.88 0-6.292-.108-10.132-.333a.797.797 0 0 0-.462-.19L7 16.727l7.3-1.616a.653.653 0 0 0 .142-.048.845.845 0 0 0 .52-.831v-.108c-.023-.879-.046-6.871 3.296-10.413C19.952 1.916 22.274 1 25.166 1c2.904 0 5.261.916 7.015 2.723 3.377 3.47 3.615 9.224 3.626 10.342v.19a.813.813 0 0 0 .415.748c.071.06.142.083.225.108L43 16.704zM14.5 43.882a.619.619 0 1 0 .001 1.238.619.619 0 0 0 0-1.238m0 2.118C13.672 46 13 45.327 13 44.5s.673-1.5 1.5-1.5 1.5.673 1.5 1.5-.673 1.5-1.5 1.5m21-2.118a.619.619 0 0 0 0 1.236.619.619 0 0 0 0-1.236m0 2.118c-.827 0-1.5-.673-1.5-1.5s.673-1.5 1.5-1.5 1.5.673 1.5 1.5-.673 1.5-1.5 1.5"/></g></symbol><symbol viewBox="0 0 71 70" id="issue-renovation" xmlns="http://www.w3.org/2000/svg"><g fill="currentColor" fill-rule="evenodd"><path d="M40.258 51.626c.953.981 2.135 1.541 2.66 1.762.179.075.089.09-.014.075-1.486-.24-3.032-1.125-4.09-1.843-.055-.035-.248-.118-.352-.118h-.587c-.186 0-.103.118-.068.18.407.739.717 1.202 1.173 1.63.048.09.69.49.988.573 1.961.525 3.384 1.416 3.916 1.788.153.104.13.118-.048.035a15.248 15.248 0 0 0-3.42-1.105c-.51-.138-.586 0-.427.366.573 1.333 1.678 2.632 2.182 3.178.152.173.048.117-.055.034-1.671-1.305-3.688-3.53-5.346-6.52-.055-.103-.096-.159-.22-.159h-.173c-.097 0-.13.09-.13.139-.016 1.063-.029 1.926-.023 2.182.015.538.16.815.533 1.16 1.622 1.5 2.852 4.082 3.239 4.966.09.193.006.124-.055.035-1.21-1.859-2.37-3.33-3.281-4.158-.194-.18-.511-.304-.546.518-.117 2.652-1.133 5.476-1.464 6.333-.069.166-.09.166-.062-.007.2-1.119.987-5.255.684-11.044-.007-.041-.062-.124-.125-.124h-.18c-.096 0-.164.11-.186.166-.47 1.216-.8 1.83-1.083 2.555-.055.145-.18.644-.174.871.008 1.084-.137 3.426-1.16 6.077-.034.083-.09.153-.076-.007.16-1.028.49-3.218.442-5.58-.007-.325-.097-.435-.248-.318-1.023.698-2.37 1.955-3.247 2.99-.041.049-.096.077-.028-.061.27-.56 1.154-2.155 3.17-3.716.201-.152.464-.462.589-.745.233-.533.572-1.376.78-2.066.041-.131.02-.166-.131-.166h-.298a.409.409 0 0 0-.324.159c-2.128 2.5-4.303 3.681-4.966 4.006-.13.062-.13.041-.014-.055a24.723 24.723 0 0 0 2.755-2.535c.118-.125 0-.166-.165-.166-1.305.014-2.715.4-3.19.546-.036.014-.063.014-.077.014.007-.02.028-.028.05-.042.468-.276 2.091-1.133 3.625-1.07.103.006.483-.097.58-.215.138-.164.276-.345.42-.524.028-.035.035-.118-.067-.118h-5.602c.967-1.312 5.732-2.424 8.135-2.914.188-.74.401-1.762.401-2.335.097-2.548-.836-3.37-2.555-5.014-3.321-3.19-6.437-4.973-8.13-7.59.077.2 1.14 2.853 4.18 5.146.035.034.013.068-.035.061-5.753-1.326-6.382-9.696-6.382-9.696 2.031 2.051 8.675 3.197 8.301 8.978-.006.118.015.2.125.29 1.105.933 2.223 1.796 3.156 2.536.746.594 1.243.917 1.099-.905-.912-9.864-4.165-13.903-5.878-20.161 0 0 .359 5.608 3.294 11.092.035.159-.103.152-.16.11-9.943-5.71-3.686-21.105-3.686-21.105 1.836 5.076 12.955 11.43 6.153 21.658a.775.775 0 0 0-.076.621c.621 2.26 1.305 4.593 1.533 7.149.083.925.291 1.27.794.2.843-1.76 1.347-2.645 1.941-3.812.138-.214.118-.567.083-.822-1.768-8.509 7.604-9.641 10.138-12.521 0 0 .194 12.97-7.866 13.495-.152.034-.207 0-.152-.132.995-1.52 4.11-5.739 4.676-7.176-2.024 2.902-5 4.33-8.529 13.247-.483 1.078-.505 3.654-.525 4.351-.035 1.112-.028 1.43-.09 2.141 1.685.31 8.046 1.575 9.179 3.108H40.34c-.249 0-.131.083-.083.124"/><path d="M35.365 69.594c-14.37 0-27.447-9.02-32.54-22.449l2.141-.814c4.759 12.544 16.976 20.97 30.399 20.97 15.957 0 29.438-11.399 32.053-27.107l2.262.376c-2.8 16.818-17.232 29.024-34.315 29.024"/><path d="M0 49.262l8.78-2.553-6.6-6.326zM3.31 29.4l-2.26-.376C3.85 12.207 18.281 0 35.364 0c14.37 0 27.445 9.023 32.54 22.448l-2.143.814C61.003 10.72 48.788 2.292 35.365 2.292c-15.958 0-29.439 11.4-32.055 27.108"/><path d="M61.949 22.886l6.6 6.325 2.18-8.879z"/></g></symbol><symbol viewBox="0 0 60 67" id="issue-restoration" xmlns="http://www.w3.org/2000/svg"><g fill="none" fill-rule="evenodd"><mask id="aza" fill="#fff"><path d="M59.942 66.569H0V0h59.942z"/></mask><path fill="currentColor" d="M49.724 35.343h7.06c.396.002.73.334.73.732v1.74c0 .237-.096.348-.327.348h-4.913c-1.018.029-1.802.704-1.99 1.652-.027.133-.118.276-.277.243-.1-.02-.2-.035-.306-.043-.145-.012-.26-.155-.283-.313-.02-.156-.306-3.693-.306-3.693-.003-.027-.005-.03-.005-.06.009-.354.242-.595.617-.606m-9.907 2.068a26.057 26.057 0 0 1 4.33-.345 35.1 35.1 0 0 1 2.842.123c.504.041.757.261.849 1.156.012.106.05.559.105 1.228.018.202-.015.337-.23.331a27.084 27.084 0 0 0-5.57.367c-.319.057-.484-.068-.554-.32-.411-.956-1.294-1.697-1.809-2.173-.109-.101-.086-.345.037-.367M7.71 0c.16 6.275 4.327 10.328 7.527 14.387 3.374 4.278 4.64 10.916 1.515 15.488-.216.315-.23.473-.135.78.404 1.3.719 2.583.95 3.763.046.243.159.407.436.304a20.094 20.094 0 0 1 4.15-1.063c.224-.032.294-.216.305-.415a97.85 97.85 0 0 1 .222-3.957c.17-1.847 1.458-5.945 3.427-9.519-3.138 4.012-4.03 7.09-4.335 8.952-.023.14-.247.221-.333.118-2.417-2.912-2.357-8.425 2.152-12.568 5.173-4.753 4.864-6.871 4.864-6.871 2.57 7.07 5.533 17.77-4.022 20.115a.539.539 0 0 0-.433.45A10.362 10.362 0 0 0 23.886 33c.026.235.182.472.46.462a20.266 20.266 0 0 1 15.734 6.7c.082.09.189.233.293.388.136.202-.016.395-.35.498-2.265.701-4.478 1.77-6.717 3.26l-1.264.842c-4.428 2.95-11.841 7.888-14.26 9.373-1.676 1.03-2.464 2.827-2.055 4.629.033.147-.014.321-.224.325-1.709.036-4.116.062-4.678.062-.914.018-2.373-.648-3.81-1.478-.585-.33-1.166-.679-1.732-1.007-.15-.085-.205-.175-.236-.372a20.186 20.186 0 0 1-.23-3.002c0-7.383 4.076-14.42 10.948-17.96.279-.144.36-.328.307-.624-1.822-9.85-6.838-14.95-8.237-20.213.164 5.017 3.729 9.15 5.263 14.639.27.96-.025 1.112-.237 1.044C-4.13 25.17 7.71 0 7.71 0m3.896 36.348c.1.142.075.257-.035.344a19.1 19.1 0 0 0-.63.512c-.116.098-.264.036-.328-.069-4.44-7.188-10.09-9.222-10.09-9.222 2.935.409 7.342 3.16 11.083 8.435m-8.139 19.51c.012.115-.04.216-.187.151a6.487 6.487 0 0 0-.4-.16 3.324 3.324 0 0 0-.913-.184c-.123-.008-.188-.132-.173-.255.087-.751.646-1.38 1.375-1.635.14-.049.186.03.187.175.008.64.046 1.275.111 1.908m46.742-1.362c-4.644 1.165-7.565 2.972-10.374 4.659-4.94 3.015-9.643 7.437-12.822 7.414-3.05 0-12.091-.004-16.427-.004l-.1.002h-.04c-1.139.006-2.82-.852-4.347-1.92-1.568-1.074-2.974-2.285-4.004-2.883C.422 60.79.003 59.815 0 59.092c0-.979.87-1.805 1.782-1.806.183 0 .365.03.557.095.926.323 2.386 1.245 3.871 2.093 1.507.843 3.056 1.668 4.612 1.69 1.08 0 4.016-.018 5.239-.076l.09-.002c.383.01.391.09.694.37a4.093 4.093 0 0 0 2.831 1.136c.666 0 1.337-.16 1.988-.469.258-.122.53-.255.796-.383 3.656-1.614 7.688-3.665 10.577-5.25a.905.905 0 0 0 .356-1.214.896.896 0 0 0-1.215-.357 251.463 251.463 0 0 1-11.22 5.72 3.035 3.035 0 0 1-1.286.309c-1.485-.004-2.57-1.33-2.572-2.738.003-.883.421-1.787 1.456-2.425 2.688-1.652 11.256-7.374 15.57-10.245 3.914-2.604 7.911-4.023 12.613-4.03l.016-.015v.016c.923 0 1.862.047 2.813.124.438.059.579.128.698 1.009.047.465.658 7.827.89 10.66.005.076.009.147.009.21-.02.775-.343.804-.955.982m9.167.977h-5.606l-.013-.001h-.01c-.296.012-.668-.339-.668-.628 0 0-1.217-14.585-1.217-14.613.02-.277.154-.423.457-.441h7.057c.3-.002.565.263.565.566l-.002 14.548a.578.578 0 0 1-.563.569" mask="url(#aza)"/></g></symbol><symbol viewBox="0 0 61 70" id="issue-sourcing" xmlns="http://www.w3.org/2000/svg"><g fill="none" fill-rule="evenodd"><path fill="currentColor" d="M22.341 35.296a7.761 7.761 0 1 1 15.523 0 7.761 7.761 0 0 1-15.523 0"/><path d="M31.154 69.892h-2.105V51.086h2.105v18.806z"/><path fill="currentColor" d="M30.1 69.892c-.579 0-1.051-.47-1.051-1.053v-16.7a1.051 1.051 0 1 1 2.105 0v16.7a1.055 1.055 0 0 1-1.053 1.053"/><path fill="currentColor" d="M36.724 59.81c-.271 0-.54-.103-.746-.308l-5.877-5.877-5.876 5.877a1.052 1.052 0 1 1-1.487-1.49l6.62-6.617a1.056 1.056 0 0 1 1.487 0l6.622 6.62a1.05 1.05 0 0 1-.743 1.795"/><path d="M29.051.7h2.105v18.806h-2.105V.7z"/><path fill="currentColor" d="M30.104.7c.58 0 1.052.471 1.052 1.053v16.7a1.051 1.051 0 1 1-2.105 0v-16.7A1.055 1.055 0 0 1 30.104.7"/><path fill="currentColor" d="M23.481 10.781c.27 0 .54.104.746.309l5.877 5.876 5.876-5.876a1.05 1.05 0 0 1 1.486 0c.411.411.411 1.076 0 1.49l-6.62 6.617a1.055 1.055 0 0 1-1.486 0l-6.622-6.62a1.05 1.05 0 0 1 .743-1.796m36.581 41.814c-.289.502-.934.676-1.438.385l-14.462-8.35a1.051 1.051 0 1 1 1.052-1.822l14.463 8.35c.503.293.675.934.385 1.437"/><path fill="currentColor" d="M54.643 41.819c-.134.234-.36.415-.64.491l-8.028 2.151 2.151 8.028a1.054 1.054 0 0 1-2.034.544l-2.42-9.043a1.056 1.056 0 0 1 .744-1.288l9.044-2.425a1.052 1.052 0 0 1 1.183 1.542M.143 17.997c.29-.502.933-.676 1.437-.385l14.463 8.35a1.052 1.052 0 1 1-1.052 1.823L.527 19.435a1.055 1.055 0 0 1-.385-1.438"/><path fill="currentColor" d="M5.561 28.773c.135-.234.36-.415.64-.492l8.028-2.151-2.15-8.028a1.05 1.05 0 0 1 .743-1.287 1.054 1.054 0 0 1 1.29.744l2.42 9.042c.15.56-.184 1.138-.744 1.289l-9.044 2.425a1.05 1.05 0 0 1-1.183-1.542M60.064 18c.29.503.118 1.147-.386 1.438l-14.464 8.35a1.053 1.053 0 0 1-1.052-1.823l14.464-8.35a1.056 1.056 0 0 1 1.438.385"/><path fill="currentColor" d="M48.022 17.304c.135.234.18.52.106.801l-2.151 8.027 8.027 2.152c.562.15.894.726.744 1.287-.15.561-.727.894-1.29.745l-9.042-2.425a1.056 1.056 0 0 1-.743-1.288l2.422-9.045a1.052 1.052 0 0 1 1.927-.254M.142 52.593a1.053 1.053 0 0 1 .385-1.438l14.463-8.35a1.052 1.052 0 1 1 1.052 1.822L1.58 52.98a1.055 1.055 0 0 1-1.438-.386"/><path fill="currentColor" d="M12.183 53.288a1.061 1.061 0 0 1-.106-.801l2.151-8.027L6.2 42.308a1.053 1.053 0 0 1 .546-2.032l9.042 2.425c.558.149.893.73.744 1.287l-2.422 9.047a1.053 1.053 0 0 1-1.927.253"/></g></symbol><symbol viewBox="0 0 45 60" id="issue-standards" xmlns="http://www.w3.org/2000/svg"><g fill="none" fill-rule="evenodd"><path d="M0 0v59.427h44.156V0z"/><path fill="currentColor" d="M11.52 55.377l-4.381 1.26c-.418.117-.841-.3-.66-.72l3.659-11.4a3.855 3.855 0 0 0 2.758 1.14c.36 0 .72-.059 1.082-.18l3.118-.96 2.4 2.218c.06.06.181.118.24.18l-3.898 12.058a.548.548 0 0 1-.96.181l-2.818-3.599c-.062-.178-.304-.24-.54-.178m22.613-10.86l3.717 11.457c.12.419-.239.84-.658.718l-4.44-1.259c-.24-.059-.419 0-.6.181l-2.818 3.6c-.299.36-.84.24-.958-.181l-3.9-12.057c.059-.06.181-.12.241-.182l2.4-2.218 3.117.959c.36.118.718.18 1.082.18 1.136-.058 2.099-.476 2.817-1.199m-3.48-23.395l-3.84 3.24 1.2 4.858c.24.9-.782 1.619-1.56 1.141l-4.317-2.64-4.258 2.64c-.782.482-1.8-.24-1.56-1.14l1.2-4.858-3.84-3.241c-.718-.6-.359-1.8.6-1.859l5.04-.359 1.918-4.68c.36-.9 1.618-.9 1.982 0l1.917 4.68 5.04.36c.777.059 1.2 1.258.478 1.858m-8.517-10.498c-6.599 0-11.939 5.34-11.939 11.939 0 6.598 5.34 11.938 11.939 11.938 6.598 0 11.938-5.34 11.938-11.938 0-6.599-5.34-11.939-11.938-11.939m0 26.576c-8.039 0-14.578-6.539-14.578-14.578s6.54-14.578 14.578-14.578c8.039 0 14.579 6.54 14.579 14.578 0 7.98-6.54 14.578-14.58 14.578m17.338-6.898l4.317-2.4c.36-.24.482-.718.242-1.08l-2.88-3.96a.717.717 0 0 1 0-.84l2.818-4.018c.24-.359.118-.899-.242-1.081l-4.318-2.34a.727.727 0 0 1-.36-.781l.841-4.858c.06-.419-.24-.84-.718-.84l-4.918-.181c-.3 0-.6-.241-.659-.541l-1.38-4.74a.76.76 0 0 0-1.02-.482l-4.499 1.919c-.361.187-.662.069-.903-.172L22.496.248c-.301-.36-.841-.3-1.142 0l-3.239 3.717c-.18.241-.54.3-.84.182l-4.559-1.859a.755.755 0 0 0-1.019.481L10.38 7.51c-.06.3-.36.54-.659.54l-4.918.3c-.419 0-.781.419-.66.9l.9 4.8c.06.3-.119.599-.358.78l-4.32 2.4c-.358.24-.48.719-.24 1.081l2.881 3.958c.183.241.183.6 0 .84L.188 27.126c-.241.36-.12.9.24 1.082l4.318 2.34c.3.18.418.48.359.78l-.841 4.859c-.06.42.24.84.72.84l4.918.182c.298 0 .599.241.658.54l1.381 4.74c.12.419.6.659 1.02.482l4.497-1.92c.3-.118.66-.059.84.182l3.3 3.658c.3.36.841.3 1.14 0l3.24-3.717c.182-.241.54-.3.84-.182l4.56 1.859a.752.752 0 0 0 1.018-.481l1.32-4.74c.059-.3.358-.54.659-.54l4.916-.3c.42 0 .782-.419.66-.9l-.9-4.8c0-.308.181-.67.422-.789" mask="url(#b)"/></g></symbol><symbol viewBox="0 0 55 66" id="issue-technical" xmlns="http://www.w3.org/2000/svg"><g fill="currentColor" fill-rule="evenodd"><path d="M44.826 12.573l-2.537-.545a11.51 11.51 0 0 0-1.15-2.776l1.409-2.177a.75.75 0 0 0-.118-.838l-2.586-2.59c-.204-.205-.579-.254-.838-.112L36.83 4.94a11.733 11.733 0 0 0-2.776-1.149l-.545-2.538a.738.738 0 0 0-.672-.51h-3.657a.744.744 0 0 0-.672.51l-.545 2.538a11.72 11.72 0 0 0-2.776 1.149l-2.177-1.406c-.259-.142-.633-.093-.837.112l-2.592 2.59a.74.74 0 0 0-.112.838l1.408 2.177a11.672 11.672 0 0 0-1.154 2.776l-2.533.545a.737.737 0 0 0-.511.671v3.659c0 .292.23.593.511.671l2.533.546c.267.984.657 1.914 1.154 2.776l-1.408 2.177a.741.741 0 0 0 .112.838l2.592 2.585a.745.745 0 0 0 .837.117l2.177-1.412c.861.496 1.792.89 2.776 1.154l.545 2.537a.74.74 0 0 0 .672.507h3.657a.738.738 0 0 0 .672-.507l.545-2.537a11.565 11.565 0 0 0 2.776-1.154l2.177 1.412a.746.746 0 0 0 .838-.117l2.586-2.585c.21-.205.258-.585.118-.838l-1.409-2.177c.497-.862.886-1.792 1.15-2.776l2.537-.546a.737.737 0 0 0 .511-.672v-3.658a.736.736 0 0 0-.511-.67M31.01 21.718a6.647 6.647 0 1 1 0-13.295 6.646 6.646 0 0 1 6.643 6.646 6.646 6.646 0 0 1-6.643 6.649M9.639 45.237l10.336 10.11 5.499-5.61s15.999.465 17.534 0c.908-.49 11.161-13.347 11.49-14.792.117-.746-.117-.838-.466-1.304-.349-.465-1.047-.837-1.861-.745-.814.093-1.232.372-1.72.65-.49.28-9.42 9.416-10.186 10.045-.746.35-9.348.07-9.954-.047-.605-.117-.906-.403-1.057-1.026-.153-.623-.01-1.654.219-1.904.233-.25.116-.373.698-.65.582-.28 9.23.185 9.997 0 .766-.184 1.048-.396 1.397-1.023.35-.628.325-1.954-.049-2.51-.208-.442-.766-.814-1.348-.98-.581-.163-18.349-.372-20.789.374-2.532.728-9.74 9.412-9.74 9.412M0 50.975l14.206 14.172 6.477-6.49L6.478 44.485z"/></g></symbol><symbol viewBox="0 0 81 50" id="issue-water" xmlns="http://www.w3.org/2000/svg"><g fill="none" fill-rule="evenodd"><g transform="translate(0 20.953)"><mask id="bda" fill="#fff"><path d="M0 .364v27.994h80.217V.364H0z"/></mask><path fill="currentColor" d="M79.28 14.19c-1.746 3.27-4.729 5.481-7.818 7.317-3.134 1.818-6.573 3.179-10.084 4.263-7.039 2.14-14.4 2.56-20.973 2.588-6.572.018-13.934-.367-20.982-2.436-3.52-1.03-6.958-2.373-10.12-4.128-3.115-1.774-6.107-3.887-8.023-6.977-.923-1.522-1.514-3.412-1.191-5.23.277-1.853 1.379-3.205 2.427-4.164C4.683 3.525 6.922 2.692 8.74 2.03 12.116.91 14.31.605 14.65.534c-2.418.743-4.809 1.603-7.012 2.803-2.176 1.2-4.397 2.713-5.364 4.997-1.03 2.337.268 4.898 1.989 6.59 1.754 1.765 3.949 3.081 6.223 4.174 9.26 4.227 19.72 5.427 29.901 5.463 10.182-.099 20.652-1.362 29.839-5.732 2.248-1.137 4.415-2.498 6.081-4.352 1.665-1.764 2.632-4.478 1.325-6.69-1.227-2.149-3.438-3.6-5.66-4.737-2.238-1.146-4.638-1.979-7.074-2.686.322.062 2.517.34 5.938 1.397 1.836.635 4.074 1.424 6.33 3.16 1.103.878 2.24 2.114 2.785 3.87.565 1.79.18 3.788-.671 5.4" mask="url(#bda)"/></g><path fill="currentColor" d="M66.626 30.612c-.483 1.227-1.325 2.158-2.166 2.875-3.484 2.785-7.658 4.038-11.822 5.068-4.182.958-8.427 1.084-12.224 1.093-3.797.009-8.041-.099-12.224-1.03-4.173-.994-8.328-2.239-11.82-4.818-.85-.68-1.693-1.487-2.293-2.58-.608-1.1-.412-2.56.01-3.608.904-2.105 2.587-2.705 3.617-3.224 1.862-.77 2.759-.95 2.982-1.012-1.362.555-2.705 1.2-3.86 2.131-1.155.887-2.203 2.383-1.693 3.923.538 1.477 1.935 2.337 3.251 2.99 1.352.655 2.785 1.102 4.228 1.479 5.82 1.414 11.829 1.737 17.793 1.755 5.955-.045 11.973-.385 17.777-1.88 1.441-.386 2.865-.86 4.2-1.56 1.28-.68 2.669-1.683 2.937-3.24.214-1.595-.995-2.902-2.159-3.744-1.209-.878-2.57-1.496-3.94-2.024.197.054 1.093.206 3.009.922 1.066.484 2.687.994 3.824 2.84.556.94 1.066 2.372.573 3.644"/><g transform="translate(31.343 .057)"><mask id="bdb" fill="#fff"><path d="M.017.69h17.49v27.429H.017V.69z"/></mask><path fill="currentColor" d="M17.507 19.379a8.74 8.74 0 0 1-8.741 8.74c-4.835 0-8.75-3.913-8.75-8.74S8.767.689 8.767.689s8.741 13.863 8.741 18.69" mask="url(#bdb)"/></g></g></symbol><symbol viewBox="0 0 60 50" id="labour-icon" xmlns="http://www.w3.org/2000/svg"><g fill="currentColor" fill-rule="evenodd"><path d="M14.983 7.647h-4.462L9.355 13.16l5.628-5.513zm2.697 16.431l3.335-6.044-6.97 3.193 3.635 2.851zM4.21 13.528L6.353 3.26a1.668 1.668 0 0 1 1.634-1.328h13.742c.552 0 1.06.265 1.373.713l6.442 9.234c.368.53.4 1.229.079 1.788L21.8 27.311l15.77 12.362c.175 0 .349.009.52.024a5.089 5.089 0 0 1 9.454.512 3.967 3.967 0 0 1 5.104 5.084 2.63 2.63 0 0 1 2.122 1.844 3.867 3.867 0 0 1 4.605 2.86H22.309a5.738 5.738 0 0 1 6.635-2.76 2.978 2.978 0 0 1 3.502-3.494 5.293 5.293 0 0 1 3.019-3.63L20.973 28.759l-.405.709 1.095 1.166a4.184 4.184 0 0 1 .63 4.851l-7.107 13.16a2.587 2.587 0 0 1-3.332 1.13c-1.297-.583-1.884-2.114-1.297-3.415l5.783-12.893-7.398-8.73v8.082c0 .357-.046.71-.137 1.06l-3.72 14.19a2.585 2.585 0 0 1-5.019-1.232L2.688 35.42c.072-.304.108-.622.108-.937V21.342a4.19 4.19 0 0 1 1.252-2.987l1.261-1.233a2.512 2.512 0 0 1-1.193-1.563L.963 13.092A.83.83 0 0 1 .82 11.93a.833.833 0 0 1 1.167-.143L4.21 13.53zM36.857 4.755a4.744 4.744 0 1 0-9.488 0 4.744 4.744 0 0 0 9.488 0"/></g></symbol><symbol viewBox="0 0 12 13" id="plus" xmlns="http://www.w3.org/2000/svg"><g fill="currentColor" fill-rule="evenodd"><path d="M7.625.5v12h-3.25V.5z"/><path d="M0 4.875h12v3.25H0z"/></g></symbol><symbol viewBox="0 0 60 60" id="prod-counrty-pol-icon" xmlns="http://www.w3.org/2000/svg"><g fill="currentColor" fill-rule="evenodd"><path d="M29.874 42.204c-2.738 0-5.216-1.188-7.36-3.526a.572.572 0 0 1 .84-.773c1.92 2.094 4.113 3.155 6.518 3.155 2.753 0 5.036-1.81 6.468-3.328a.572.572 0 0 1 .83.786c-2.271 2.41-4.792 3.686-7.296 3.686"/><path d="M41.141 40.643v10.533a.57.57 0 0 1-.577.577H19.497a.567.567 0 0 1-.562-.577V40.895a.57.57 0 0 1 1.14 0v9.719h19.927v-9.971c0-.31.253-.563.562-.563.324 0 .577.253.577.563M14.997 43.061v8.115a.57.57 0 0 1-.577.577h-2.813v6.202a.589.589 0 0 1-.577.577.57.57 0 0 1-.576-.577v-6.78c0-.308.253-.562.576-.562h2.813v-7.552c0-.31.254-.562.577-.562.31 0 .577.253.577.562M49.369 51.176v6.78a.57.57 0 1 1-1.14 0v-6.203h-2.574a.571.571 0 0 1-.576-.577v-8.353a.58.58 0 0 1 .576-.577c.31 0 .563.267.563.577V50.6h2.588c.31 0 .563.266.563.576"/><path d="M38.779 39.18c0 .45-.056.9-.155 1.322-.632 2.827-3.207 4.951-6.3 4.951h-5.077c-3.165 0-5.654-1.97-6.203-4.74a5.713 5.713 0 0 1-.126-1.21c0-.308.252-.563.577-.563.308 0 .575.255.575.563 0 .254.015.493.058.73.35 2.38 2.432 4.08 5.119 4.08h5.077c2.615 0 4.796-1.856 5.217-4.275a4.41 4.41 0 0 0 .084-.858c0-.323.254-.577.576-.577a.58.58 0 0 1 .578.577M15.419 18.197c.014 0 .9.056 2.32.141v.126c.03.436-.239.83-.619.984l-1.785-.112a.57.57 0 0 1-.521-.62.558.558 0 0 1 .605-.52M44.038 18.704a.574.574 0 0 1-.519.632c-.015 0-.198.015-.55.043a.96.96 0 0 1-.492-.887v-.224c.59-.044.928-.072.944-.072a.568.568 0 0 1 .617.508M42.927 23.02c.028.31-.21.578-.534.606-.253.012-.507.028-.746.042-4.388.267-8.283.406-11.617.406-3.347 0-7.284-.125-11.743-.378l-.674-.042a.57.57 0 1 1 .07-1.14c.112 0 .226.015.323.015 4.557.267 8.608.393 12.024.393 3.362 0 7.356-.126 11.814-.408.155-.013.31-.013.478-.028a.56.56 0 0 1 .605.535"/><path d="M56.541 46.072a1.07 1.07 0 0 0-.267-.17l-17.848-7.68c2.026-2.488 3.418-5.413 3.995-7.55 1.504-1.013 1.842-3.939 1.8-5.485a8.115 8.115 0 0 0-.112-1.098l13.022-1.279a.995.995 0 0 0 .9-.928.994.994 0 0 0-.759-1.056l-12.797-3.107c-.085-2.293-.676-8.819-4.852-13.095C37.148 2.08 33.856.8 29.848.8s-7.27 1.28-9.676 3.824C16.136 8.888 15.714 15.37 15.7 17.705L1.608 20.826c-.492.098-.83.55-.801 1.04.042.493.42.9.913.944l14.135 1.364c-.07.422-.099.9-.085 1.463.028 1.885.535 4.19 1.828 5.062.409 1.505 1.478 4.811 3.698 7.693L3.801 45.945a.864.864 0 0 0-.294.21C2.256 47.365.652 55.015.019 58.25a.978.978 0 0 0 .21.83c.184.239.48.379.774.379H58.58c.281 0 .563-.128.76-.352a.983.983 0 0 0 .239-.801c-.563-4.064-1.702-11.055-3.038-12.235zm-54.3 11.363c.872-4.247 2.011-8.777 2.587-9.733l9.016-3.895 1.152-.492 3.938-1.702 1.14-.492.97-.408 1.083-.479 1.209-.52c.056-.027.098-.056.141-.085a.947.947 0 0 0 .45-.633.946.946 0 0 0-.042-.562 1.035 1.035 0 0 0-.197-.338c-2.812-3.05-3.952-7.143-4.233-8.324a1.003 1.003 0 0 0-.703-.732c-.057-.015-.268-.196-.493-.76-.563-1.406-.547-3.543-.323-4.15.155-.11.281-.266.352-.434a.99.99 0 0 0 .084-.492 1.043 1.043 0 0 0-.365-.676.965.965 0 0 0-.549-.225l-9.17-.885 8.664-1.913c.056-.015.112-.028.168-.057.38-.155.647-.548.62-.984v-.126c-.028-1.042-.057-8.129 3.91-12.32 2.01-2.124 4.766-3.206 8.198-3.206 3.445 0 6.244 1.082 8.326 3.219 4.008 4.108 4.289 10.915 4.303 12.236v.225a.96.96 0 0 0 .492.887c.085.07.17.098.267.126l7.778 1.883-8.551.844a1.01 1.01 0 0 0-.619.283 1.053 1.053 0 0 0-.295.66.958.958 0 0 0 .099.492c.084.184.21.338.393.436.225.577.267 2.546-.239 3.994-.225.676-.464.887-.534.915a.997.997 0 0 0-.704.744c-.477 2.125-2.108 5.584-4.542 8.159a.901.901 0 0 0-.226.365.99.99 0 0 0-.028.535.958.958 0 0 0 .45.633.37.37 0 0 0 .14.083l1.183.507 1.083.464 1.377.59 1.14.493 3.939 1.702 1.139.492 9.029 3.88c.59.971 1.532 5.53 2.165 9.776H2.241z"/><path d="M49.369 57.435v-6.259a.576.576 0 0 0-.563-.576h-2.588v-6.821l9.029 3.881c.591.97 1.533 5.528 2.166 9.775H49.37zM13.844 43.807v6.807H11.03a.567.567 0 0 0-.577.562v6.259H2.241c.872-4.247 2.011-8.776 2.587-9.732l9.016-3.896zM40.002 41.093v9.521H20.074v-9.493l.97-.41c.548 2.773 3.038 4.742 6.202 4.742h5.077c3.094 0 5.667-2.124 6.3-4.95l1.38.59zM51.014 21.39l-8.55.844c-.24.013-.45.126-.62.28-4.458.282-8.452.41-11.813.41-3.418 0-7.467-.128-12.025-.395a.947.947 0 0 0-.548-.225l-9.17-.887 8.664-1.912a.777.777 0 0 0 .168-.057 1 1 0 0 0 .619-.983v-.127c-.028-1.04-.056-8.13 3.91-12.32 2.01-2.124 4.767-3.208 8.2-3.208 3.446 0 6.243 1.084 8.325 3.222 4.008 4.106 4.29 10.913 4.303 12.235v.226a.961.961 0 0 0 .492.885.68.68 0 0 0 .267.127l7.778 1.885zM17.203 53.73a.802.802 0 0 0 0 1.602.802.802 0 0 0 0-1.602m0 2.745a1.947 1.947 0 0 1-1.945-1.945c0-1.072.873-1.945 1.945-1.945s1.944.873 1.944 1.945a1.947 1.947 0 0 1-1.944 1.945M43.11 53.73a.802.802 0 0 0 0 1.602.802.802 0 0 0 0-1.602m0 2.745a1.947 1.947 0 0 1-1.945-1.945c0-1.072.872-1.945 1.945-1.945 1.072 0 1.944.873 1.944 1.945a1.947 1.947 0 0 1-1.944 1.945"/></g></symbol><symbol viewBox="0 0 80 79" id="renovation-icon" xmlns="http://www.w3.org/2000/svg"><g fill="none" fill-rule="evenodd"><path d="M45.133 57.878c1.07 1.1 2.393 1.727 2.982 1.975.2.085.1.1-.016.085-1.665-.27-3.399-1.262-4.584-2.067-.062-.04-.279-.132-.395-.132h-.658c-.209 0-.116.132-.077.202.456.828.805 1.347 1.316 1.827.054.1.774.549 1.107.642 2.199.589 3.794 1.588 4.39 2.005.171.117.147.132-.053.04a17.094 17.094 0 0 0-3.834-1.24c-.572-.154-.658 0-.48.411.643 1.494 1.882 2.95 2.447 3.562.17.194.054.132-.062.039-1.873-1.463-4.134-3.958-5.993-7.31-.062-.116-.107-.178-.248-.178h-.193c-.108 0-.146.1-.146.155-.017 1.192-.032 2.16-.025 2.447.016.603.179.914.598 1.3 1.818 1.682 3.197 4.576 3.63 5.567.1.217.008.14-.062.04-1.355-2.084-2.656-3.733-3.677-4.662-.217-.201-.573-.34-.612.58-.132 2.974-1.27 6.14-1.642 7.1-.077.187-.1.187-.07-.007.225-1.254 1.108-5.892.767-12.38-.008-.047-.07-.14-.14-.14h-.2c-.109 0-.186.124-.21.186-.526 1.363-.897 2.051-1.214 2.864-.062.163-.202.722-.195.977.009 1.215-.154 3.84-1.3 6.813-.04.093-.102.17-.086-.008.179-1.153.55-3.608.496-6.256-.008-.364-.109-.487-.279-.357-1.146.783-2.656 2.192-3.64 3.353-.046.054-.107.086-.03-.069.302-.628 1.293-2.416 3.554-4.166a2.42 2.42 0 0 0 .659-.835c.262-.597.641-1.542.874-2.316.047-.147.023-.186-.146-.186h-.334a.458.458 0 0 0-.364.178c-2.385 2.803-4.823 4.127-5.567 4.49-.146.07-.146.047-.016-.061a27.717 27.717 0 0 0 3.09-2.842c.132-.14 0-.185-.186-.185-1.463.015-3.043.449-3.577.611-.04.016-.07.016-.086.016.009-.023.032-.031.056-.046.526-.31 2.345-1.27 4.065-1.201.115.007.54-.108.649-.24.155-.185.31-.387.472-.588.031-.04.04-.132-.076-.132h-6.28c1.084-1.471 6.426-2.718 9.12-3.267.21-.83.45-1.975.45-2.617.109-2.858-.937-3.779-2.865-5.622-3.723-3.577-7.216-5.575-9.113-8.509.085.225 1.277 3.198 4.684 5.769.04.038.015.077-.039.069-6.45-1.486-7.154-10.87-7.154-10.87 2.277 2.3 9.725 3.584 9.307 10.065-.008.131.016.224.14.325 1.238 1.045 2.492 2.014 3.537 2.843.837.666 1.394 1.028 1.232-1.015-1.022-11.058-4.668-15.586-6.59-22.602 0 0 .403 6.287 3.694 12.435.04.178-.116.17-.179.124-11.148-6.402-4.133-23.662-4.133-23.662 2.059 5.691 14.524 12.815 6.898 24.282a.869.869 0 0 0-.085.696c.696 2.533 1.463 5.149 1.719 8.014.093 1.037.326 1.424.89.224.945-1.974 1.51-2.965 2.176-4.273.154-.24.132-.636.093-.921-1.983-9.54 8.525-10.81 11.366-14.038 0 0 .217 14.54-8.82 15.129-.17.039-.232 0-.17-.147 1.116-1.704 4.607-6.435 5.243-8.045-2.27 3.252-5.606 4.855-9.562 14.85-.542 1.208-.566 4.097-.59 4.879-.038 1.246-.03 1.603-.1 2.4 1.89.348 9.02 1.766 10.29 3.484h-5.745c-.279 0-.147.093-.093.14" fill="currentColor"/><path d="M39.647 78.021c-16.11 0-30.77-10.113-36.48-25.166l2.401-.913c5.335 14.062 19.03 23.51 34.08 23.51 17.889 0 33.003-12.78 35.935-30.391l2.534.422C74.978 64.337 58.8 78.021 39.647 78.021" fill="currentColor"/><path fill="currentColor" d="M0 55.227l2.444-9.953 7.4 7.091zM3.711 32.96l-2.535-.421C4.316 13.685 20.496 0 39.647 0c16.11 0 30.77 10.115 36.48 25.166l-2.402.912C68.39 12.018 54.695 2.57 39.647 2.57c-17.89 0-33.003 12.78-35.936 30.39"/><path d="M79.294 32.749v-9.954H69.45v9.954h9.844z"/><path fill="currentColor" d="M69.45 25.656l7.4 7.093 2.444-9.954z"/></g></symbol><symbol viewBox="0 0 50 50" id="sourcing-icon" xmlns="http://www.w3.org/2000/svg"><defs><path id="bia" d="M.677.456h5.326v13.912H.677V.456z"/><path id="bic" d="M0 .456h5.326v13.912H0V.456z"/><path id="bie" d="M.67.456h5.325v13.912H.67V.456z"/></defs><g fill="none" fill-rule="evenodd"><path d="M45.153 22.959c-1.283-.416-2.611-.49-3.803-.406-.04.006-.079.006-.12.006-.717 0-1.122-.5-1.122-.5v-.006c-.085-1.204-.233-2.071-.37-2.459-.457-1.289-14.535-1.991-19.642-1.991-5.107 0-19.187.702-19.643 1.991-.99 2.785-2.336 29.95 19.643 29.95 5.477 0 9.507-1.687 12.454-4.276.029-.018.051-.04.08-.062.01-.012.028-.023.045-.04.456-.393 2.178-1.811 5.552-3.785 2.6-1.25 4.783-2.572 6.628-4.007 3.084-2.391 4.755-5.132 4.828-7.911.075-2.937-1.789-5.615-4.53-6.504m-25.023-.44c-9.462 0-17.14-.782-17.14-1.749 0-.967 7.678-1.755 17.14-1.755 9.468 0 17.14.788 17.14 1.755 0 .967-7.672 1.75-17.14 1.75m22.925 12.598c-1.55 1.204-3.449 2.363-5.665 3.46 1.863-4.096 2.576-8.625 2.752-12.255v-.005c.005-.574.599-.783.746-.827.013-.006.018-.006.024-.006 1.606-.22 2.724.006 3.328.202 1.533.501 2.577 2.021 2.53 3.697-.062 2.403-2.05 4.445-3.715 5.734" fill="currentColor"/><g transform="translate(18.493 .229)"><mask id="bib" fill="#fff"><use xlink:href="#bia"/></mask><path d="M3.518.463a1.07 1.07 0 0 0-.685 1.77C3.865 3.439 3.96 4.16 3.818 4.84c-.139.681-.66 1.437-1.319 2.272-.657.836-1.444 1.735-1.737 2.974-.292 1.238.16 2.69 1.486 3.976a1.075 1.075 0 0 0 1.505-1.537c-1.001-.974-1.048-1.418-.92-1.954.128-.537.681-1.283 1.354-2.139.672-.856 1.466-1.844 1.737-3.174.272-1.33-.14-2.88-1.454-4.41a1.071 1.071 0 0 0-.952-.385" fill="currentColor" mask="url(#bib)"/></g><g transform="translate(12.329 .229)"><mask id="bid" fill="#fff"><use xlink:href="#bic"/></mask><path d="M2.841.463a1.07 1.07 0 0 0-.684 1.77C3.188 3.439 3.282 4.16 3.14 4.84c-.14.681-.66 1.437-1.319 2.272-.657.836-1.445 1.735-1.737 2.974-.292 1.238.16 2.69 1.487 3.976a1.074 1.074 0 1 0 1.504-1.537c-1.001-.974-1.048-1.418-.92-1.954.128-.537.68-1.283 1.354-2.139.672-.856 1.465-1.844 1.737-3.174.271-1.33-.14-2.88-1.454-4.41a1.072 1.072 0 0 0-.952-.385" fill="currentColor" mask="url(#bid)"/></g><g transform="translate(25.342 .229)"><mask id="bif" fill="#fff"><use xlink:href="#bie"/></mask><path d="M3.51.463a1.07 1.07 0 0 0-.685 1.77c1.032 1.205 1.126 1.926.986 2.607-.14.681-.662 1.437-1.32 2.272-.657.836-1.444 1.735-1.736 2.974-.293 1.238.16 2.69 1.485 3.976a1.075 1.075 0 0 0 1.505-1.537c-1.001-.974-1.047-1.418-.92-1.954.128-.537.681-1.283 1.354-2.139.672-.856 1.466-1.844 1.737-3.174.272-1.33-.14-2.88-1.454-4.41A1.071 1.071 0 0 0 3.51.463" fill="currentColor" mask="url(#bif)"/></g></g></symbol><symbol viewBox="0 0 60 72" id="tech-icon" xmlns="http://www.w3.org/2000/svg"><g fill="currentColor" fill-rule="evenodd"><path d="M48.901 13.716l-2.768-.595a12.556 12.556 0 0 0-1.254-3.029l1.537-2.375a.817.817 0 0 0-.13-.913l-2.82-2.826c-.223-.224-.632-.277-.914-.122L40.177 5.39a12.8 12.8 0 0 0-3.028-1.253l-.595-2.769a.805.805 0 0 0-.733-.557h-3.99a.812.812 0 0 0-.733.557l-.594 2.769a12.786 12.786 0 0 0-3.029 1.253L25.1 3.856c-.282-.155-.69-.102-.913.122L21.36 6.804a.807.807 0 0 0-.122.913l1.535 2.375c-.541.94-.967 1.955-1.258 3.029l-2.763.595a.804.804 0 0 0-.558.732v3.99c0 .32.25.649.558.734l2.763.595a12.747 12.747 0 0 0 1.258 3.028l-1.535 2.375c-.158.276-.1.691.122.914l2.827 2.82c.223.224.631.282.913.128l2.375-1.54c.94.541 1.955.97 3.029 1.259l.594 2.768a.807.807 0 0 0 .734.552h3.989c.319 0 .649-.25.733-.552l.595-2.768a12.617 12.617 0 0 0 3.028-1.26l2.375 1.541c.282.154.691.096.914-.128l2.82-2.82c.23-.223.283-.638.13-.914l-1.537-2.375a12.57 12.57 0 0 0 1.254-3.028l2.768-.595a.804.804 0 0 0 .558-.733v-3.991a.803.803 0 0 0-.558-.732m-15.072 9.977a7.252 7.252 0 1 1 0-14.504c4 0 7.247 3.247 7.247 7.251a7.25 7.25 0 0 1-7.247 7.253M10.515 49.35L21.79 60.38l5.998-6.122s17.454.508 19.129 0c.99-.534 12.176-14.56 12.533-16.137.129-.813-.126-.914-.507-1.422-.38-.507-1.142-.913-2.03-.813-.888.101-1.344.406-1.877.71-.534.305-10.276 10.272-11.112 10.958-.814.382-10.197.076-10.859-.051-.66-.129-.988-.44-1.153-1.12-.167-.68-.01-1.804.24-2.077.253-.272.126-.407.76-.708.635-.308 10.07.2 10.907 0 .835-.202 1.143-.433 1.523-1.117.381-.686.355-2.131-.052-2.739-.228-.481-.836-.888-1.471-1.068-.634-.179-20.018-.406-22.68.407-2.761.795-10.625 10.269-10.625 10.269M15.498 71.07L0 55.61l7.067-7.082 15.496 15.46z"/></g></symbol><symbol viewBox="0 0 30 25" id="twitter" xmlns="http://www.w3.org/2000/svg"><g fill="none" fill-rule="evenodd"><path d="M0 25.89V0h30v25.89z"/><path d="M28.381 1.338a11.835 11.835 0 0 1-3.803 1.477 5.942 5.942 0 0 0-4.37-1.918c-3.308 0-5.99 2.722-5.99 6.082 0 .477.054.94.156 1.386C9.398 8.11 4.984 5.69 2.032 2.008a6.135 6.135 0 0 0-.81 3.06 6.106 6.106 0 0 0 2.663 5.063 5.906 5.906 0 0 1-2.713-.76v.076c0 2.947 2.066 5.403 4.802 5.965a5.955 5.955 0 0 1-2.702.105c.76 2.414 2.973 4.174 5.592 4.224a11.879 11.879 0 0 1-7.435 2.603c-.483 0-.959-.029-1.43-.083a16.747 16.747 0 0 0 9.18 2.733c11.015 0 17.038-9.271 17.038-17.31 0-.264-.006-.525-.018-.785a12.259 12.259 0 0 0 2.987-3.15c-1.072.482-2.227.811-3.438.956a6.088 6.088 0 0 0 2.633-3.367" fill="currentColor"/></g></symbol><symbol viewBox="0 0 81 50" id="water-con-icon" xmlns="http://www.w3.org/2000/svg"><g fill="none" fill-rule="evenodd"><g transform="translate(0 20.953)"><mask id="bla" fill="#fff"><path d="M0 .364v27.994h80.217V.364H0z"/></mask><path d="M79.28 14.19c-1.746 3.27-4.729 5.481-7.818 7.317-3.134 1.818-6.573 3.179-10.084 4.263-7.039 2.14-14.4 2.56-20.973 2.588-6.572.018-13.934-.367-20.982-2.436-3.52-1.03-6.958-2.373-10.12-4.128-3.115-1.774-6.107-3.887-8.023-6.977-.923-1.522-1.514-3.412-1.191-5.23.277-1.853 1.379-3.205 2.427-4.164C4.683 3.525 6.922 2.692 8.74 2.03 12.116.91 14.31.605 14.65.534c-2.418.743-4.809 1.603-7.012 2.803-2.176 1.2-4.397 2.713-5.364 4.997-1.03 2.337.268 4.898 1.989 6.59 1.754 1.765 3.949 3.081 6.223 4.174 9.26 4.227 19.72 5.427 29.901 5.463 10.182-.099 20.652-1.362 29.839-5.732 2.248-1.137 4.415-2.498 6.081-4.352 1.665-1.764 2.632-4.478 1.325-6.69-1.227-2.149-3.438-3.6-5.66-4.737-2.238-1.146-4.638-1.979-7.074-2.686.322.062 2.517.34 5.938 1.397 1.836.635 4.074 1.424 6.33 3.16 1.103.878 2.24 2.114 2.785 3.87.565 1.79.18 3.788-.671 5.4" fill="currentColor" mask="url(#bla)"/></g><path d="M66.626 30.612c-.483 1.227-1.325 2.158-2.166 2.875-3.484 2.785-7.658 4.038-11.822 5.068-4.182.958-8.427 1.084-12.224 1.093-3.797.009-8.041-.099-12.224-1.03-4.173-.994-8.328-2.239-11.82-4.818-.85-.68-1.693-1.487-2.293-2.58-.608-1.1-.412-2.56.01-3.608.904-2.105 2.587-2.705 3.617-3.224 1.862-.77 2.759-.95 2.982-1.012-1.362.555-2.705 1.2-3.86 2.131-1.155.887-2.203 2.383-1.693 3.923.538 1.477 1.935 2.337 3.251 2.99 1.352.655 2.785 1.102 4.228 1.479 5.82 1.414 11.829 1.737 17.793 1.755 5.955-.045 11.973-.385 17.777-1.88 1.441-.386 2.865-.86 4.2-1.56 1.28-.68 2.669-1.683 2.937-3.24.214-1.595-.995-2.902-2.159-3.744-1.209-.878-2.57-1.496-3.94-2.024.197.054 1.093.206 3.009.922 1.066.484 2.687.994 3.824 2.84.556.94 1.066 2.372.573 3.644" fill="currentColor"/><g transform="translate(31.343 .057)"><mask id="blb" fill="#fff"><path d="M.017.69h17.49v27.429H.017V.689z"/></mask><path d="M17.507 19.379a8.74 8.74 0 0 1-8.741 8.74c-4.835 0-8.75-3.913-8.75-8.74S8.767.689 8.767.689s8.741 13.863 8.741 18.69" fill="currentColor" mask="url(#blb)"/></g></g></symbol><symbol viewBox="0 0 27 27" id="website" xmlns="http://www.w3.org/2000/svg"><g fill="none" fill-rule="evenodd"><g transform="translate(8.182 20.406)"><mask id="bma" fill="#fff"><path d="M.346 6.545h4.145V.801H.346v5.744z"/></mask><path d="M4.491.801a30.255 30.255 0 0 0-4.145.267c1.627 2.853 3.552 4.886 4.145 5.478V.8z" fill="currentColor" mask="url(#bma)"/></g><path d="M5.268 13.24c0-2.638.752-4.945 1.755-6.868a32.888 32.888 0 0 1-3.915-.95 13.022 13.022 0 0 0-3.085 7.836H5.27v-.017M12.673 20.392v-6.317H6.13c.158 2.416.963 4.686 1.978 6.636 1.573-.23 3.11-.323 4.564-.32" fill="currentColor"/><g transform="translate(0 13.86)"><mask id="bmb" fill="#fff"><path d="M0 .214v8.009h7.242V.214z"/></mask><path d="M2.863 8.172a25.341 25.341 0 0 1 4.38-1.18C6.24 5.001 5.46 2.694 5.31.213H0a13.025 13.025 0 0 0 2.88 8.009l-.017-.05z" fill="currentColor" mask="url(#bmb)"/></g><path d="M20.077 13.24c0-2.53-.756-4.76-1.752-6.615a30.852 30.852 0 0 1-4.74.357l-.094-.001v6.276h6.585l.001-.016M12.673 6.967a36.773 36.773 0 0 1-4.776-.447c-1.024 1.878-1.81 4.143-1.81 6.72 0 .004 2.195.01 6.586.017v-6.29zM13.499.819h-.008v5.346a30.13 30.13 0 0 0 4.406-.304c-1.799-2.978-4.085-4.8-4.398-5.042" fill="currentColor"/><g transform="translate(8.182 .77)"><mask id="bmc" fill="#fff"><path d="M.15.048h4.34v5.335H.15V.048z"/></mask><path d="M.15 4.994c1.287.194 2.755.345 4.34.389V.048h-.007C4.173.287 1.938 2.076.15 4.994" fill="currentColor" mask="url(#bmc)"/></g><path d="M20.032 14.075h-6.54v6.329a36.6 36.6 0 0 1 4.514.404c1.039-1.971 1.866-4.278 2.026-6.733M11.451 26.868a27.318 27.318 0 0 1-3.81-5.26 24.89 24.89 0 0 0-4.217 1.096 13.043 13.043 0 0 0 8.027 4.164M22.74 22.703c-.617-.194-2.158-.64-4.272-.997a27.373 27.373 0 0 1-3.756 5.161 13.038 13.038 0 0 0 8.028-4.164M3.715 4.753c.7.21 2.003.563 3.716.864A20.183 20.183 0 0 1 11.253.94a13.044 13.044 0 0 0-7.538 3.813zM13.491 26.952c.587-.585 2.476-2.58 4.09-5.382a35.704 35.704 0 0 0-4.09-.351v5.733zM18.79 5.716a24.883 24.883 0 0 0 3.673-.947A13.043 13.043 0 0 0 14.912.94c1.003.908 2.586 2.536 3.877 4.776" fill="currentColor"/><g transform="translate(18.818 13.86)"><mask id="bmd" fill="#fff"><path d="M7.346.213v7.972H.056V.213h7.29z"/></mask><path d="M.056 7.088c2.68.47 4.4 1.067 4.442 1.082l-.005.015A13.035 13.035 0 0 0 7.346.213H2.034C1.881 2.734 1.081 5.078.056 7.088" fill="currentColor" mask="url(#bmd)"/></g><path d="M20.895 13.24v.017h5.246c-.143-2.98-1.27-5.7-3.08-7.83-1.291.461-2.587.801-3.868 1.042.977 1.903 1.702 4.178 1.702 6.772" fill="currentColor"/></g></symbol><symbol viewBox="0 0 31 22" id="youtube" xmlns="http://www.w3.org/2000/svg"><g fill="none" fill-rule="evenodd"><mask id="bna" fill="#fff"><path d="M0 22V0h31v22z"/></mask><path d="M12.636 15.875c-.029-3.25-.029-6.5 0-9.75 2.89 1.612 5.831 3.257 8.758 4.875-2.927 1.618-5.868 3.263-8.758 4.875M26.236.219a262.688 262.688 0 0 0-21.472 0C2.478.322.386 2.304.218 4.6a93.907 93.907 0 0 0 0 12.801c.168 2.296 2.26 4.278 4.546 4.38 7.157.293 14.315.293 21.472 0 2.286-.102 4.378-2.084 4.546-4.38a93.907 93.907 0 0 0 0-12.8c-.168-2.296-2.26-4.278-4.546-4.38" fill="currentColor" mask="url(#bna)"/></g></symbol></svg>